<svg width="314" height="253" viewBox="0 0 314 253" fill="none" xmlns="http://www.w3.org/2000/svg">
<rect x="0.25" y="0.75" width="313.5" height="251.5" stroke="#CECDD5" stroke-width="0.5"/>
<path d="M112.026 81.116V77.468H108.426V74.732H112.026V71.084H114.858V74.732H118.458V77.468H114.858V81.116H112.026ZM126.717 84.5V69.956H126.285L124.029 75.284H120.813L124.245 67.7H129.789V84.5H126.717ZM138.793 84.836C136.809 84.836 135.217 84.292 134.017 83.204C132.817 82.1 132.217 80.436 132.217 78.212V73.988C132.217 71.828 132.817 70.188 134.017 69.068C135.217 67.932 136.809 67.364 138.793 67.364C140.793 67.364 142.385 67.932 143.569 69.068C144.769 70.188 145.369 71.828 145.369 73.988V78.212C145.369 80.436 144.769 82.1 143.569 83.204C142.385 84.292 140.793 84.836 138.793 84.836ZM138.793 82.1C139.993 82.1 140.873 81.772 141.433 81.116C142.009 80.46 142.297 79.524 142.297 78.308V73.844C142.297 72.612 141.977 71.684 141.337 71.06C140.713 70.42 139.865 70.1 138.793 70.1C137.689 70.1 136.825 70.428 136.201 71.084C135.593 71.74 135.289 72.66 135.289 73.844V78.308C135.289 79.572 135.577 80.524 136.153 81.164C136.745 81.788 137.625 82.1 138.793 82.1ZM153.633 84.5V72.596H156.609V73.892H157.041C157.249 73.492 157.593 73.148 158.073 72.86C158.553 72.556 159.185 72.404 159.969 72.404C160.817 72.404 161.497 72.572 162.009 72.908C162.521 73.228 162.913 73.652 163.185 74.18H163.617C163.889 73.668 164.273 73.244 164.769 72.908C165.265 72.572 165.969 72.404 166.881 72.404C167.617 72.404 168.281 72.564 168.873 72.884C169.481 73.188 169.961 73.66 170.313 74.3C170.681 74.924 170.865 75.716 170.865 76.676V84.5H167.841V76.892C167.841 76.236 167.673 75.748 167.337 75.428C167.001 75.092 166.529 74.924 165.921 74.924C165.233 74.924 164.697 75.148 164.313 75.596C163.945 76.028 163.761 76.652 163.761 77.468V84.5H160.737V76.892C160.737 76.236 160.569 75.748 160.233 75.428C159.897 75.092 159.425 74.924 158.817 74.924C158.129 74.924 157.593 75.148 157.209 75.596C156.841 76.028 156.657 76.652 156.657 77.468V84.5H153.633ZM179.421 84.836C178.237 84.836 177.173 84.596 176.229 84.116C175.285 83.636 174.541 82.94 173.997 82.028C173.453 81.116 173.181 80.02 173.181 78.74V78.356C173.181 77.076 173.453 75.98 173.997 75.068C174.541 74.156 175.285 73.46 176.229 72.98C177.173 72.5 178.237 72.26 179.421 72.26C180.605 72.26 181.669 72.5 182.613 72.98C183.557 73.46 184.301 74.156 184.845 75.068C185.389 75.98 185.661 77.076 185.661 78.356V78.74C185.661 80.02 185.389 81.116 184.845 82.028C184.301 82.94 183.557 83.636 182.613 84.116C181.669 84.596 180.605 84.836 179.421 84.836ZM179.421 82.148C180.349 82.148 181.117 81.852 181.725 81.26C182.333 80.652 182.637 79.788 182.637 78.668V78.428C182.637 77.308 182.333 76.452 181.725 75.86C181.133 75.252 180.365 74.948 179.421 74.948C178.493 74.948 177.725 75.252 177.117 75.86C176.509 76.452 176.205 77.308 176.205 78.428V78.668C176.205 79.788 176.509 80.652 177.117 81.26C177.725 81.852 178.493 82.148 179.421 82.148ZM188.092 84.5V72.596H191.068V73.94H191.5C191.676 73.46 191.964 73.108 192.364 72.884C192.78 72.66 193.26 72.548 193.804 72.548H195.244V75.236H193.756C192.988 75.236 192.356 75.444 191.86 75.86C191.364 76.26 191.116 76.884 191.116 77.732V84.5H188.092ZM202.25 84.836C201.066 84.836 200.018 84.588 199.106 84.092C198.21 83.58 197.506 82.868 196.994 81.956C196.498 81.028 196.25 79.94 196.25 78.692V78.404C196.25 77.156 196.498 76.076 196.994 75.164C197.49 74.236 198.186 73.524 199.082 73.028C199.978 72.516 201.018 72.26 202.202 72.26C203.37 72.26 204.386 72.524 205.25 73.052C206.114 73.564 206.786 74.284 207.266 75.212C207.746 76.124 207.986 77.188 207.986 78.404V79.436H199.322C199.354 80.252 199.658 80.916 200.234 81.428C200.81 81.94 201.514 82.196 202.346 82.196C203.194 82.196 203.818 82.012 204.218 81.644C204.618 81.276 204.922 80.868 205.13 80.42L207.602 81.716C207.378 82.132 207.05 82.588 206.618 83.084C206.202 83.564 205.642 83.98 204.938 84.332C204.234 84.668 203.338 84.836 202.25 84.836ZM199.346 77.18H204.914C204.85 76.492 204.57 75.94 204.074 75.524C203.594 75.108 202.962 74.9 202.178 74.9C201.362 74.9 200.714 75.108 200.234 75.524C199.754 75.94 199.458 76.492 199.346 77.18Z" fill="black"/>
<path d="M93.2789 109.5V99.3182H96.8385C97.5478 99.3182 98.1328 99.4408 98.5935 99.6861C99.0542 99.928 99.3972 100.254 99.6226 100.665C99.848 101.073 99.9607 101.526 99.9607 102.023C99.9607 102.46 99.8828 102.821 99.727 103.107C99.5745 103.392 99.3724 103.617 99.1205 103.783C98.8719 103.948 98.6018 104.071 98.3101 104.151V104.25C98.6217 104.27 98.9349 104.379 99.2497 104.578C99.5646 104.777 99.8281 105.062 100.04 105.433C100.252 105.804 100.358 106.259 100.358 106.795C100.358 107.306 100.242 107.765 100.01 108.173C99.7784 108.58 99.4121 108.903 98.9117 109.142C98.4112 109.381 97.7599 109.5 96.9578 109.5H93.2789ZM94.5118 108.406H96.9578C97.7632 108.406 98.335 108.25 98.673 107.939C99.0144 107.624 99.1851 107.243 99.1851 106.795C99.1851 106.451 99.0973 106.133 98.9216 105.841C98.7459 105.546 98.4957 105.311 98.1709 105.135C97.8461 104.956 97.4616 104.866 97.0175 104.866H94.5118V108.406ZM94.5118 103.793H96.7987C97.17 103.793 97.5047 103.72 97.803 103.574C98.1046 103.428 98.3432 103.223 98.5189 102.957C98.6979 102.692 98.7874 102.381 98.7874 102.023C98.7874 101.575 98.6316 101.196 98.32 100.884C98.0085 100.569 97.5146 100.412 96.8385 100.412H94.5118V103.793ZM105.427 109.659C104.691 109.659 104.056 109.497 103.523 109.172C102.993 108.844 102.583 108.386 102.295 107.8C102.01 107.21 101.867 106.524 101.867 105.741C101.867 104.959 102.01 104.27 102.295 103.673C102.583 103.073 102.984 102.606 103.498 102.271C104.015 101.933 104.618 101.764 105.308 101.764C105.705 101.764 106.098 101.83 106.486 101.963C106.874 102.096 107.227 102.311 107.545 102.609C107.863 102.904 108.117 103.295 108.305 103.783C108.494 104.27 108.589 104.87 108.589 105.582V106.08H102.703V105.065H107.396C107.396 104.634 107.31 104.25 107.137 103.912C106.968 103.574 106.726 103.307 106.411 103.112C106.1 102.916 105.732 102.818 105.308 102.818C104.84 102.818 104.436 102.934 104.095 103.166C103.756 103.395 103.496 103.693 103.314 104.061C103.132 104.429 103.041 104.823 103.041 105.244V105.92C103.041 106.497 103.14 106.986 103.339 107.387C103.541 107.785 103.821 108.088 104.179 108.297C104.537 108.502 104.953 108.605 105.427 108.605C105.735 108.605 106.014 108.562 106.262 108.476C106.514 108.386 106.731 108.254 106.913 108.078C107.096 107.899 107.237 107.677 107.336 107.412L108.47 107.73C108.35 108.115 108.15 108.453 107.868 108.744C107.586 109.033 107.238 109.258 106.824 109.42C106.41 109.58 105.944 109.659 105.427 109.659ZM113.476 109.659C112.76 109.659 112.144 109.49 111.627 109.152C111.109 108.814 110.712 108.348 110.433 107.755C110.155 107.162 110.016 106.484 110.016 105.722C110.016 104.946 110.158 104.262 110.443 103.668C110.732 103.072 111.133 102.606 111.646 102.271C112.163 101.933 112.767 101.764 113.456 101.764C113.993 101.764 114.477 101.864 114.908 102.062C115.339 102.261 115.692 102.54 115.967 102.898C116.242 103.256 116.412 103.673 116.479 104.151H115.305C115.216 103.803 115.017 103.494 114.709 103.226C114.404 102.954 113.993 102.818 113.476 102.818C113.019 102.818 112.618 102.937 112.273 103.176C111.931 103.411 111.665 103.745 111.472 104.175C111.283 104.603 111.189 105.105 111.189 105.682C111.189 106.272 111.282 106.786 111.467 107.223C111.656 107.661 111.921 108 112.263 108.242C112.608 108.484 113.012 108.605 113.476 108.605C113.781 108.605 114.058 108.552 114.306 108.446C114.555 108.34 114.765 108.188 114.938 107.989C115.11 107.79 115.233 107.551 115.305 107.273H116.479C116.412 107.723 116.248 108.129 115.987 108.491C115.728 108.849 115.385 109.134 114.957 109.346C114.533 109.555 114.039 109.659 113.476 109.659ZM121.296 109.659C120.607 109.659 120.002 109.495 119.482 109.167C118.965 108.839 118.56 108.38 118.269 107.79C117.98 107.2 117.836 106.51 117.836 105.722C117.836 104.926 117.98 104.232 118.269 103.638C118.56 103.045 118.965 102.585 119.482 102.256C120.002 101.928 120.607 101.764 121.296 101.764C121.986 101.764 122.589 101.928 123.106 102.256C123.626 102.585 124.031 103.045 124.319 103.638C124.611 104.232 124.756 104.926 124.756 105.722C124.756 106.51 124.611 107.2 124.319 107.79C124.031 108.38 123.626 108.839 123.106 109.167C122.589 109.495 121.986 109.659 121.296 109.659ZM121.296 108.605C121.82 108.605 122.251 108.471 122.589 108.202C122.927 107.934 123.177 107.581 123.34 107.143C123.502 106.706 123.583 106.232 123.583 105.722C123.583 105.211 123.502 104.736 123.34 104.295C123.177 103.854 122.927 103.498 122.589 103.226C122.251 102.954 121.82 102.818 121.296 102.818C120.773 102.818 120.342 102.954 120.004 103.226C119.666 103.498 119.415 103.854 119.253 104.295C119.091 104.736 119.009 105.211 119.009 105.722C119.009 106.232 119.091 106.706 119.253 107.143C119.415 107.581 119.666 107.934 120.004 108.202C120.342 108.471 120.773 108.605 121.296 108.605ZM126.547 109.5V101.864H127.681V103.057H127.78C127.94 102.649 128.196 102.333 128.551 102.107C128.906 101.879 129.332 101.764 129.829 101.764C130.333 101.764 130.752 101.879 131.087 102.107C131.425 102.333 131.688 102.649 131.877 103.057H131.957C132.152 102.662 132.445 102.349 132.837 102.117C133.228 101.882 133.697 101.764 134.244 101.764C134.926 101.764 135.485 101.978 135.919 102.406C136.353 102.83 136.57 103.491 136.57 104.389V109.5H135.397V104.389C135.397 103.826 135.243 103.423 134.935 103.181C134.626 102.939 134.263 102.818 133.846 102.818C133.309 102.818 132.893 102.981 132.598 103.305C132.303 103.627 132.155 104.035 132.155 104.528V109.5H130.962V104.27C130.962 103.836 130.821 103.486 130.54 103.221C130.258 102.952 129.895 102.818 129.451 102.818C129.146 102.818 128.861 102.899 128.596 103.062C128.334 103.224 128.122 103.45 127.959 103.738C127.8 104.023 127.721 104.353 127.721 104.727V109.5H126.547ZM141.917 109.659C141.181 109.659 140.547 109.497 140.013 109.172C139.483 108.844 139.073 108.386 138.785 107.8C138.5 107.21 138.358 106.524 138.358 105.741C138.358 104.959 138.5 104.27 138.785 103.673C139.073 103.073 139.474 102.606 139.988 102.271C140.505 101.933 141.108 101.764 141.798 101.764C142.196 101.764 142.588 101.83 142.976 101.963C143.364 102.096 143.717 102.311 144.035 102.609C144.353 102.904 144.607 103.295 144.796 103.783C144.985 104.27 145.079 104.87 145.079 105.582V106.08H139.193V105.065H143.886C143.886 104.634 143.8 104.25 143.627 103.912C143.458 103.574 143.216 103.307 142.902 103.112C142.59 102.916 142.222 102.818 141.798 102.818C141.331 102.818 140.926 102.934 140.585 103.166C140.247 103.395 139.987 103.693 139.804 104.061C139.622 104.429 139.531 104.823 139.531 105.244V105.92C139.531 106.497 139.63 106.986 139.829 107.387C140.031 107.785 140.311 108.088 140.669 108.297C141.027 108.502 141.443 108.605 141.917 108.605C142.225 108.605 142.504 108.562 142.752 108.476C143.004 108.386 143.221 108.254 143.404 108.078C143.586 107.899 143.727 107.677 143.826 107.412L144.96 107.73C144.84 108.115 144.64 108.453 144.358 108.744C144.076 109.033 143.728 109.258 143.314 109.42C142.9 109.58 142.434 109.659 141.917 109.659ZM153.904 109.659C153.214 109.659 152.609 109.495 152.089 109.167C151.572 108.839 151.168 108.38 150.876 107.79C150.588 107.2 150.443 106.51 150.443 105.722C150.443 104.926 150.588 104.232 150.876 103.638C151.168 103.045 151.572 102.585 152.089 102.256C152.609 101.928 153.214 101.764 153.904 101.764C154.593 101.764 155.196 101.928 155.713 102.256C156.234 102.585 156.638 103.045 156.926 103.638C157.218 104.232 157.364 104.926 157.364 105.722C157.364 106.51 157.218 107.2 156.926 107.79C156.638 108.38 156.234 108.839 155.713 109.167C155.196 109.495 154.593 109.659 153.904 109.659ZM153.904 108.605C154.427 108.605 154.858 108.471 155.196 108.202C155.534 107.934 155.785 107.581 155.947 107.143C156.109 106.706 156.191 106.232 156.191 105.722C156.191 105.211 156.109 104.736 155.947 104.295C155.785 103.854 155.534 103.498 155.196 103.226C154.858 102.954 154.427 102.818 153.904 102.818C153.38 102.818 152.949 102.954 152.611 103.226C152.273 103.498 152.023 103.854 151.86 104.295C151.698 104.736 151.617 105.211 151.617 105.722C151.617 106.232 151.698 106.706 151.86 107.143C152.023 107.581 152.273 107.934 152.611 108.202C152.949 108.471 153.38 108.605 153.904 108.605ZM163.967 106.378V101.864H165.141V109.5H163.967V108.207H163.888C163.709 108.595 163.43 108.925 163.053 109.197C162.675 109.465 162.198 109.599 161.621 109.599C161.144 109.599 160.719 109.495 160.348 109.286C159.977 109.074 159.685 108.756 159.473 108.332C159.261 107.904 159.155 107.366 159.155 106.716V101.864H160.328V106.636C160.328 107.193 160.484 107.637 160.796 107.969C161.11 108.3 161.511 108.466 161.999 108.466C162.29 108.466 162.587 108.391 162.889 108.242C163.194 108.093 163.449 107.864 163.654 107.556C163.863 107.248 163.967 106.855 163.967 106.378ZM167.29 109.5V101.864H168.423V103.017H168.503C168.642 102.639 168.894 102.333 169.258 102.097C169.623 101.862 170.034 101.744 170.491 101.744C170.578 101.744 170.685 101.746 170.815 101.749C170.944 101.753 171.042 101.758 171.108 101.764V102.957C171.068 102.947 170.977 102.933 170.834 102.913C170.695 102.889 170.548 102.878 170.392 102.878C170.021 102.878 169.689 102.956 169.398 103.112C169.109 103.264 168.881 103.476 168.712 103.748C168.546 104.016 168.463 104.323 168.463 104.668V109.5H167.29ZM179.757 101.864V102.858H175.8V101.864H179.757ZM176.953 100.034H178.127V107.312C178.127 107.644 178.175 107.893 178.271 108.058C178.37 108.221 178.496 108.33 178.649 108.386C178.804 108.439 178.968 108.466 179.141 108.466C179.27 108.466 179.376 108.459 179.459 108.446C179.542 108.429 179.608 108.416 179.658 108.406L179.896 109.46C179.817 109.49 179.706 109.52 179.563 109.55C179.421 109.583 179.24 109.599 179.021 109.599C178.69 109.599 178.365 109.528 178.047 109.386C177.732 109.243 177.47 109.026 177.261 108.734C177.056 108.443 176.953 108.075 176.953 107.631V100.034ZM181.522 109.5V101.864H182.656V103.017H182.735C182.874 102.639 183.126 102.333 183.491 102.097C183.855 101.862 184.266 101.744 184.724 101.744C184.81 101.744 184.918 101.746 185.047 101.749C185.176 101.753 185.274 101.758 185.34 101.764V102.957C185.301 102.947 185.209 102.933 185.067 102.913C184.928 102.889 184.78 102.878 184.624 102.878C184.253 102.878 183.922 102.956 183.63 103.112C183.342 103.264 183.113 103.476 182.944 103.748C182.778 104.016 182.695 104.323 182.695 104.668V109.5H181.522ZM191.544 106.378V101.864H192.717V109.5H191.544V108.207H191.464C191.285 108.595 191.007 108.925 190.629 109.197C190.251 109.465 189.774 109.599 189.197 109.599C188.72 109.599 188.295 109.495 187.924 109.286C187.553 109.074 187.261 108.756 187.049 108.332C186.837 107.904 186.731 107.366 186.731 106.716V101.864H187.904V106.636C187.904 107.193 188.06 107.637 188.372 107.969C188.687 108.3 189.088 108.466 189.575 108.466C189.867 108.466 190.163 108.391 190.465 108.242C190.77 108.093 191.025 107.864 191.23 107.556C191.439 107.248 191.544 106.855 191.544 106.378ZM200.275 103.574L199.221 103.872C199.155 103.696 199.057 103.526 198.928 103.36C198.802 103.191 198.629 103.052 198.411 102.942C198.192 102.833 197.912 102.778 197.57 102.778C197.103 102.778 196.714 102.886 196.402 103.102C196.094 103.314 195.94 103.584 195.94 103.912C195.94 104.204 196.046 104.434 196.258 104.603C196.47 104.772 196.801 104.913 197.252 105.026L198.386 105.304C199.069 105.47 199.577 105.723 199.912 106.065C200.247 106.403 200.414 106.839 200.414 107.372C200.414 107.81 200.288 108.201 200.036 108.545C199.788 108.89 199.44 109.162 198.992 109.361C198.545 109.56 198.024 109.659 197.431 109.659C196.652 109.659 196.008 109.49 195.497 109.152C194.987 108.814 194.664 108.32 194.528 107.67L195.641 107.392C195.747 107.803 195.948 108.111 196.243 108.317C196.541 108.522 196.931 108.625 197.411 108.625C197.958 108.625 198.392 108.509 198.714 108.277C199.039 108.042 199.201 107.76 199.201 107.432C199.201 107.167 199.108 106.945 198.923 106.766C198.737 106.583 198.452 106.447 198.068 106.358L196.795 106.06C196.095 105.894 195.582 105.637 195.254 105.289C194.929 104.938 194.766 104.499 194.766 103.972C194.766 103.541 194.887 103.16 195.129 102.828C195.375 102.497 195.708 102.237 196.129 102.048C196.553 101.859 197.033 101.764 197.57 101.764C198.326 101.764 198.919 101.93 199.35 102.261C199.784 102.593 200.093 103.03 200.275 103.574ZM205.501 101.864V102.858H201.544V101.864H205.501ZM202.697 100.034H203.871V107.312C203.871 107.644 203.919 107.893 204.015 108.058C204.114 108.221 204.24 108.33 204.393 108.386C204.548 108.439 204.713 108.466 204.885 108.466C205.014 108.466 205.12 108.459 205.203 108.446C205.286 108.429 205.352 108.416 205.402 108.406L205.641 109.46C205.561 109.49 205.45 109.52 205.307 109.55C205.165 109.583 204.984 109.599 204.766 109.599C204.434 109.599 204.109 109.528 203.791 109.386C203.476 109.243 203.214 109.026 203.006 108.734C202.8 108.443 202.697 108.075 202.697 107.631V100.034ZM210.386 109.659C209.65 109.659 209.015 109.497 208.482 109.172C207.951 108.844 207.542 108.386 207.254 107.8C206.969 107.21 206.826 106.524 206.826 105.741C206.826 104.959 206.969 104.27 207.254 103.673C207.542 103.073 207.943 102.606 208.457 102.271C208.974 101.933 209.577 101.764 210.267 101.764C210.664 101.764 211.057 101.83 211.445 101.963C211.833 102.096 212.186 102.311 212.504 102.609C212.822 102.904 213.076 103.295 213.264 103.783C213.453 104.27 213.548 104.87 213.548 105.582V106.08H207.661V105.065H212.355C212.355 104.634 212.268 104.25 212.096 103.912C211.927 103.574 211.685 103.307 211.37 103.112C211.059 102.916 210.691 102.818 210.267 102.818C209.799 102.818 209.395 102.934 209.054 103.166C208.715 103.395 208.455 103.693 208.273 104.061C208.091 104.429 208 104.823 208 105.244V105.92C208 106.497 208.099 106.986 208.298 107.387C208.5 107.785 208.78 108.088 209.138 108.297C209.496 108.502 209.912 108.605 210.386 108.605C210.694 108.605 210.973 108.562 211.221 108.476C211.473 108.386 211.69 108.254 211.872 108.078C212.055 107.899 212.196 107.677 212.295 107.412L213.429 107.73C213.309 108.115 213.109 108.453 212.827 108.744C212.545 109.033 212.197 109.258 211.783 109.42C211.369 109.58 210.903 109.659 210.386 109.659ZM218.216 109.659C217.58 109.659 217.018 109.498 216.531 109.177C216.044 108.852 215.662 108.395 215.387 107.805C215.112 107.211 214.975 106.51 214.975 105.702C214.975 104.9 215.112 104.204 215.387 103.614C215.662 103.024 216.045 102.568 216.536 102.246C217.026 101.925 217.593 101.764 218.236 101.764C218.733 101.764 219.126 101.847 219.414 102.013C219.706 102.175 219.928 102.361 220.081 102.57C220.236 102.775 220.357 102.944 220.443 103.077H220.543V99.3182H221.716V109.5H220.583V108.327H220.443C220.357 108.466 220.235 108.642 220.076 108.854C219.916 109.062 219.689 109.25 219.394 109.415C219.099 109.578 218.707 109.659 218.216 109.659ZM218.375 108.605C218.846 108.605 219.244 108.482 219.568 108.237C219.893 107.989 220.14 107.646 220.309 107.208C220.478 106.767 220.563 106.259 220.563 105.682C220.563 105.112 220.48 104.613 220.314 104.185C220.148 103.754 219.903 103.42 219.578 103.181C219.254 102.939 218.853 102.818 218.375 102.818C217.878 102.818 217.464 102.946 217.132 103.201C216.804 103.453 216.557 103.796 216.392 104.23C216.229 104.661 216.148 105.145 216.148 105.682C216.148 106.225 216.231 106.719 216.397 107.163C216.566 107.604 216.814 107.955 217.142 108.217C217.474 108.476 217.885 108.605 218.375 108.605ZM113.505 132.364V121.864H114.638V123.077H114.777C114.863 122.944 114.983 122.775 115.135 122.57C115.291 122.361 115.513 122.175 115.801 122.013C116.093 121.847 116.487 121.764 116.985 121.764C117.628 121.764 118.194 121.925 118.685 122.246C119.175 122.568 119.558 123.024 119.833 123.614C120.108 124.204 120.246 124.9 120.246 125.702C120.246 126.51 120.108 127.211 119.833 127.805C119.558 128.395 119.177 128.852 118.69 129.177C118.203 129.498 117.641 129.659 117.005 129.659C116.514 129.659 116.121 129.578 115.826 129.415C115.531 129.25 115.304 129.062 115.145 128.854C114.986 128.642 114.863 128.466 114.777 128.327H114.678V132.364H113.505ZM114.658 125.682C114.658 126.259 114.742 126.767 114.911 127.208C115.081 127.646 115.327 127.989 115.652 128.237C115.977 128.482 116.375 128.605 116.845 128.605C117.336 128.605 117.745 128.476 118.073 128.217C118.405 127.955 118.653 127.604 118.819 127.163C118.988 126.719 119.073 126.225 119.073 125.682C119.073 125.145 118.99 124.661 118.824 124.23C118.662 123.796 118.415 123.453 118.083 123.201C117.755 122.946 117.343 122.818 116.845 122.818C116.368 122.818 115.967 122.939 115.642 123.181C115.318 123.42 115.072 123.754 114.907 124.185C114.741 124.613 114.658 125.112 114.658 125.682ZM124.283 129.679C123.799 129.679 123.36 129.588 122.965 129.406C122.571 129.22 122.258 128.953 122.026 128.605C121.794 128.254 121.678 127.83 121.678 127.332C121.678 126.895 121.764 126.54 121.936 126.268C122.109 125.993 122.339 125.778 122.627 125.622C122.916 125.466 123.234 125.35 123.582 125.274C123.933 125.195 124.286 125.132 124.641 125.085C125.105 125.026 125.481 124.981 125.769 124.951C126.061 124.918 126.273 124.863 126.406 124.787C126.542 124.711 126.61 124.578 126.61 124.389V124.349C126.61 123.859 126.475 123.478 126.207 123.206C125.942 122.934 125.539 122.798 124.999 122.798C124.439 122.798 124 122.921 123.681 123.166C123.363 123.411 123.139 123.673 123.01 123.952L121.897 123.554C122.095 123.09 122.361 122.729 122.692 122.47C123.027 122.208 123.391 122.026 123.786 121.923C124.184 121.817 124.575 121.764 124.959 121.764C125.204 121.764 125.486 121.794 125.804 121.854C126.126 121.91 126.436 122.028 126.734 122.207C127.036 122.386 127.286 122.656 127.485 123.017C127.684 123.378 127.783 123.862 127.783 124.469V129.5H126.61V128.466H126.55C126.47 128.632 126.338 128.809 126.152 128.998C125.967 129.187 125.72 129.348 125.411 129.48C125.103 129.613 124.727 129.679 124.283 129.679ZM124.462 128.625C124.926 128.625 125.317 128.534 125.635 128.352C125.957 128.169 126.199 127.934 126.361 127.646C126.527 127.357 126.61 127.054 126.61 126.736V125.662C126.56 125.722 126.451 125.776 126.282 125.826C126.116 125.872 125.924 125.914 125.705 125.95C125.489 125.983 125.279 126.013 125.073 126.04C124.871 126.063 124.707 126.083 124.581 126.099C124.276 126.139 123.991 126.204 123.726 126.293C123.464 126.379 123.252 126.51 123.09 126.686C122.931 126.858 122.851 127.094 122.851 127.392C122.851 127.8 123.002 128.108 123.304 128.317C123.608 128.522 123.995 128.625 124.462 128.625ZM129.924 129.5V121.864H131.058V123.017H131.138C131.277 122.639 131.529 122.333 131.893 122.097C132.258 121.862 132.669 121.744 133.126 121.744C133.212 121.744 133.32 121.746 133.449 121.749C133.579 121.753 133.676 121.758 133.743 121.764V122.957C133.703 122.947 133.612 122.933 133.469 122.913C133.33 122.889 133.182 122.878 133.027 122.878C132.656 122.878 132.324 122.956 132.032 123.112C131.744 123.264 131.515 123.476 131.346 123.748C131.181 124.016 131.098 124.323 131.098 124.668V129.5H129.924ZM138.933 121.864V122.858H134.976V121.864H138.933ZM136.129 120.034H137.302V127.312C137.302 127.644 137.35 127.893 137.446 128.058C137.546 128.221 137.672 128.33 137.824 128.386C137.98 128.439 138.144 128.466 138.316 128.466C138.446 128.466 138.552 128.459 138.635 128.446C138.718 128.429 138.784 128.416 138.834 128.406L139.072 129.46C138.993 129.49 138.882 129.52 138.739 129.55C138.597 129.583 138.416 129.599 138.197 129.599C137.866 129.599 137.541 129.528 137.223 129.386C136.908 129.243 136.646 129.026 136.437 128.734C136.232 128.443 136.129 128.075 136.129 127.631V120.034ZM141.871 124.906V129.5H140.698V121.864H141.831V123.057H141.931C142.11 122.669 142.382 122.357 142.746 122.122C143.111 121.884 143.581 121.764 144.158 121.764C144.675 121.764 145.128 121.87 145.515 122.082C145.903 122.291 146.205 122.609 146.42 123.037C146.636 123.461 146.743 123.998 146.743 124.648V129.5H145.57V124.727C145.57 124.127 145.414 123.66 145.103 123.325C144.791 122.987 144.364 122.818 143.82 122.818C143.446 122.818 143.111 122.899 142.816 123.062C142.524 123.224 142.294 123.461 142.125 123.773C141.956 124.084 141.871 124.462 141.871 124.906ZM152.089 129.659C151.353 129.659 150.719 129.497 150.185 129.172C149.655 128.844 149.245 128.386 148.957 127.8C148.672 127.21 148.529 126.524 148.529 125.741C148.529 124.959 148.672 124.27 148.957 123.673C149.245 123.073 149.646 122.606 150.16 122.271C150.677 121.933 151.28 121.764 151.97 121.764C152.367 121.764 152.76 121.83 153.148 121.963C153.536 122.096 153.889 122.311 154.207 122.609C154.525 122.904 154.779 123.295 154.968 123.783C155.157 124.27 155.251 124.87 155.251 125.582V126.08H149.365V125.065H154.058C154.058 124.634 153.972 124.25 153.799 123.912C153.63 123.574 153.388 123.307 153.073 123.112C152.762 122.916 152.394 122.818 151.97 122.818C151.502 122.818 151.098 122.934 150.757 123.166C150.419 123.395 150.158 123.693 149.976 124.061C149.794 124.429 149.703 124.823 149.703 125.244V125.92C149.703 126.497 149.802 126.986 150.001 127.387C150.203 127.785 150.483 128.088 150.841 128.297C151.199 128.502 151.615 128.605 152.089 128.605C152.397 128.605 152.676 128.562 152.924 128.476C153.176 128.386 153.393 128.254 153.576 128.078C153.758 127.899 153.899 127.677 153.998 127.412L155.132 127.73C155.012 128.115 154.812 128.453 154.53 128.744C154.248 129.033 153.9 129.258 153.486 129.42C153.072 129.58 152.606 129.659 152.089 129.659ZM157.036 129.5V121.864H158.169V123.017H158.249C158.388 122.639 158.64 122.333 159.005 122.097C159.369 121.862 159.78 121.744 160.237 121.744C160.324 121.744 160.431 121.746 160.561 121.749C160.69 121.753 160.788 121.758 160.854 121.764V122.957C160.814 122.947 160.723 122.933 160.581 122.913C160.441 122.889 160.294 122.878 160.138 122.878C159.767 122.878 159.435 122.956 159.144 123.112C158.855 123.264 158.627 123.476 158.458 123.748C158.292 124.016 158.209 124.323 158.209 124.668V129.5H157.036ZM169.503 121.864V122.858H165.546V121.864H169.503ZM166.699 120.034H167.873V127.312C167.873 127.644 167.921 127.893 168.017 128.058C168.116 128.221 168.242 128.33 168.395 128.386C168.55 128.439 168.714 128.466 168.887 128.466C169.016 128.466 169.122 128.459 169.205 128.446C169.288 128.429 169.354 128.416 169.404 128.406L169.642 129.46C169.563 129.49 169.452 129.52 169.309 129.55C169.167 129.583 168.986 129.599 168.767 129.599C168.436 129.599 168.111 129.528 167.793 129.386C167.478 129.243 167.216 129.026 167.008 128.734C166.802 128.443 166.699 128.075 166.699 127.631V120.034ZM174.288 129.659C173.599 129.659 172.994 129.495 172.474 129.167C171.957 128.839 171.552 128.38 171.261 127.79C170.972 127.2 170.828 126.51 170.828 125.722C170.828 124.926 170.972 124.232 171.261 123.638C171.552 123.045 171.957 122.585 172.474 122.256C172.994 121.928 173.599 121.764 174.288 121.764C174.978 121.764 175.581 121.928 176.098 122.256C176.618 122.585 177.023 123.045 177.311 123.638C177.603 124.232 177.749 124.926 177.749 125.722C177.749 126.51 177.603 127.2 177.311 127.79C177.023 128.38 176.618 128.839 176.098 129.167C175.581 129.495 174.978 129.659 174.288 129.659ZM174.288 128.605C174.812 128.605 175.243 128.471 175.581 128.202C175.919 127.934 176.169 127.581 176.332 127.143C176.494 126.706 176.575 126.232 176.575 125.722C176.575 125.211 176.494 124.736 176.332 124.295C176.169 123.854 175.919 123.498 175.581 123.226C175.243 122.954 174.812 122.818 174.288 122.818C173.765 122.818 173.334 122.954 172.996 123.226C172.658 123.498 172.408 123.854 172.245 124.295C172.083 124.736 172.002 125.211 172.002 125.722C172.002 126.232 172.083 126.706 172.245 127.143C172.408 127.581 172.658 127.934 172.996 128.202C173.334 128.471 173.765 128.605 174.288 128.605ZM182.423 129.659C181.787 129.659 181.225 129.498 180.738 129.177C180.251 128.852 179.869 128.395 179.594 127.805C179.319 127.211 179.182 126.51 179.182 125.702C179.182 124.9 179.319 124.204 179.594 123.614C179.869 123.024 180.252 122.568 180.743 122.246C181.233 121.925 181.8 121.764 182.443 121.764C182.94 121.764 183.333 121.847 183.621 122.013C183.913 122.175 184.135 122.361 184.288 122.57C184.443 122.775 184.564 122.944 184.65 123.077H184.75V119.318H185.923V129.5H184.79V128.327H184.65C184.564 128.466 184.442 128.642 184.283 128.854C184.123 129.062 183.896 129.25 183.601 129.415C183.306 129.578 182.914 129.659 182.423 129.659ZM182.582 128.605C183.053 128.605 183.451 128.482 183.775 128.237C184.1 127.989 184.347 127.646 184.516 127.208C184.685 126.767 184.77 126.259 184.77 125.682C184.77 125.112 184.687 124.613 184.521 124.185C184.355 123.754 184.11 123.42 183.785 123.181C183.461 122.939 183.06 122.818 182.582 122.818C182.085 122.818 181.671 122.946 181.339 123.201C181.011 123.453 180.764 123.796 180.599 124.23C180.436 124.661 180.355 125.145 180.355 125.682C180.355 126.225 180.438 126.719 180.604 127.163C180.773 127.604 181.021 127.955 181.349 128.217C181.681 128.476 182.092 128.605 182.582 128.605ZM190.482 129.679C189.998 129.679 189.559 129.588 189.165 129.406C188.77 129.22 188.457 128.953 188.225 128.605C187.993 128.254 187.877 127.83 187.877 127.332C187.877 126.895 187.963 126.54 188.136 126.268C188.308 125.993 188.538 125.778 188.827 125.622C189.115 125.466 189.433 125.35 189.781 125.274C190.132 125.195 190.485 125.132 190.84 125.085C191.304 125.026 191.68 124.981 191.969 124.951C192.26 124.918 192.472 124.863 192.605 124.787C192.741 124.711 192.809 124.578 192.809 124.389V124.349C192.809 123.859 192.675 123.478 192.406 123.206C192.141 122.934 191.738 122.798 191.198 122.798C190.638 122.798 190.199 122.921 189.881 123.166C189.562 123.411 189.339 123.673 189.209 123.952L188.096 123.554C188.295 123.09 188.56 122.729 188.891 122.47C189.226 122.208 189.591 122.026 189.985 121.923C190.383 121.817 190.774 121.764 191.158 121.764C191.404 121.764 191.685 121.794 192.003 121.854C192.325 121.91 192.635 122.028 192.933 122.207C193.235 122.386 193.485 122.656 193.684 123.017C193.883 123.378 193.982 123.862 193.982 124.469V129.5H192.809V128.466H192.749C192.67 128.632 192.537 128.809 192.351 128.998C192.166 129.187 191.919 129.348 191.611 129.48C191.302 129.613 190.926 129.679 190.482 129.679ZM190.661 128.625C191.125 128.625 191.516 128.534 191.834 128.352C192.156 128.169 192.398 127.934 192.56 127.646C192.726 127.357 192.809 127.054 192.809 126.736V125.662C192.759 125.722 192.65 125.776 192.481 125.826C192.315 125.872 192.123 125.914 191.904 125.95C191.689 125.983 191.478 126.013 191.273 126.04C191.07 126.063 190.906 126.083 190.78 126.099C190.476 126.139 190.19 126.204 189.925 126.293C189.664 126.379 189.451 126.51 189.289 126.686C189.13 126.858 189.05 127.094 189.05 127.392C189.05 127.8 189.201 128.108 189.503 128.317C189.808 128.522 190.194 128.625 190.661 128.625ZM196.606 132.364C196.407 132.364 196.23 132.347 196.074 132.314C195.918 132.284 195.81 132.254 195.751 132.224L196.049 131.19C196.334 131.263 196.586 131.29 196.805 131.27C197.024 131.25 197.217 131.152 197.386 130.977C197.559 130.804 197.716 130.524 197.859 130.136L198.078 129.54L195.254 121.864H196.526L198.634 127.949H198.714L200.822 121.864H202.095L198.853 130.614C198.707 131.008 198.527 131.335 198.311 131.593C198.096 131.855 197.845 132.049 197.56 132.175C197.279 132.301 196.961 132.364 196.606 132.364Z" fill="black"/>
<rect width="144" height="32" transform="translate(85.5 157.5)" fill="#FEF1EB"/>
<path d="M96.7104 178.5V168.7H100.826C101.433 168.7 101.965 168.807 102.422 169.022C102.889 169.227 103.248 169.526 103.5 169.918C103.762 170.31 103.892 170.777 103.892 171.318V171.472C103.892 172.088 103.743 172.583 103.444 172.956C103.155 173.32 102.8 173.577 102.38 173.726V173.95C102.735 173.969 103.02 174.09 103.234 174.314C103.449 174.529 103.556 174.841 103.556 175.252V178.5H102.03V175.462C102.03 175.21 101.965 175.009 101.834 174.86C101.704 174.711 101.494 174.636 101.204 174.636H98.2224V178.5H96.7104ZM98.2224 173.264H100.658C101.2 173.264 101.62 173.129 101.918 172.858C102.217 172.578 102.366 172.2 102.366 171.724V171.612C102.366 171.136 102.217 170.763 101.918 170.492C101.629 170.212 101.209 170.072 100.658 170.072H98.2224V173.264ZM109.602 178.696C108.902 178.696 108.291 178.551 107.768 178.262C107.245 177.963 106.835 177.548 106.536 177.016C106.247 176.475 106.102 175.849 106.102 175.14V174.972C106.102 174.253 106.247 173.628 106.536 173.096C106.825 172.555 107.227 172.139 107.74 171.85C108.263 171.551 108.865 171.402 109.546 171.402C110.209 171.402 110.787 171.551 111.282 171.85C111.786 172.139 112.178 172.545 112.458 173.068C112.738 173.591 112.878 174.202 112.878 174.902V175.448H107.572C107.591 176.055 107.791 176.54 108.174 176.904C108.566 177.259 109.051 177.436 109.63 177.436C110.171 177.436 110.577 177.315 110.848 177.072C111.128 176.829 111.343 176.549 111.492 176.232L112.682 176.848C112.551 177.109 112.36 177.385 112.108 177.674C111.865 177.963 111.543 178.206 111.142 178.402C110.741 178.598 110.227 178.696 109.602 178.696ZM107.586 174.342H111.408C111.371 173.819 111.184 173.413 110.848 173.124C110.512 172.825 110.073 172.676 109.532 172.676C108.991 172.676 108.547 172.825 108.202 173.124C107.866 173.413 107.661 173.819 107.586 174.342ZM120.858 181.3V177.562H120.634C120.531 177.749 120.382 177.931 120.186 178.108C119.99 178.276 119.738 178.416 119.43 178.528C119.131 178.64 118.758 178.696 118.31 178.696C117.731 178.696 117.199 178.556 116.714 178.276C116.229 177.996 115.841 177.595 115.552 177.072C115.263 176.54 115.118 175.901 115.118 175.154V174.944C115.118 174.197 115.263 173.563 115.552 173.04C115.851 172.508 116.243 172.102 116.728 171.822C117.213 171.542 117.741 171.402 118.31 171.402C118.982 171.402 119.495 171.523 119.85 171.766C120.214 172.009 120.485 172.284 120.662 172.592H120.886V171.598H122.3V181.3H120.858ZM118.716 177.436C119.351 177.436 119.869 177.235 120.27 176.834C120.671 176.433 120.872 175.859 120.872 175.112V174.986C120.872 174.249 120.667 173.679 120.256 173.278C119.855 172.877 119.341 172.676 118.716 172.676C118.1 172.676 117.587 172.877 117.176 173.278C116.775 173.679 116.574 174.249 116.574 174.986V175.112C116.574 175.859 116.775 176.433 117.176 176.834C117.587 177.235 118.1 177.436 118.716 177.436ZM127.909 178.626C127.386 178.626 126.919 178.509 126.509 178.276C126.098 178.043 125.776 177.711 125.543 177.282C125.309 176.853 125.193 176.339 125.193 175.742V171.598H126.635V175.644C126.635 176.241 126.784 176.685 127.083 176.974C127.381 177.254 127.797 177.394 128.329 177.394C128.917 177.394 129.388 177.198 129.743 176.806C130.107 176.405 130.289 175.831 130.289 175.084V171.598H131.731V178.5H130.317V177.464H130.093C129.962 177.744 129.729 178.01 129.393 178.262C129.057 178.505 128.562 178.626 127.909 178.626ZM137.866 178.696C137.166 178.696 136.555 178.551 136.032 178.262C135.51 177.963 135.099 177.548 134.8 177.016C134.511 176.475 134.366 175.849 134.366 175.14V174.972C134.366 174.253 134.511 173.628 134.8 173.096C135.09 172.555 135.491 172.139 136.004 171.85C136.527 171.551 137.129 171.402 137.81 171.402C138.473 171.402 139.052 171.551 139.546 171.85C140.05 172.139 140.442 172.545 140.722 173.068C141.002 173.591 141.142 174.202 141.142 174.902V175.448H135.836C135.855 176.055 136.056 176.54 136.438 176.904C136.83 177.259 137.316 177.436 137.894 177.436C138.436 177.436 138.842 177.315 139.112 177.072C139.392 176.829 139.607 176.549 139.756 176.232L140.946 176.848C140.816 177.109 140.624 177.385 140.372 177.674C140.13 177.963 139.808 178.206 139.406 178.402C139.005 178.598 138.492 178.696 137.866 178.696ZM135.85 174.342H139.672C139.635 173.819 139.448 173.413 139.112 173.124C138.776 172.825 138.338 172.676 137.796 172.676C137.255 172.676 136.812 172.825 136.466 173.124C136.13 173.413 135.925 173.819 135.85 174.342ZM146.546 178.696C145.669 178.696 144.941 178.5 144.362 178.108C143.783 177.716 143.429 177.123 143.298 176.33L144.642 176.008C144.717 176.391 144.843 176.694 145.02 176.918C145.197 177.142 145.417 177.301 145.678 177.394C145.949 177.487 146.238 177.534 146.546 177.534C147.003 177.534 147.353 177.445 147.596 177.268C147.848 177.091 147.974 176.862 147.974 176.582C147.974 176.302 147.857 176.097 147.624 175.966C147.391 175.835 147.045 175.728 146.588 175.644L146.112 175.56C145.645 175.476 145.221 175.355 144.838 175.196C144.455 175.037 144.152 174.818 143.928 174.538C143.704 174.258 143.592 173.899 143.592 173.46C143.592 172.807 143.835 172.303 144.32 171.948C144.805 171.584 145.449 171.402 146.252 171.402C147.027 171.402 147.661 171.579 148.156 171.934C148.66 172.279 148.987 172.751 149.136 173.348L147.792 173.726C147.708 173.306 147.531 173.012 147.26 172.844C146.989 172.667 146.653 172.578 146.252 172.578C145.86 172.578 145.552 172.653 145.328 172.802C145.104 172.942 144.992 173.143 144.992 173.404C144.992 173.684 145.099 173.889 145.314 174.02C145.538 174.151 145.837 174.249 146.21 174.314L146.7 174.398C147.195 174.482 147.647 174.599 148.058 174.748C148.469 174.897 148.791 175.112 149.024 175.392C149.267 175.672 149.388 176.045 149.388 176.512C149.388 177.203 149.131 177.739 148.618 178.122C148.105 178.505 147.414 178.696 146.546 178.696ZM154.353 178.5C153.933 178.5 153.597 178.374 153.345 178.122C153.102 177.87 152.981 177.534 152.981 177.114V172.816H151.077V171.598H152.981V169.316H154.423V171.598H156.481V172.816H154.423V176.862C154.423 177.142 154.554 177.282 154.815 177.282H156.257V178.5H154.353ZM165.566 178.696C165.071 178.696 164.628 178.612 164.236 178.444C163.853 178.276 163.545 178.029 163.312 177.702C163.088 177.375 162.976 176.979 162.976 176.512C162.976 176.036 163.088 175.644 163.312 175.336C163.545 175.019 163.858 174.781 164.25 174.622C164.651 174.463 165.104 174.384 165.608 174.384H167.708V173.936C167.708 173.535 167.586 173.213 167.344 172.97C167.101 172.727 166.728 172.606 166.224 172.606C165.729 172.606 165.351 172.723 165.09 172.956C164.828 173.189 164.656 173.493 164.572 173.866L163.228 173.432C163.34 173.059 163.517 172.723 163.76 172.424C164.012 172.116 164.343 171.869 164.754 171.682C165.164 171.495 165.659 171.402 166.238 171.402C167.134 171.402 167.838 171.631 168.352 172.088C168.865 172.545 169.122 173.194 169.122 174.034V176.876C169.122 177.156 169.252 177.296 169.514 177.296H170.102V178.5H169.024C168.697 178.5 168.431 178.416 168.226 178.248C168.02 178.08 167.918 177.851 167.918 177.562V177.52H167.708C167.633 177.66 167.521 177.823 167.372 178.01C167.222 178.197 167.003 178.36 166.714 178.5C166.424 178.631 166.042 178.696 165.566 178.696ZM165.776 177.506C166.354 177.506 166.821 177.343 167.176 177.016C167.53 176.68 167.708 176.223 167.708 175.644V175.504H165.692C165.309 175.504 165.001 175.588 164.768 175.756C164.534 175.915 164.418 176.153 164.418 176.47C164.418 176.787 164.539 177.039 164.782 177.226C165.024 177.413 165.356 177.506 165.776 177.506ZM182.156 181.3V177.562H181.932C181.829 177.749 181.68 177.931 181.484 178.108C181.288 178.276 181.036 178.416 180.728 178.528C180.429 178.64 180.056 178.696 179.608 178.696C179.029 178.696 178.497 178.556 178.012 178.276C177.527 177.996 177.139 177.595 176.85 177.072C176.561 176.54 176.416 175.901 176.416 175.154V174.944C176.416 174.197 176.561 173.563 176.85 173.04C177.149 172.508 177.541 172.102 178.026 171.822C178.511 171.542 179.039 171.402 179.608 171.402C180.28 171.402 180.793 171.523 181.148 171.766C181.512 172.009 181.783 172.284 181.96 172.592H182.184V171.598H183.598V181.3H182.156ZM180.014 177.436C180.649 177.436 181.167 177.235 181.568 176.834C181.969 176.433 182.17 175.859 182.17 175.112V174.986C182.17 174.249 181.965 173.679 181.554 173.278C181.153 172.877 180.639 172.676 180.014 172.676C179.398 172.676 178.885 172.877 178.474 173.278C178.073 173.679 177.872 174.249 177.872 174.986V175.112C177.872 175.859 178.073 176.433 178.474 176.834C178.885 177.235 179.398 177.436 180.014 177.436ZM189.207 178.626C188.684 178.626 188.217 178.509 187.807 178.276C187.396 178.043 187.074 177.711 186.841 177.282C186.607 176.853 186.491 176.339 186.491 175.742V171.598H187.933V175.644C187.933 176.241 188.082 176.685 188.381 176.974C188.679 177.254 189.095 177.394 189.627 177.394C190.215 177.394 190.686 177.198 191.041 176.806C191.405 176.405 191.587 175.831 191.587 175.084V171.598H193.029V178.5H191.615V177.464H191.391C191.26 177.744 191.027 178.01 190.691 178.262C190.355 178.505 189.86 178.626 189.207 178.626ZM199.234 178.696C198.544 178.696 197.928 178.556 197.386 178.276C196.854 177.987 196.434 177.576 196.126 177.044C195.818 176.512 195.664 175.882 195.664 175.154V174.944C195.664 174.216 195.818 173.591 196.126 173.068C196.434 172.536 196.854 172.125 197.386 171.836C197.928 171.547 198.544 171.402 199.234 171.402C199.925 171.402 200.541 171.547 201.082 171.836C201.624 172.125 202.048 172.536 202.356 173.068C202.664 173.591 202.818 174.216 202.818 174.944V175.154C202.818 175.882 202.664 176.512 202.356 177.044C202.048 177.576 201.624 177.987 201.082 178.276C200.541 178.556 199.925 178.696 199.234 178.696ZM199.234 177.408C199.869 177.408 200.382 177.207 200.774 176.806C201.176 176.395 201.376 175.831 201.376 175.112V174.986C201.376 174.267 201.18 173.707 200.788 173.306C200.396 172.895 199.878 172.69 199.234 172.69C198.609 172.69 198.096 172.895 197.694 173.306C197.302 173.707 197.106 174.267 197.106 174.986V175.112C197.106 175.831 197.302 176.395 197.694 176.806C198.096 177.207 198.609 177.408 199.234 177.408ZM207.784 178.5C207.364 178.5 207.028 178.374 206.776 178.122C206.533 177.87 206.412 177.534 206.412 177.114V172.816H204.508V171.598H206.412V169.316H207.854V171.598H209.912V172.816H207.854V176.862C207.854 177.142 207.985 177.282 208.246 177.282H209.688V178.5H207.784ZM215.364 178.696C214.664 178.696 214.053 178.551 213.53 178.262C213.007 177.963 212.597 177.548 212.298 177.016C212.009 176.475 211.864 175.849 211.864 175.14V174.972C211.864 174.253 212.009 173.628 212.298 173.096C212.587 172.555 212.989 172.139 213.502 171.85C214.025 171.551 214.627 171.402 215.308 171.402C215.971 171.402 216.549 171.551 217.044 171.85C217.548 172.139 217.94 172.545 218.22 173.068C218.5 173.591 218.64 174.202 218.64 174.902V175.448H213.334C213.353 176.055 213.553 176.54 213.936 176.904C214.328 177.259 214.813 177.436 215.392 177.436C215.933 177.436 216.339 177.315 216.61 177.072C216.89 176.829 217.105 176.549 217.254 176.232L218.444 176.848C218.313 177.109 218.122 177.385 217.87 177.674C217.627 177.963 217.305 178.206 216.904 178.402C216.503 178.598 215.989 178.696 215.364 178.696ZM213.348 174.342H217.17C217.133 173.819 216.946 173.413 216.61 173.124C216.274 172.825 215.835 172.676 215.294 172.676C214.753 172.676 214.309 172.825 213.964 173.124C213.628 173.413 213.423 173.819 213.348 174.342Z" fill="#F2672C"/>
</svg>
