<svg width="293" height="266" viewBox="0 0 293 266" fill="none" xmlns="http://www.w3.org/2000/svg">
<g clip-path="url(#clip0_14179_313)">
<rect width="293" height="266" fill="#0B0A14"/>
<path d="M104.666 93L107.978 80.4H112.118L115.43 93H112.982L112.298 90.228H107.798L107.114 93H104.666ZM108.356 88.032H111.74L110.21 81.894H109.886L108.356 88.032ZM116.812 93V84.072H119.044V85.242H119.368C119.512 84.93 119.782 84.636 120.178 84.36C120.574 84.072 121.174 83.928 121.978 83.928C122.674 83.928 123.28 84.09 123.796 84.414C124.324 84.726 124.732 85.164 125.02 85.728C125.308 86.28 125.452 86.928 125.452 87.672V93H123.184V87.852C123.184 87.18 123.016 86.676 122.68 86.34C122.356 86.004 121.888 85.836 121.276 85.836C120.58 85.836 120.04 86.07 119.656 86.538C119.272 86.994 119.08 87.636 119.08 88.464V93H116.812ZM131.306 93.252C130.598 93.252 129.932 93.078 129.308 92.73C128.696 92.37 128.204 91.848 127.832 91.164C127.46 90.48 127.274 89.652 127.274 88.68V88.392C127.274 87.42 127.46 86.592 127.832 85.908C128.204 85.224 128.696 84.708 129.308 84.36C129.92 84 130.586 83.82 131.306 83.82C131.846 83.82 132.296 83.886 132.656 84.018C133.028 84.138 133.328 84.294 133.556 84.486C133.784 84.678 133.958 84.882 134.078 85.098H134.402V80.4H136.67V93H134.438V91.92H134.114C133.91 92.256 133.592 92.562 133.16 92.838C132.74 93.114 132.122 93.252 131.306 93.252ZM131.99 91.272C132.686 91.272 133.268 91.05 133.736 90.606C134.204 90.15 134.438 89.49 134.438 88.626V88.446C134.438 87.582 134.204 86.928 133.736 86.484C133.28 86.028 132.698 85.8 131.99 85.8C131.294 85.8 130.712 86.028 130.244 86.484C129.776 86.928 129.542 87.582 129.542 88.446V88.626C129.542 89.49 129.776 90.15 130.244 90.606C130.712 91.05 131.294 91.272 131.99 91.272ZM147.607 93.252C146.719 93.252 145.921 93.072 145.213 92.712C144.505 92.352 143.947 91.83 143.539 91.146C143.131 90.462 142.927 89.64 142.927 88.68V88.392C142.927 87.432 143.131 86.61 143.539 85.926C143.947 85.242 144.505 84.72 145.213 84.36C145.921 84 146.719 83.82 147.607 83.82C148.495 83.82 149.293 84 150.001 84.36C150.709 84.72 151.267 85.242 151.675 85.926C152.083 86.61 152.287 87.432 152.287 88.392V88.68C152.287 89.64 152.083 90.462 151.675 91.146C151.267 91.83 150.709 92.352 150.001 92.712C149.293 93.072 148.495 93.252 147.607 93.252ZM147.607 91.236C148.303 91.236 148.879 91.014 149.335 90.57C149.791 90.114 150.019 89.466 150.019 88.626V88.446C150.019 87.606 149.791 86.964 149.335 86.52C148.891 86.064 148.315 85.836 147.607 85.836C146.911 85.836 146.335 86.064 145.879 86.52C145.423 86.964 145.195 87.606 145.195 88.446V88.626C145.195 89.466 145.423 90.114 145.879 90.57C146.335 91.014 146.911 91.236 147.607 91.236ZM157.304 93C156.716 93 156.236 92.82 155.864 92.46C155.504 92.088 155.324 91.596 155.324 90.984V85.944H153.092V84.072H155.324V81.3H157.592V84.072H160.04V85.944H157.592V90.588C157.592 90.948 157.76 91.128 158.096 91.128H159.824V93H157.304ZM161.895 93V80.4H164.163V85.17H164.487C164.583 84.978 164.733 84.786 164.937 84.594C165.141 84.402 165.411 84.246 165.747 84.126C166.095 83.994 166.533 83.928 167.061 83.928C167.757 83.928 168.363 84.09 168.879 84.414C169.407 84.726 169.815 85.164 170.103 85.728C170.391 86.28 170.535 86.928 170.535 87.672V93H168.267V87.852C168.267 87.18 168.099 86.676 167.763 86.34C167.439 86.004 166.971 85.836 166.359 85.836C165.663 85.836 165.123 86.07 164.739 86.538C164.355 86.994 164.163 87.636 164.163 88.464V93H161.895ZM176.856 93.252C175.968 93.252 175.182 93.066 174.498 92.694C173.826 92.31 173.298 91.776 172.914 91.092C172.542 90.396 172.356 89.58 172.356 88.644V88.428C172.356 87.492 172.542 86.682 172.914 85.998C173.286 85.302 173.808 84.768 174.48 84.396C175.152 84.012 175.932 83.82 176.82 83.82C177.696 83.82 178.458 84.018 179.106 84.414C179.754 84.798 180.258 85.338 180.618 86.034C180.978 86.718 181.158 87.516 181.158 88.428V89.202H174.66C174.684 89.814 174.912 90.312 175.344 90.696C175.776 91.08 176.304 91.272 176.928 91.272C177.564 91.272 178.032 91.134 178.332 90.858C178.632 90.582 178.86 90.276 179.016 89.94L180.87 90.912C180.702 91.224 180.456 91.566 180.132 91.938C179.82 92.298 179.4 92.61 178.872 92.874C178.344 93.126 177.672 93.252 176.856 93.252ZM174.678 87.51H178.854C178.806 86.994 178.596 86.58 178.224 86.268C177.864 85.956 177.39 85.8 176.802 85.8C176.19 85.8 175.704 85.956 175.344 86.268C174.984 86.58 174.762 86.994 174.678 87.51ZM182.979 93V84.072H185.211V85.08H185.535C185.667 84.72 185.883 84.456 186.183 84.288C186.495 84.12 186.855 84.036 187.263 84.036H188.343V86.052H187.227C186.651 86.052 186.177 86.208 185.805 86.52C185.433 86.82 185.247 87.288 185.247 87.924V93H182.979ZM64.254 117C63.666 117 63.186 116.82 62.814 116.46C62.454 116.088 62.274 115.596 62.274 114.984V109.944H60.042V108.072H62.274V105.3H64.542V108.072H66.99V109.944H64.542V114.588C64.542 114.948 64.71 115.128 65.046 115.128H66.774V117H64.254ZM72.5966 117.252C71.7086 117.252 70.9226 117.066 70.2386 116.694C69.5666 116.31 69.0386 115.776 68.6546 115.092C68.2826 114.396 68.0966 113.58 68.0966 112.644V112.428C68.0966 111.492 68.2826 110.682 68.6546 109.998C69.0266 109.302 69.5486 108.768 70.2206 108.396C70.8926 108.012 71.6726 107.82 72.5606 107.82C73.4366 107.82 74.1986 108.018 74.8466 108.414C75.4946 108.798 75.9986 109.338 76.3586 110.034C76.7186 110.718 76.8986 111.516 76.8986 112.428V113.202H70.4006C70.4246 113.814 70.6526 114.312 71.0846 114.696C71.5166 115.08 72.0446 115.272 72.6686 115.272C73.3046 115.272 73.7726 115.134 74.0726 114.858C74.3726 114.582 74.6006 114.276 74.7566 113.94L76.6106 114.912C76.4426 115.224 76.1966 115.566 75.8726 115.938C75.5606 116.298 75.1406 116.61 74.6126 116.874C74.0846 117.126 73.4126 117.252 72.5966 117.252ZM70.4186 111.51H74.5946C74.5466 110.994 74.3366 110.58 73.9646 110.268C73.6046 109.956 73.1306 109.8 72.5426 109.8C71.9306 109.8 71.4446 109.956 71.0846 110.268C70.7246 110.58 70.5026 110.994 70.4186 111.51ZM78.7192 117V104.4H80.9872V117H78.7192ZM87.3705 117.252C86.4825 117.252 85.6965 117.066 85.0125 116.694C84.3405 116.31 83.8125 115.776 83.4285 115.092C83.0565 114.396 82.8705 113.58 82.8705 112.644V112.428C82.8705 111.492 83.0565 110.682 83.4285 109.998C83.8005 109.302 84.3225 108.768 84.9945 108.396C85.6665 108.012 86.4465 107.82 87.3345 107.82C88.2105 107.82 88.9725 108.018 89.6205 108.414C90.2685 108.798 90.7725 109.338 91.1325 110.034C91.4925 110.718 91.6725 111.516 91.6725 112.428V113.202H85.1745C85.1985 113.814 85.4265 114.312 85.8585 114.696C86.2905 115.08 86.8185 115.272 87.4425 115.272C88.0785 115.272 88.5465 115.134 88.8465 114.858C89.1465 114.582 89.3745 114.276 89.5305 113.94L91.3845 114.912C91.2165 115.224 90.9705 115.566 90.6465 115.938C90.3345 116.298 89.9145 116.61 89.3865 116.874C88.8585 117.126 88.1865 117.252 87.3705 117.252ZM85.1925 111.51H89.3685C89.3205 110.994 89.1105 110.58 88.7385 110.268C88.3785 109.956 87.9045 109.8 87.3165 109.8C86.7045 109.8 86.2185 109.956 85.8585 110.268C85.4985 110.58 85.2765 110.994 85.1925 111.51ZM97.6872 117.252C96.8232 117.252 96.0372 117.072 95.3292 116.712C94.6332 116.352 94.0812 115.83 93.6732 115.146C93.2652 114.462 93.0612 113.634 93.0612 112.662V112.41C93.0612 111.438 93.2652 110.61 93.6732 109.926C94.0812 109.242 94.6332 108.72 95.3292 108.36C96.0372 108 96.8232 107.82 97.6872 107.82C98.5392 107.82 99.2712 107.97 99.8832 108.27C100.495 108.57 100.987 108.984 101.359 109.512C101.743 110.028 101.995 110.616 102.115 111.276L99.9192 111.744C99.8712 111.384 99.7632 111.06 99.5952 110.772C99.4272 110.484 99.1872 110.256 98.8752 110.088C98.5752 109.92 98.1972 109.836 97.7412 109.836C97.2852 109.836 96.8712 109.938 96.4992 110.142C96.1392 110.334 95.8512 110.628 95.6352 111.024C95.4312 111.408 95.3292 111.882 95.3292 112.446V112.626C95.3292 113.19 95.4312 113.67 95.6352 114.066C95.8512 114.45 96.1392 114.744 96.4992 114.948C96.8712 115.14 97.2852 115.236 97.7412 115.236C98.4252 115.236 98.9412 115.062 99.2892 114.714C99.6492 114.354 99.8772 113.886 99.9732 113.31L102.169 113.832C102.013 114.468 101.743 115.05 101.359 115.578C100.987 116.094 100.495 116.502 99.8832 116.802C99.2712 117.102 98.5392 117.252 97.6872 117.252ZM108.09 117.252C107.202 117.252 106.404 117.072 105.696 116.712C104.988 116.352 104.43 115.83 104.022 115.146C103.614 114.462 103.41 113.64 103.41 112.68V112.392C103.41 111.432 103.614 110.61 104.022 109.926C104.43 109.242 104.988 108.72 105.696 108.36C106.404 108 107.202 107.82 108.09 107.82C108.978 107.82 109.776 108 110.484 108.36C111.192 108.72 111.75 109.242 112.158 109.926C112.566 110.61 112.77 111.432 112.77 112.392V112.68C112.77 113.64 112.566 114.462 112.158 115.146C111.75 115.83 111.192 116.352 110.484 116.712C109.776 117.072 108.978 117.252 108.09 117.252ZM108.09 115.236C108.786 115.236 109.362 115.014 109.818 114.57C110.274 114.114 110.502 113.466 110.502 112.626V112.446C110.502 111.606 110.274 110.964 109.818 110.52C109.374 110.064 108.798 109.836 108.09 109.836C107.394 109.836 106.818 110.064 106.362 110.52C105.906 110.964 105.678 111.606 105.678 112.446V112.626C105.678 113.466 105.906 114.114 106.362 114.57C106.818 115.014 107.394 115.236 108.09 115.236ZM114.666 117V108.072H116.898V109.044H117.222C117.378 108.744 117.636 108.486 117.996 108.27C118.356 108.042 118.83 107.928 119.418 107.928C120.054 107.928 120.564 108.054 120.948 108.306C121.332 108.546 121.626 108.864 121.83 109.26H122.154C122.358 108.876 122.646 108.558 123.018 108.306C123.39 108.054 123.918 107.928 124.602 107.928C125.154 107.928 125.652 108.048 126.096 108.288C126.552 108.516 126.912 108.87 127.176 109.35C127.452 109.818 127.59 110.412 127.59 111.132V117H125.322V111.294C125.322 110.802 125.196 110.436 124.944 110.196C124.692 109.944 124.338 109.818 123.882 109.818C123.366 109.818 122.964 109.986 122.676 110.322C122.4 110.646 122.262 111.114 122.262 111.726V117H119.994V111.294C119.994 110.802 119.868 110.436 119.616 110.196C119.364 109.944 119.01 109.818 118.554 109.818C118.038 109.818 117.636 109.986 117.348 110.322C117.072 110.646 116.934 111.114 116.934 111.726V117H114.666ZM129.831 117V108.072H132.063V109.044H132.387C132.543 108.744 132.801 108.486 133.161 108.27C133.521 108.042 133.995 107.928 134.583 107.928C135.219 107.928 135.729 108.054 136.113 108.306C136.497 108.546 136.791 108.864 136.995 109.26H137.319C137.523 108.876 137.811 108.558 138.183 108.306C138.555 108.054 139.083 107.928 139.767 107.928C140.319 107.928 140.817 108.048 141.261 108.288C141.717 108.516 142.077 108.87 142.341 109.35C142.617 109.818 142.755 110.412 142.755 111.132V117H140.487V111.294C140.487 110.802 140.361 110.436 140.109 110.196C139.857 109.944 139.503 109.818 139.047 109.818C138.531 109.818 138.129 109.986 137.841 110.322C137.565 110.646 137.427 111.114 137.427 111.726V117H135.159V111.294C135.159 110.802 135.033 110.436 134.781 110.196C134.529 109.944 134.175 109.818 133.719 109.818C133.203 109.818 132.801 109.986 132.513 110.322C132.237 110.646 132.099 111.114 132.099 111.726V117H129.831ZM148.257 117.144C147.561 117.144 146.949 116.988 146.421 116.676C145.905 116.352 145.503 115.908 145.215 115.344C144.927 114.78 144.783 114.132 144.783 113.4V108.072H147.051V113.22C147.051 113.892 147.213 114.396 147.537 114.732C147.873 115.068 148.347 115.236 148.959 115.236C149.655 115.236 150.195 115.008 150.579 114.552C150.963 114.084 151.155 113.436 151.155 112.608V108.072H153.423V117H151.191V115.83H150.867C150.723 116.13 150.453 116.424 150.057 116.712C149.661 117 149.061 117.144 148.257 117.144ZM155.749 117V108.072H157.981V109.242H158.305C158.449 108.93 158.719 108.636 159.115 108.36C159.511 108.072 160.111 107.928 160.915 107.928C161.611 107.928 162.217 108.09 162.733 108.414C163.261 108.726 163.669 109.164 163.957 109.728C164.245 110.28 164.389 110.928 164.389 111.672V117H162.121V111.852C162.121 111.18 161.953 110.676 161.617 110.34C161.293 110.004 160.825 109.836 160.213 109.836C159.517 109.836 158.977 110.07 158.593 110.538C158.209 110.994 158.017 111.636 158.017 112.464V117H155.749ZM166.643 117V108.072H168.911V117H166.643ZM167.777 107.028C167.369 107.028 167.021 106.896 166.733 106.632C166.457 106.368 166.319 106.02 166.319 105.588C166.319 105.156 166.457 104.808 166.733 104.544C167.021 104.28 167.369 104.148 167.777 104.148C168.197 104.148 168.545 104.28 168.821 104.544C169.097 104.808 169.235 105.156 169.235 105.588C169.235 106.02 169.097 106.368 168.821 106.632C168.545 106.896 168.197 107.028 167.777 107.028ZM175.42 117.252C174.556 117.252 173.77 117.072 173.062 116.712C172.366 116.352 171.814 115.83 171.406 115.146C170.998 114.462 170.794 113.634 170.794 112.662V112.41C170.794 111.438 170.998 110.61 171.406 109.926C171.814 109.242 172.366 108.72 173.062 108.36C173.77 108 174.556 107.82 175.42 107.82C176.272 107.82 177.004 107.97 177.616 108.27C178.228 108.57 178.72 108.984 179.092 109.512C179.476 110.028 179.728 110.616 179.848 111.276L177.652 111.744C177.604 111.384 177.496 111.06 177.328 110.772C177.16 110.484 176.92 110.256 176.608 110.088C176.308 109.92 175.93 109.836 175.474 109.836C175.018 109.836 174.604 109.938 174.232 110.142C173.872 110.334 173.584 110.628 173.368 111.024C173.164 111.408 173.062 111.882 173.062 112.446V112.626C173.062 113.19 173.164 113.67 173.368 114.066C173.584 114.45 173.872 114.744 174.232 114.948C174.604 115.14 175.018 115.236 175.474 115.236C176.158 115.236 176.674 115.062 177.022 114.714C177.382 114.354 177.61 113.886 177.706 113.31L179.902 113.832C179.746 114.468 179.476 115.05 179.092 115.578C178.72 116.094 178.228 116.502 177.616 116.802C177.004 117.102 176.272 117.252 175.42 117.252ZM184.347 117.252C183.711 117.252 183.141 117.144 182.637 116.928C182.133 116.7 181.731 116.376 181.431 115.956C181.143 115.524 180.999 115.002 180.999 114.39C180.999 113.778 181.143 113.268 181.431 112.86C181.731 112.44 182.139 112.128 182.655 111.924C183.183 111.708 183.783 111.6 184.455 111.6H186.903V111.096C186.903 110.676 186.771 110.334 186.507 110.07C186.243 109.794 185.823 109.656 185.247 109.656C184.683 109.656 184.263 109.788 183.987 110.052C183.711 110.304 183.531 110.634 183.447 111.042L181.359 110.34C181.503 109.884 181.731 109.47 182.043 109.098C182.367 108.714 182.793 108.408 183.321 108.18C183.861 107.94 184.515 107.82 185.283 107.82C186.459 107.82 187.389 108.114 188.073 108.702C188.757 109.29 189.099 110.142 189.099 111.258V114.588C189.099 114.948 189.267 115.128 189.603 115.128H190.323V117H188.811C188.367 117 188.001 116.892 187.713 116.676C187.425 116.46 187.281 116.172 187.281 115.812V115.794H186.939C186.891 115.938 186.783 116.13 186.615 116.37C186.447 116.598 186.183 116.802 185.823 116.982C185.463 117.162 184.971 117.252 184.347 117.252ZM184.743 115.416C185.379 115.416 185.895 115.242 186.291 114.894C186.699 114.534 186.903 114.06 186.903 113.472V113.292H184.617C184.197 113.292 183.867 113.382 183.627 113.562C183.387 113.742 183.267 113.994 183.267 114.318C183.267 114.642 183.393 114.906 183.645 115.11C183.897 115.314 184.263 115.416 184.743 115.416ZM194.553 117C193.965 117 193.485 116.82 193.113 116.46C192.753 116.088 192.573 115.596 192.573 114.984V109.944H190.341V108.072H192.573V105.3H194.841V108.072H197.289V109.944H194.841V114.588C194.841 114.948 195.009 115.128 195.345 115.128H197.073V117H194.553ZM199.144 117V108.072H201.412V117H199.144ZM200.278 107.028C199.87 107.028 199.522 106.896 199.234 106.632C198.958 106.368 198.82 106.02 198.82 105.588C198.82 105.156 198.958 104.808 199.234 104.544C199.522 104.28 199.87 104.148 200.278 104.148C200.698 104.148 201.046 104.28 201.322 104.544C201.598 104.808 201.736 105.156 201.736 105.588C201.736 106.02 201.598 106.368 201.322 106.632C201.046 106.896 200.698 107.028 200.278 107.028ZM207.975 117.252C207.087 117.252 206.289 117.072 205.581 116.712C204.873 116.352 204.315 115.83 203.907 115.146C203.499 114.462 203.295 113.64 203.295 112.68V112.392C203.295 111.432 203.499 110.61 203.907 109.926C204.315 109.242 204.873 108.72 205.581 108.36C206.289 108 207.087 107.82 207.975 107.82C208.863 107.82 209.661 108 210.369 108.36C211.077 108.72 211.635 109.242 212.043 109.926C212.451 110.61 212.655 111.432 212.655 112.392V112.68C212.655 113.64 212.451 114.462 212.043 115.146C211.635 115.83 211.077 116.352 210.369 116.712C209.661 117.072 208.863 117.252 207.975 117.252ZM207.975 115.236C208.671 115.236 209.247 115.014 209.703 114.57C210.159 114.114 210.387 113.466 210.387 112.626V112.446C210.387 111.606 210.159 110.964 209.703 110.52C209.259 110.064 208.683 109.836 207.975 109.836C207.279 109.836 206.703 110.064 206.247 110.52C205.791 110.964 205.563 111.606 205.563 112.446V112.626C205.563 113.466 205.791 114.114 206.247 114.57C206.703 115.014 207.279 115.236 207.975 115.236ZM214.551 117V108.072H216.783V109.242H217.107C217.251 108.93 217.521 108.636 217.917 108.36C218.313 108.072 218.913 107.928 219.717 107.928C220.413 107.928 221.019 108.09 221.535 108.414C222.063 108.726 222.471 109.164 222.759 109.728C223.047 110.28 223.191 110.928 223.191 111.672V117H220.923V111.852C220.923 111.18 220.755 110.676 220.419 110.34C220.095 110.004 219.627 109.836 219.015 109.836C218.319 109.836 217.779 110.07 217.395 110.538C217.011 110.994 216.819 111.636 216.819 112.464V117H214.551ZM229.153 117.252C227.989 117.252 227.035 117 226.291 116.496C225.547 115.992 225.097 115.272 224.941 114.336L227.029 113.796C227.113 114.216 227.251 114.546 227.443 114.786C227.647 115.026 227.893 115.2 228.181 115.308C228.481 115.404 228.805 115.452 229.153 115.452C229.681 115.452 230.071 115.362 230.323 115.182C230.575 114.99 230.701 114.756 230.701 114.48C230.701 114.204 230.581 113.994 230.341 113.85C230.101 113.694 229.717 113.568 229.189 113.472L228.685 113.382C228.061 113.262 227.491 113.1 226.975 112.896C226.459 112.68 226.045 112.386 225.733 112.014C225.421 111.642 225.265 111.162 225.265 110.574C225.265 109.686 225.589 109.008 226.237 108.54C226.885 108.06 227.737 107.82 228.793 107.82C229.789 107.82 230.617 108.042 231.277 108.486C231.937 108.93 232.369 109.512 232.573 110.232L230.467 110.88C230.371 110.424 230.173 110.1 229.873 109.908C229.585 109.716 229.225 109.62 228.793 109.62C228.361 109.62 228.031 109.698 227.803 109.854C227.575 109.998 227.461 110.202 227.461 110.466C227.461 110.754 227.581 110.97 227.821 111.114C228.061 111.246 228.385 111.348 228.793 111.42L229.297 111.51C229.969 111.63 230.575 111.792 231.115 111.996C231.667 112.188 232.099 112.47 232.411 112.842C232.735 113.202 232.897 113.694 232.897 114.318C232.897 115.254 232.555 115.98 231.871 116.496C231.199 117 230.293 117.252 229.153 117.252ZM108.579 141V132.072H110.811V133.044H111.135C111.291 132.744 111.549 132.486 111.909 132.27C112.269 132.042 112.743 131.928 113.331 131.928C113.967 131.928 114.477 132.054 114.861 132.306C115.245 132.546 115.539 132.864 115.743 133.26H116.067C116.271 132.876 116.559 132.558 116.931 132.306C117.303 132.054 117.831 131.928 118.515 131.928C119.067 131.928 119.565 132.048 120.009 132.288C120.465 132.516 120.825 132.87 121.089 133.35C121.365 133.818 121.503 134.412 121.503 135.132V141H119.235V135.294C119.235 134.802 119.109 134.436 118.857 134.196C118.605 133.944 118.251 133.818 117.795 133.818C117.279 133.818 116.877 133.986 116.589 134.322C116.313 134.646 116.175 135.114 116.175 135.726V141H113.907V135.294C113.907 134.802 113.781 134.436 113.529 134.196C113.277 133.944 112.923 133.818 112.467 133.818C111.951 133.818 111.549 133.986 111.261 134.322C110.985 134.646 110.847 135.114 110.847 135.726V141H108.579ZM126.517 141.252C125.881 141.252 125.311 141.144 124.807 140.928C124.303 140.7 123.901 140.376 123.601 139.956C123.313 139.524 123.169 139.002 123.169 138.39C123.169 137.778 123.313 137.268 123.601 136.86C123.901 136.44 124.309 136.128 124.825 135.924C125.353 135.708 125.953 135.6 126.625 135.6H129.073V135.096C129.073 134.676 128.941 134.334 128.677 134.07C128.413 133.794 127.993 133.656 127.417 133.656C126.853 133.656 126.433 133.788 126.157 134.052C125.881 134.304 125.701 134.634 125.617 135.042L123.529 134.34C123.673 133.884 123.901 133.47 124.213 133.098C124.537 132.714 124.963 132.408 125.491 132.18C126.031 131.94 126.685 131.82 127.453 131.82C128.629 131.82 129.559 132.114 130.243 132.702C130.927 133.29 131.269 134.142 131.269 135.258V138.588C131.269 138.948 131.437 139.128 131.773 139.128H132.493V141H130.981C130.537 141 130.171 140.892 129.883 140.676C129.595 140.46 129.451 140.172 129.451 139.812V139.794H129.109C129.061 139.938 128.953 140.13 128.785 140.37C128.617 140.598 128.353 140.802 127.993 140.982C127.633 141.162 127.141 141.252 126.517 141.252ZM126.913 139.416C127.549 139.416 128.065 139.242 128.461 138.894C128.869 138.534 129.073 138.06 129.073 137.472V137.292H126.787C126.367 137.292 126.037 137.382 125.797 137.562C125.557 137.742 125.437 137.994 125.437 138.318C125.437 138.642 125.563 138.906 125.815 139.11C126.067 139.314 126.433 139.416 126.913 139.416ZM136.722 141C136.134 141 135.654 140.82 135.282 140.46C134.922 140.088 134.742 139.596 134.742 138.984V133.944H132.51V132.072H134.742V129.3H137.01V132.072H139.458V133.944H137.01V138.588C137.01 138.948 137.178 139.128 137.514 139.128H139.242V141H136.722ZM145.065 141.252C144.177 141.252 143.391 141.066 142.707 140.694C142.035 140.31 141.507 139.776 141.123 139.092C140.751 138.396 140.565 137.58 140.565 136.644V136.428C140.565 135.492 140.751 134.682 141.123 133.998C141.495 133.302 142.017 132.768 142.689 132.396C143.361 132.012 144.141 131.82 145.029 131.82C145.905 131.82 146.667 132.018 147.315 132.414C147.963 132.798 148.467 133.338 148.827 134.034C149.187 134.718 149.367 135.516 149.367 136.428V137.202H142.869C142.893 137.814 143.121 138.312 143.553 138.696C143.985 139.08 144.513 139.272 145.137 139.272C145.773 139.272 146.241 139.134 146.541 138.858C146.841 138.582 147.069 138.276 147.225 137.94L149.079 138.912C148.911 139.224 148.665 139.566 148.341 139.938C148.029 140.298 147.609 140.61 147.081 140.874C146.553 141.126 145.881 141.252 145.065 141.252ZM142.887 135.51H147.063C147.015 134.994 146.805 134.58 146.433 134.268C146.073 133.956 145.599 133.8 145.011 133.8C144.399 133.8 143.913 133.956 143.553 134.268C143.193 134.58 142.971 134.994 142.887 135.51ZM151.188 141V132.072H153.42V133.08H153.744C153.876 132.72 154.092 132.456 154.392 132.288C154.704 132.12 155.064 132.036 155.472 132.036H156.552V134.052H155.436C154.86 134.052 154.386 134.208 154.014 134.52C153.642 134.82 153.456 135.288 153.456 135.924V141H151.188ZM158.126 141V132.072H160.394V141H158.126ZM159.26 131.028C158.852 131.028 158.504 130.896 158.216 130.632C157.94 130.368 157.802 130.02 157.802 129.588C157.802 129.156 157.94 128.808 158.216 128.544C158.504 128.28 158.852 128.148 159.26 128.148C159.68 128.148 160.028 128.28 160.304 128.544C160.58 128.808 160.718 129.156 160.718 129.588C160.718 130.02 160.58 130.368 160.304 130.632C160.028 130.896 159.68 131.028 159.26 131.028ZM165.482 141.252C164.846 141.252 164.276 141.144 163.772 140.928C163.268 140.7 162.866 140.376 162.566 139.956C162.278 139.524 162.134 139.002 162.134 138.39C162.134 137.778 162.278 137.268 162.566 136.86C162.866 136.44 163.274 136.128 163.79 135.924C164.318 135.708 164.918 135.6 165.59 135.6H168.038V135.096C168.038 134.676 167.906 134.334 167.642 134.07C167.378 133.794 166.958 133.656 166.382 133.656C165.818 133.656 165.398 133.788 165.122 134.052C164.846 134.304 164.666 134.634 164.582 135.042L162.494 134.34C162.638 133.884 162.866 133.47 163.178 133.098C163.502 132.714 163.928 132.408 164.456 132.18C164.996 131.94 165.65 131.82 166.418 131.82C167.594 131.82 168.524 132.114 169.208 132.702C169.892 133.29 170.234 134.142 170.234 135.258V138.588C170.234 138.948 170.402 139.128 170.738 139.128H171.458V141H169.946C169.502 141 169.136 140.892 168.848 140.676C168.56 140.46 168.416 140.172 168.416 139.812V139.794H168.074C168.026 139.938 167.918 140.13 167.75 140.37C167.582 140.598 167.318 140.802 166.958 140.982C166.598 141.162 166.106 141.252 165.482 141.252ZM165.878 139.416C166.514 139.416 167.03 139.242 167.426 138.894C167.834 138.534 168.038 138.06 168.038 137.472V137.292H165.752C165.332 137.292 165.002 137.382 164.762 137.562C164.522 137.742 164.402 137.994 164.402 138.318C164.402 138.642 164.528 138.906 164.78 139.11C165.032 139.314 165.398 139.416 165.878 139.416ZM172.918 141V128.4H175.186V141H172.918ZM181.209 141.252C180.045 141.252 179.091 141 178.347 140.496C177.603 139.992 177.153 139.272 176.997 138.336L179.085 137.796C179.169 138.216 179.307 138.546 179.499 138.786C179.703 139.026 179.949 139.2 180.237 139.308C180.537 139.404 180.861 139.452 181.209 139.452C181.737 139.452 182.127 139.362 182.379 139.182C182.631 138.99 182.757 138.756 182.757 138.48C182.757 138.204 182.637 137.994 182.397 137.85C182.157 137.694 181.773 137.568 181.245 137.472L180.741 137.382C180.117 137.262 179.547 137.1 179.031 136.896C178.515 136.68 178.101 136.386 177.789 136.014C177.477 135.642 177.321 135.162 177.321 134.574C177.321 133.686 177.645 133.008 178.293 132.54C178.941 132.06 179.793 131.82 180.849 131.82C181.845 131.82 182.673 132.042 183.333 132.486C183.993 132.93 184.425 133.512 184.629 134.232L182.523 134.88C182.427 134.424 182.229 134.1 181.929 133.908C181.641 133.716 181.281 133.62 180.849 133.62C180.417 133.62 180.087 133.698 179.859 133.854C179.631 133.998 179.517 134.202 179.517 134.466C179.517 134.754 179.637 134.97 179.877 135.114C180.117 135.246 180.441 135.348 180.849 135.42L181.353 135.51C182.025 135.63 182.631 135.792 183.171 135.996C183.723 136.188 184.155 136.47 184.467 136.842C184.791 137.202 184.953 137.694 184.953 138.318C184.953 139.254 184.611 139.98 183.927 140.496C183.255 141 182.349 141.252 181.209 141.252Z" fill="white" fill-opacity="0.7"/>
<rect x="128.5" y="155" width="36" height="36" rx="18" fill="#FEF1EB"/>
<path d="M149.558 171.02L142.995 177.583L141.917 176.505L148.479 169.942H142.695V168.417H151.083V176.805H149.558V171.02V171.02Z" fill="#F2672C"/>
</g>
<rect x="0.5" y="0.5" width="292" height="265" stroke="white" stroke-opacity="0.1"/>
<defs>
<clipPath id="clip0_14179_313">
<rect width="293" height="266" fill="white"/>
</clipPath>
</defs>
</svg>
