<svg width="710" height="677" viewBox="0 0 710 677" fill="none" xmlns="http://www.w3.org/2000/svg">
<rect width="588" height="677" fill="#F6F6FA"/>
<rect x="223.5" y="336.5" width="35" height="4" fill="#F2672C"/>
<path d="M262.932 346.5L267.348 329.7H272.868L277.284 346.5H274.02L273.108 342.804H267.108L266.196 346.5H262.932ZM267.852 339.876H272.364L270.324 331.692H269.892L267.852 339.876ZM286.183 346.836C285.111 346.836 284.287 346.652 283.711 346.284C283.135 345.916 282.711 345.508 282.439 345.06H282.007V346.5H279.031V329.7H282.055V335.964H282.487C282.663 335.676 282.895 335.404 283.183 335.148C283.487 334.892 283.879 334.684 284.359 334.524C284.855 334.348 285.463 334.26 286.183 334.26C287.143 334.26 288.031 334.5 288.847 334.98C289.663 335.444 290.319 336.132 290.815 337.044C291.311 337.956 291.559 339.06 291.559 340.356V340.74C291.559 342.036 291.311 343.14 290.815 344.052C290.319 344.964 289.663 345.66 288.847 346.14C288.031 346.604 287.143 346.836 286.183 346.836ZM285.271 344.196C286.199 344.196 286.975 343.9 287.599 343.308C288.223 342.7 288.535 341.82 288.535 340.668V340.428C288.535 339.276 288.223 338.404 287.599 337.812C286.991 337.204 286.215 336.9 285.271 336.9C284.343 336.9 283.567 337.204 282.943 337.812C282.319 338.404 282.007 339.276 282.007 340.428V340.668C282.007 341.82 282.319 342.7 282.943 343.308C283.567 343.9 284.343 344.196 285.271 344.196ZM299.64 346.836C298.456 346.836 297.392 346.596 296.448 346.116C295.504 345.636 294.76 344.94 294.216 344.028C293.672 343.116 293.4 342.02 293.4 340.74V340.356C293.4 339.076 293.672 337.98 294.216 337.068C294.76 336.156 295.504 335.46 296.448 334.98C297.392 334.5 298.456 334.26 299.64 334.26C300.824 334.26 301.888 334.5 302.832 334.98C303.776 335.46 304.52 336.156 305.064 337.068C305.608 337.98 305.88 339.076 305.88 340.356V340.74C305.88 342.02 305.608 343.116 305.064 344.028C304.52 344.94 303.776 345.636 302.832 346.116C301.888 346.596 300.824 346.836 299.64 346.836ZM299.64 344.148C300.568 344.148 301.336 343.852 301.944 343.26C302.552 342.652 302.856 341.788 302.856 340.668V340.428C302.856 339.308 302.552 338.452 301.944 337.86C301.352 337.252 300.584 336.948 299.64 336.948C298.712 336.948 297.944 337.252 297.336 337.86C296.728 338.452 296.424 339.308 296.424 340.428V340.668C296.424 341.788 296.728 342.652 297.336 343.26C297.944 343.852 298.712 344.148 299.64 344.148ZM312.847 346.692C311.919 346.692 311.103 346.484 310.399 346.068C309.711 345.636 309.175 345.044 308.791 344.292C308.407 343.54 308.215 342.676 308.215 341.7V334.596H311.239V341.46C311.239 342.356 311.455 343.028 311.887 343.476C312.335 343.924 312.967 344.148 313.783 344.148C314.711 344.148 315.431 343.844 315.943 343.236C316.455 342.612 316.711 341.748 316.711 340.644V334.596H319.735V346.5H316.759V344.94H316.327C316.135 345.34 315.775 345.732 315.247 346.116C314.719 346.5 313.919 346.692 312.847 346.692ZM327.3 346.5C326.516 346.5 325.876 346.26 325.38 345.78C324.9 345.284 324.66 344.628 324.66 343.812V337.092H321.684V334.596H324.66V330.9H327.684V334.596H330.948V337.092H327.684V343.284C327.684 343.764 327.908 344.004 328.356 344.004H330.66V346.5H327.3ZM343.595 346.692C342.667 346.692 341.851 346.484 341.147 346.068C340.459 345.636 339.923 345.044 339.539 344.292C339.155 343.54 338.963 342.676 338.963 341.7V334.596H341.987V341.46C341.987 342.356 342.203 343.028 342.635 343.476C343.083 343.924 343.715 344.148 344.531 344.148C345.459 344.148 346.179 343.844 346.691 343.236C347.203 342.612 347.459 341.748 347.459 340.644V334.596H350.483V346.5H347.507V344.94H347.075C346.883 345.34 346.523 345.732 345.995 346.116C345.467 346.5 344.667 346.692 343.595 346.692ZM358.432 346.836C356.88 346.836 355.608 346.5 354.616 345.828C353.624 345.156 353.024 344.196 352.816 342.948L355.6 342.228C355.712 342.788 355.896 343.228 356.152 343.548C356.424 343.868 356.752 344.1 357.136 344.244C357.536 344.372 357.968 344.436 358.432 344.436C359.136 344.436 359.656 344.316 359.992 344.076C360.328 343.82 360.496 343.508 360.496 343.14C360.496 342.772 360.336 342.492 360.016 342.3C359.696 342.092 359.184 341.924 358.48 341.796L357.808 341.676C356.976 341.516 356.216 341.3 355.528 341.028C354.84 340.74 354.288 340.348 353.872 339.852C353.456 339.356 353.248 338.716 353.248 337.932C353.248 336.748 353.68 335.844 354.544 335.22C355.408 334.58 356.544 334.26 357.952 334.26C359.28 334.26 360.384 334.556 361.264 335.148C362.144 335.74 362.72 336.516 362.992 337.476L360.184 338.34C360.056 337.732 359.792 337.3 359.392 337.044C359.008 336.788 358.528 336.66 357.952 336.66C357.376 336.66 356.936 336.764 356.632 336.972C356.328 337.164 356.176 337.436 356.176 337.788C356.176 338.172 356.336 338.46 356.656 338.652C356.976 338.828 357.408 338.964 357.952 339.06L358.624 339.18C359.52 339.34 360.328 339.556 361.048 339.828C361.784 340.084 362.36 340.46 362.776 340.956C363.208 341.436 363.424 342.092 363.424 342.924C363.424 344.172 362.968 345.14 362.056 345.828C361.16 346.5 359.952 346.836 358.432 346.836Z" fill="#535266"/>
<path d="M588 0L625.061 148.188C628.963 163.789 629.044 180.101 625.299 195.741L593.643 327.918C589.934 343.401 589.977 359.546 593.766 375.009L625.226 503.401C629.02 518.885 629.057 535.052 625.334 550.554L588 706" stroke="#E2E2E9" stroke-width="37"/>
<path d="M651 0L688.061 148.188C691.963 163.789 692.044 180.101 688.299 195.741L656.643 327.918C652.934 343.401 652.977 359.546 656.766 375.009L688.226 503.401C692.02 518.885 692.057 535.052 688.334 550.554L651 706" stroke="#F6F6FA" stroke-width="37"/>
</svg>
