<svg width="341" height="226" viewBox="0 0 341 226" fill="none" xmlns="http://www.w3.org/2000/svg">
<path d="M32.612 20.336C30.5 20.336 28.82 19.76 27.572 18.608C26.324 17.44 25.7 15.776 25.7 13.616V9.584C25.7 7.424 26.324 5.768 27.572 4.616C28.82 3.448 30.5 2.864 32.612 2.864C34.724 2.864 36.404 3.448 37.652 4.616C38.9 5.768 39.524 7.424 39.524 9.584V13.616C39.524 15.776 38.9 17.44 37.652 18.608C36.404 19.76 34.724 20.336 32.612 20.336ZM32.612 17.504C33.796 17.504 34.716 17.16 35.372 16.472C36.028 15.784 36.356 14.864 36.356 13.712V9.488C36.356 8.336 36.028 7.416 35.372 6.728C34.716 6.04 33.796 5.696 32.612 5.696C31.444 5.696 30.524 6.04 29.852 6.728C29.196 7.416 28.868 8.336 28.868 9.488V13.712C28.868 14.864 29.196 15.784 29.852 16.472C30.524 17.16 31.444 17.504 32.612 17.504ZM46.5748 20.192C45.6468 20.192 44.8308 19.984 44.1268 19.568C43.4388 19.136 42.9028 18.544 42.5188 17.792C42.1348 17.04 41.9428 16.176 41.9428 15.2V8.096H44.9668V14.96C44.9668 15.856 45.1828 16.528 45.6148 16.976C46.0628 17.424 46.6948 17.648 47.5108 17.648C48.4388 17.648 49.1588 17.344 49.6708 16.736C50.1828 16.112 50.4388 15.248 50.4388 14.144V8.096H53.4628V20H50.4868V18.44H50.0548C49.8628 18.84 49.5028 19.232 48.9748 19.616C48.4468 20 47.6468 20.192 46.5748 20.192ZM56.4678 20V8.096H59.4438V9.44H59.8758C60.0518 8.96 60.3398 8.608 60.7398 8.384C61.1558 8.16 61.6358 8.048 62.1798 8.048H63.6198V10.736H62.1318C61.3638 10.736 60.7318 10.944 60.2358 11.36C59.7398 11.76 59.4918 12.384 59.4918 13.232V20H56.4678ZM76.7812 20.336C75.5972 20.336 74.5492 20.088 73.6372 19.592C72.7412 19.08 72.0372 18.368 71.5252 17.456C71.0292 16.528 70.7812 15.44 70.7812 14.192V13.904C70.7812 12.656 71.0292 11.576 71.5252 10.664C72.0212 9.736 72.7172 9.024 73.6132 8.528C74.5092 8.016 75.5492 7.76 76.7332 7.76C77.9012 7.76 78.9172 8.024 79.7812 8.552C80.6452 9.064 81.3172 9.784 81.7972 10.712C82.2772 11.624 82.5172 12.688 82.5172 13.904V14.936H73.8532C73.8852 15.752 74.1892 16.416 74.7652 16.928C75.3412 17.44 76.0452 17.696 76.8772 17.696C77.7252 17.696 78.3492 17.512 78.7492 17.144C79.1492 16.776 79.4532 16.368 79.6612 15.92L82.1332 17.216C81.9092 17.632 81.5812 18.088 81.1492 18.584C80.7332 19.064 80.1732 19.48 79.4692 19.832C78.7652 20.168 77.8692 20.336 76.7812 20.336ZM73.8772 12.68H79.4452C79.3812 11.992 79.1012 11.44 78.6052 11.024C78.1252 10.608 77.4932 10.4 76.7092 10.4C75.8932 10.4 75.2452 10.608 74.7652 11.024C74.2852 11.44 73.9892 11.992 73.8772 12.68ZM84.8488 20V8.096H87.8248V9.392H88.2568C88.4648 8.992 88.8088 8.648 89.2888 8.36C89.7688 8.056 90.4008 7.904 91.1848 7.904C92.0328 7.904 92.7128 8.072 93.2248 8.408C93.7368 8.728 94.1288 9.152 94.4008 9.68H94.8328C95.1048 9.168 95.4888 8.744 95.9848 8.408C96.4808 8.072 97.1848 7.904 98.0968 7.904C98.8328 7.904 99.4968 8.064 100.089 8.384C100.697 8.688 101.177 9.16 101.529 9.8C101.897 10.424 102.081 11.216 102.081 12.176V20H99.0568V12.392C99.0568 11.736 98.8888 11.248 98.5528 10.928C98.2168 10.592 97.7448 10.424 97.1368 10.424C96.4488 10.424 95.9128 10.648 95.5288 11.096C95.1608 11.528 94.9768 12.152 94.9768 12.968V20H91.9528V12.392C91.9528 11.736 91.7848 11.248 91.4488 10.928C91.1128 10.592 90.6408 10.424 90.0328 10.424C89.3448 10.424 88.8088 10.648 88.4248 11.096C88.0568 11.528 87.8728 12.152 87.8728 12.968V20H84.8488ZM108.669 20.336C107.821 20.336 107.061 20.192 106.389 19.904C105.717 19.6 105.181 19.168 104.781 18.608C104.397 18.032 104.205 17.336 104.205 16.52C104.205 15.704 104.397 15.024 104.781 14.48C105.181 13.92 105.725 13.504 106.413 13.232C107.117 12.944 107.917 12.8 108.813 12.8H112.077V12.128C112.077 11.568 111.901 11.112 111.549 10.76C111.197 10.392 110.637 10.208 109.869 10.208C109.117 10.208 108.557 10.384 108.189 10.736C107.821 11.072 107.581 11.512 107.469 12.056L104.685 11.12C104.877 10.512 105.181 9.96 105.597 9.464C106.029 8.952 106.597 8.544 107.301 8.24C108.021 7.92 108.893 7.76 109.917 7.76C111.485 7.76 112.725 8.152 113.637 8.936C114.549 9.72 115.005 10.856 115.005 12.344V16.784C115.005 17.264 115.229 17.504 115.677 17.504H116.637V20H114.621C114.029 20 113.541 19.856 113.157 19.568C112.773 19.28 112.581 18.896 112.581 18.416V18.392H112.125C112.061 18.584 111.917 18.84 111.693 19.16C111.469 19.464 111.117 19.736 110.637 19.976C110.157 20.216 109.501 20.336 108.669 20.336ZM109.197 17.888C110.045 17.888 110.733 17.656 111.261 17.192C111.805 16.712 112.077 16.08 112.077 15.296V15.056H109.029C108.469 15.056 108.029 15.176 107.709 15.416C107.389 15.656 107.229 15.992 107.229 16.424C107.229 16.856 107.397 17.208 107.733 17.48C108.069 17.752 108.557 17.888 109.197 17.888ZM118.488 20V8.096H121.512V20H118.488ZM120 6.704C119.456 6.704 118.992 6.528 118.608 6.176C118.24 5.824 118.056 5.36 118.056 4.784C118.056 4.208 118.24 3.744 118.608 3.392C118.992 3.04 119.456 2.864 120 2.864C120.56 2.864 121.024 3.04 121.392 3.392C121.76 3.744 121.944 4.208 121.944 4.784C121.944 5.36 121.76 5.824 121.392 6.176C121.024 6.528 120.56 6.704 120 6.704ZM124.503 20V3.2H127.527V20H124.503Z" fill="white"/>
<path d="M42.8333 40.9999C42.8333 40.0833 42.0833 39.3333 41.1667 39.3333H27.8333C26.9167 39.3333 26.1667 40.0833 26.1667 40.9999V50.9999C26.1667 51.9166 26.9167 52.6666 27.8333 52.6666H41.1667C42.0833 52.6666 42.8333 51.9166 42.8333 50.9999V40.9999ZM41.1667 40.9999L34.5 45.1666L27.8333 40.9999H41.1667ZM41.1667 50.9999H27.8333V42.6666L34.5 46.8333L41.1667 42.6666V50.9999Z" fill="#BDBCBC"/>
<path d="M57.0682 46.75V52H55.7273V40.3636H57.0682V44.6364H57.1818C57.3864 44.1856 57.6932 43.8277 58.1023 43.5625C58.5152 43.2936 59.0644 43.1591 59.75 43.1591C60.3447 43.1591 60.8655 43.2784 61.3125 43.517C61.7595 43.7519 62.1061 44.1136 62.3523 44.6023C62.6023 45.0871 62.7273 45.7045 62.7273 46.4545V52H61.3864V46.5455C61.3864 45.8523 61.2064 45.3163 60.8466 44.9375C60.4905 44.5549 59.9962 44.3636 59.3636 44.3636C58.9242 44.3636 58.5303 44.4564 58.1818 44.642C57.8371 44.8277 57.5644 45.0985 57.3636 45.4545C57.1667 45.8106 57.0682 46.2424 57.0682 46.75ZM67.7486 52.2045C67.1955 52.2045 66.6937 52.1004 66.2429 51.892C65.7921 51.6799 65.4342 51.375 65.169 50.9773C64.9039 50.5758 64.7713 50.0909 64.7713 49.5227C64.7713 49.0227 64.8698 48.6174 65.0668 48.3068C65.2637 47.9924 65.527 47.7462 65.8565 47.5682C66.1861 47.3902 66.5497 47.2576 66.9474 47.1705C67.349 47.0795 67.7524 47.0076 68.1577 46.9545C68.688 46.8864 69.1179 46.8352 69.4474 46.8011C69.7808 46.7633 70.0232 46.7008 70.1747 46.6136C70.33 46.5265 70.4077 46.375 70.4077 46.1591V46.1136C70.4077 45.553 70.2543 45.1174 69.9474 44.8068C69.6444 44.4962 69.1842 44.3409 68.5668 44.3409C67.9266 44.3409 67.4247 44.4811 67.0611 44.7614C66.6974 45.0417 66.4418 45.3409 66.294 45.6591L65.0213 45.2045C65.2486 44.6742 65.5516 44.2614 65.9304 43.9659C66.313 43.6667 66.7296 43.4583 67.1804 43.3409C67.6349 43.2197 68.0819 43.1591 68.5213 43.1591C68.8016 43.1591 69.1236 43.1932 69.4872 43.2614C69.8546 43.3258 70.2088 43.4602 70.5497 43.6648C70.8944 43.8693 71.1804 44.178 71.4077 44.5909C71.6349 45.0038 71.7486 45.5568 71.7486 46.25V52H70.4077V50.8182H70.3395C70.2486 51.0076 70.0971 51.2102 69.8849 51.4261C69.6728 51.642 69.3906 51.8258 69.0384 51.9773C68.6861 52.1288 68.2562 52.2045 67.7486 52.2045ZM67.9531 51C68.4834 51 68.9304 50.8958 69.294 50.6875C69.6615 50.4792 69.938 50.2102 70.1236 49.8807C70.313 49.5511 70.4077 49.2045 70.4077 48.8409V47.6136C70.3509 47.6818 70.2259 47.7443 70.0327 47.8011C69.8433 47.8542 69.6236 47.9015 69.3736 47.9432C69.1274 47.9811 68.8868 48.0152 68.652 48.0455C68.4209 48.072 68.2334 48.0947 68.0895 48.1136C67.741 48.1591 67.4152 48.233 67.1122 48.3352C66.813 48.4337 66.5705 48.5833 66.3849 48.7841C66.2031 48.9811 66.1122 49.25 66.1122 49.5909C66.1122 50.0568 66.2846 50.4091 66.6293 50.6477C66.9777 50.8826 67.419 51 67.9531 51ZM75.5369 40.3636V52H74.196V40.3636H75.5369ZM79.3338 46.75V52H77.9929V43.2727H79.2884V44.6364H79.402C79.6065 44.1932 79.9171 43.8371 80.3338 43.5682C80.7505 43.2955 81.2884 43.1591 81.9474 43.1591C82.5384 43.1591 83.0554 43.2803 83.4986 43.5227C83.9418 43.7614 84.2865 44.125 84.5327 44.6136C84.7789 45.0985 84.902 45.7121 84.902 46.4545V52H83.5611V46.5455C83.5611 45.8598 83.383 45.3258 83.027 44.9432C82.6709 44.5568 82.1823 44.3636 81.5611 44.3636C81.133 44.3636 80.7505 44.4564 80.4134 44.642C80.08 44.8277 79.8168 45.0985 79.6236 45.4545C79.4304 45.8106 79.3338 46.2424 79.3338 46.75ZM91.0114 52.1818C90.1705 52.1818 89.4451 51.9962 88.8352 51.625C88.2292 51.25 87.7614 50.7273 87.4318 50.0568C87.1061 49.3826 86.9432 48.5985 86.9432 47.7045C86.9432 46.8106 87.1061 46.0227 87.4318 45.3409C87.7614 44.6553 88.2197 44.1212 88.8068 43.7386C89.3977 43.3523 90.0871 43.1591 90.875 43.1591C91.3295 43.1591 91.7784 43.2348 92.2216 43.3864C92.6648 43.5379 93.0682 43.7841 93.4318 44.125C93.7955 44.4621 94.0852 44.9091 94.3011 45.4659C94.517 46.0227 94.625 46.7083 94.625 47.5227V48.0909H87.8977V46.9318H93.2614C93.2614 46.4394 93.1629 46 92.9659 45.6136C92.7727 45.2273 92.4962 44.9223 92.1364 44.6989C91.7803 44.4754 91.3598 44.3636 90.875 44.3636C90.3409 44.3636 89.8788 44.4962 89.4886 44.7614C89.1023 45.0227 88.8049 45.3636 88.5966 45.7841C88.3883 46.2045 88.2841 46.6553 88.2841 47.1364V47.9091C88.2841 48.5682 88.3977 49.1269 88.625 49.5852C88.8561 50.0398 89.1761 50.3864 89.5852 50.625C89.9943 50.8598 90.4697 50.9773 91.0114 50.9773C91.3636 50.9773 91.6818 50.928 91.9659 50.8295C92.2538 50.7273 92.5019 50.5758 92.7102 50.375C92.9186 50.1705 93.0795 49.9167 93.1932 49.6136L94.4886 49.9773C94.3523 50.4167 94.1231 50.803 93.8011 51.1364C93.4792 51.4659 93.0814 51.7235 92.608 51.9091C92.1345 52.0909 91.6023 52.1818 91.0114 52.1818ZM100.46 43.2727V44.4091H95.9375V43.2727H100.46ZM97.2557 41.1818H98.5966V49.5C98.5966 49.8788 98.6515 50.1629 98.7614 50.3523C98.875 50.5379 99.0189 50.6629 99.1932 50.7273C99.3712 50.7879 99.5587 50.8182 99.7557 50.8182C99.9034 50.8182 100.025 50.8106 100.119 50.7955C100.214 50.7765 100.29 50.7614 100.347 50.75L100.619 51.9545C100.528 51.9886 100.402 52.0227 100.239 52.0568C100.076 52.0947 99.8693 52.1136 99.6193 52.1136C99.2405 52.1136 98.8693 52.0322 98.5057 51.8693C98.1458 51.7064 97.8466 51.4583 97.608 51.125C97.3731 50.7917 97.2557 50.3712 97.2557 49.8636V41.1818ZM106.273 43.2727V44.4091H101.75V43.2727H106.273ZM103.068 41.1818H104.409V49.5C104.409 49.8788 104.464 50.1629 104.574 50.3523C104.688 50.5379 104.831 50.6629 105.006 50.7273C105.184 50.7879 105.371 50.8182 105.568 50.8182C105.716 50.8182 105.837 50.8106 105.932 50.7955C106.027 50.7765 106.102 50.7614 106.159 50.75L106.432 51.9545C106.341 51.9886 106.214 52.0227 106.051 52.0568C105.888 52.0947 105.682 52.1136 105.432 52.1136C105.053 52.1136 104.682 52.0322 104.318 51.8693C103.958 51.7064 103.659 51.4583 103.42 51.125C103.186 50.7917 103.068 50.3712 103.068 49.8636V41.1818ZM111.855 52.1818C111.014 52.1818 110.289 51.9962 109.679 51.625C109.073 51.25 108.605 50.7273 108.276 50.0568C107.95 49.3826 107.787 48.5985 107.787 47.7045C107.787 46.8106 107.95 46.0227 108.276 45.3409C108.605 44.6553 109.063 44.1212 109.651 43.7386C110.241 43.3523 110.931 43.1591 111.719 43.1591C112.173 43.1591 112.622 43.2348 113.065 43.3864C113.509 43.5379 113.912 43.7841 114.276 44.125C114.639 44.4621 114.929 44.9091 115.145 45.4659C115.361 46.0227 115.469 46.7083 115.469 47.5227V48.0909H108.741V46.9318H114.105C114.105 46.4394 114.007 46 113.81 45.6136C113.616 45.2273 113.34 44.9223 112.98 44.6989C112.624 44.4754 112.204 44.3636 111.719 44.3636C111.185 44.3636 110.723 44.4962 110.332 44.7614C109.946 45.0227 109.649 45.3636 109.44 45.7841C109.232 46.2045 109.128 46.6553 109.128 47.1364V47.9091C109.128 48.5682 109.241 49.1269 109.469 49.5852C109.7 50.0398 110.02 50.3864 110.429 50.625C110.838 50.8598 111.313 50.9773 111.855 50.9773C112.207 50.9773 112.526 50.928 112.81 50.8295C113.098 50.7273 113.346 50.5758 113.554 50.375C113.762 50.1705 113.923 49.9167 114.037 49.6136L115.332 49.9773C115.196 50.4167 114.967 50.803 114.645 51.1364C114.323 51.4659 113.925 51.7235 113.452 51.9091C112.978 52.0909 112.446 52.1818 111.855 52.1818ZM121.054 52.1818C120.236 52.1818 119.531 51.9886 118.94 51.6023C118.349 51.2159 117.895 50.6837 117.577 50.0057C117.259 49.3277 117.099 48.553 117.099 47.6818C117.099 46.7955 117.262 46.0133 117.588 45.3352C117.918 44.6534 118.376 44.1212 118.963 43.7386C119.554 43.3523 120.243 43.1591 121.031 43.1591C121.645 43.1591 122.198 43.2727 122.69 43.5C123.183 43.7273 123.586 44.0455 123.901 44.4545C124.215 44.8636 124.41 45.3409 124.486 45.8864H123.145C123.043 45.4886 122.815 45.1364 122.463 44.8295C122.115 44.5189 121.645 44.3636 121.054 44.3636C120.531 44.3636 120.073 44.5 119.679 44.7727C119.289 45.0417 118.984 45.4223 118.764 45.9148C118.548 46.4034 118.44 46.9773 118.44 47.6364C118.44 48.3106 118.546 48.8977 118.759 49.3977C118.974 49.8977 119.277 50.286 119.668 50.5625C120.062 50.839 120.524 50.9773 121.054 50.9773C121.402 50.9773 121.719 50.9167 122.003 50.7955C122.287 50.6742 122.527 50.5 122.724 50.2727C122.921 50.0455 123.062 49.7727 123.145 49.4545H124.486C124.41 49.9697 124.223 50.4337 123.923 50.8466C123.628 51.2557 123.236 51.5814 122.747 51.8239C122.262 52.0625 121.698 52.1818 121.054 52.1818ZM127.787 46.75V52H126.446V40.3636H127.787V44.6364H127.901C128.105 44.1856 128.412 43.8277 128.821 43.5625C129.234 43.2936 129.783 43.1591 130.469 43.1591C131.063 43.1591 131.584 43.2784 132.031 43.517C132.478 43.7519 132.825 44.1136 133.071 44.6023C133.321 45.0871 133.446 45.7045 133.446 46.4545V52H132.105V46.5455C132.105 45.8523 131.925 45.3163 131.565 44.9375C131.209 44.5549 130.715 44.3636 130.082 44.3636C129.643 44.3636 129.249 44.4564 128.901 44.642C128.556 44.8277 128.283 45.0985 128.082 45.4545C127.885 45.8106 127.787 46.2424 127.787 46.75ZM137.24 46.75V52H135.899V43.2727H137.195V44.6364H137.308C137.513 44.1932 137.823 43.8371 138.24 43.5682C138.657 43.2955 139.195 43.1591 139.854 43.1591C140.445 43.1591 140.962 43.2803 141.405 43.5227C141.848 43.7614 142.193 44.125 142.439 44.6136C142.685 45.0985 142.808 45.7121 142.808 46.4545V52H141.467V46.5455C141.467 45.8598 141.289 45.3258 140.933 44.9432C140.577 44.5568 140.089 44.3636 139.467 44.3636C139.039 44.3636 138.657 44.4564 138.32 44.642C137.986 44.8277 137.723 45.0985 137.53 45.4545C137.337 45.8106 137.24 46.2424 137.24 46.75ZM148.804 52.1818C148.016 52.1818 147.325 51.9943 146.73 51.6193C146.139 51.2443 145.677 50.7197 145.344 50.0455C145.014 49.3712 144.849 48.5833 144.849 47.6818C144.849 46.7727 145.014 45.9792 145.344 45.3011C145.677 44.6231 146.139 44.0966 146.73 43.7216C147.325 43.3466 148.016 43.1591 148.804 43.1591C149.592 43.1591 150.281 43.3466 150.872 43.7216C151.467 44.0966 151.929 44.6231 152.259 45.3011C152.592 45.9792 152.759 46.7727 152.759 47.6818C152.759 48.5833 152.592 49.3712 152.259 50.0455C151.929 50.7197 151.467 51.2443 150.872 51.6193C150.281 51.9943 149.592 52.1818 148.804 52.1818ZM148.804 50.9773C149.402 50.9773 149.895 50.8239 150.281 50.517C150.668 50.2102 150.954 49.8068 151.139 49.3068C151.325 48.8068 151.418 48.2652 151.418 47.6818C151.418 47.0985 151.325 46.5549 151.139 46.0511C150.954 45.5473 150.668 45.1402 150.281 44.8295C149.895 44.5189 149.402 44.3636 148.804 44.3636C148.205 44.3636 147.713 44.5189 147.327 44.8295C146.94 45.1402 146.654 45.5473 146.469 46.0511C146.283 46.5549 146.19 47.0985 146.19 47.6818C146.19 48.2652 146.283 48.8068 146.469 49.3068C146.654 49.8068 146.94 50.2102 147.327 50.517C147.713 50.8239 148.205 50.9773 148.804 50.9773ZM156.146 40.3636V52H154.805V40.3636H156.146ZM162.148 52.1818C161.36 52.1818 160.669 51.9943 160.074 51.6193C159.483 51.2443 159.021 50.7197 158.688 50.0455C158.358 49.3712 158.193 48.5833 158.193 47.6818C158.193 46.7727 158.358 45.9792 158.688 45.3011C159.021 44.6231 159.483 44.0966 160.074 43.7216C160.669 43.3466 161.36 43.1591 162.148 43.1591C162.936 43.1591 163.625 43.3466 164.216 43.7216C164.811 44.0966 165.273 44.6231 165.602 45.3011C165.936 45.9792 166.102 46.7727 166.102 47.6818C166.102 48.5833 165.936 49.3712 165.602 50.0455C165.273 50.7197 164.811 51.2443 164.216 51.6193C163.625 51.9943 162.936 52.1818 162.148 52.1818ZM162.148 50.9773C162.746 50.9773 163.239 50.8239 163.625 50.517C164.011 50.2102 164.297 49.8068 164.483 49.3068C164.669 48.8068 164.761 48.2652 164.761 47.6818C164.761 47.0985 164.669 46.5549 164.483 46.0511C164.297 45.5473 164.011 45.1402 163.625 44.8295C163.239 44.5189 162.746 44.3636 162.148 44.3636C161.549 44.3636 161.057 44.5189 160.67 44.8295C160.284 45.1402 159.998 45.5473 159.812 46.0511C159.627 46.5549 159.534 47.0985 159.534 47.6818C159.534 48.2652 159.627 48.8068 159.812 49.3068C159.998 49.8068 160.284 50.2102 160.67 50.517C161.057 50.8239 161.549 50.9773 162.148 50.9773ZM171.672 55.4545C171.024 55.4545 170.467 55.3712 170.001 55.2045C169.536 55.0417 169.147 54.8258 168.837 54.5568C168.53 54.2917 168.286 54.0076 168.104 53.7045L169.172 52.9545C169.293 53.1136 169.446 53.2955 169.632 53.5C169.818 53.7083 170.071 53.8883 170.393 54.0398C170.719 54.1951 171.145 54.2727 171.672 54.2727C172.376 54.2727 172.958 54.1023 173.416 53.7614C173.875 53.4205 174.104 52.8864 174.104 52.1591V50.3864H173.99C173.892 50.5455 173.751 50.7424 173.57 50.9773C173.392 51.2083 173.134 51.4148 172.797 51.5966C172.464 51.7746 172.013 51.8636 171.445 51.8636C170.74 51.8636 170.107 51.697 169.547 51.3636C168.99 51.0303 168.549 50.5455 168.223 49.9091C167.901 49.2727 167.74 48.5 167.74 47.5909C167.74 46.697 167.897 45.9186 168.212 45.2557C168.526 44.589 168.964 44.0739 169.524 43.7102C170.085 43.3428 170.732 43.1591 171.467 43.1591C172.036 43.1591 172.486 43.2538 172.82 43.4432C173.157 43.6288 173.414 43.8409 173.592 44.0795C173.774 44.3144 173.914 44.5076 174.013 44.6591H174.149V43.2727H175.445V52.25C175.445 53 175.274 53.6098 174.933 54.0795C174.596 54.553 174.142 54.8996 173.57 55.1193C173.001 55.3428 172.369 55.4545 171.672 55.4545ZM171.626 50.6591C172.164 50.6591 172.619 50.536 172.99 50.2898C173.361 50.0436 173.643 49.6894 173.837 49.2273C174.03 48.7652 174.126 48.2121 174.126 47.5682C174.126 46.9394 174.032 46.3845 173.842 45.9034C173.653 45.4223 173.373 45.0455 173.001 44.7727C172.63 44.5 172.172 44.3636 171.626 44.3636C171.058 44.3636 170.585 44.5076 170.206 44.7955C169.831 45.0833 169.549 45.4697 169.359 45.9545C169.174 46.4394 169.081 46.9773 169.081 47.5682C169.081 48.1742 169.176 48.7102 169.365 49.1761C169.558 49.6383 169.842 50.0019 170.217 50.267C170.596 50.5284 171.066 50.6591 171.626 50.6591ZM177.899 52V43.2727H179.24V52H177.899ZM178.581 41.8182C178.32 41.8182 178.094 41.7292 177.905 41.5511C177.719 41.3731 177.626 41.1591 177.626 40.9091C177.626 40.6591 177.719 40.4451 177.905 40.267C178.094 40.089 178.32 40 178.581 40C178.842 40 179.066 40.089 179.251 40.267C179.441 40.4451 179.536 40.6591 179.536 40.9091C179.536 41.1591 179.441 41.3731 179.251 41.5511C179.066 41.7292 178.842 41.8182 178.581 41.8182ZM185.355 52.1818C184.514 52.1818 183.789 51.9962 183.179 51.625C182.573 51.25 182.105 50.7273 181.776 50.0568C181.45 49.3826 181.287 48.5985 181.287 47.7045C181.287 46.8106 181.45 46.0227 181.776 45.3409C182.105 44.6553 182.563 44.1212 183.151 43.7386C183.741 43.3523 184.431 43.1591 185.219 43.1591C185.673 43.1591 186.122 43.2348 186.565 43.3864C187.009 43.5379 187.412 43.7841 187.776 44.125C188.139 44.4621 188.429 44.9091 188.645 45.4659C188.861 46.0227 188.969 46.7083 188.969 47.5227V48.0909H182.241V46.9318H187.605C187.605 46.4394 187.507 46 187.31 45.6136C187.116 45.2273 186.84 44.9223 186.48 44.6989C186.124 44.4754 185.704 44.3636 185.219 44.3636C184.685 44.3636 184.223 44.4962 183.832 44.7614C183.446 45.0227 183.149 45.3636 182.94 45.7841C182.732 46.2045 182.628 46.6553 182.628 47.1364V47.9091C182.628 48.5682 182.741 49.1269 182.969 49.5852C183.2 50.0398 183.52 50.3864 183.929 50.625C184.338 50.8598 184.813 50.9773 185.355 50.9773C185.707 50.9773 186.026 50.928 186.31 50.8295C186.598 50.7273 186.846 50.5758 187.054 50.375C187.262 50.1705 187.423 49.9167 187.537 49.6136L188.832 49.9773C188.696 50.4167 188.467 50.803 188.145 51.1364C187.823 51.4659 187.425 51.7235 186.952 51.9091C186.478 52.0909 185.946 52.1818 185.355 52.1818ZM197.19 45.2273L195.986 45.5682C195.91 45.3674 195.798 45.1723 195.651 44.983C195.507 44.7898 195.31 44.6307 195.06 44.5057C194.81 44.3807 194.49 44.3182 194.099 44.3182C193.565 44.3182 193.12 44.4413 192.764 44.6875C192.412 44.9299 192.236 45.2386 192.236 45.6136C192.236 45.947 192.357 46.2102 192.599 46.4034C192.842 46.5966 193.221 46.7576 193.736 46.8864L195.031 47.2045C195.812 47.3939 196.393 47.6837 196.776 48.0739C197.158 48.4602 197.349 48.9583 197.349 49.5682C197.349 50.0682 197.205 50.5152 196.918 50.9091C196.634 51.303 196.236 51.6136 195.724 51.8409C195.213 52.0682 194.618 52.1818 193.94 52.1818C193.05 52.1818 192.313 51.9886 191.73 51.6023C191.147 51.2159 190.777 50.6515 190.622 49.9091L191.895 49.5909C192.016 50.0606 192.245 50.4129 192.582 50.6477C192.923 50.8826 193.368 51 193.918 51C194.543 51 195.039 50.8674 195.406 50.6023C195.777 50.3333 195.963 50.0114 195.963 49.6364C195.963 49.3333 195.857 49.0795 195.645 48.875C195.433 48.6667 195.107 48.5114 194.668 48.4091L193.213 48.0682C192.414 47.8788 191.827 47.5852 191.452 47.1875C191.08 46.786 190.895 46.2841 190.895 45.6818C190.895 45.1894 191.033 44.7538 191.31 44.375C191.59 43.9962 191.971 43.6989 192.452 43.483C192.937 43.267 193.486 43.1591 194.099 43.1591C194.963 43.1591 195.641 43.3485 196.134 43.7273C196.63 44.1061 196.982 44.6061 197.19 45.2273ZM206.072 55.0682C204.913 55.0682 203.889 54.9091 202.999 54.5909C202.108 54.2765 201.36 53.8125 200.754 53.1989C200.148 52.5852 199.69 51.8333 199.379 50.9432C199.069 50.053 198.913 49.0341 198.913 47.8864C198.913 46.7765 199.071 45.7841 199.385 44.9091C199.703 44.0341 200.163 43.2917 200.766 42.6818C201.372 42.0682 202.107 41.6004 202.97 41.2784C203.838 40.9564 204.819 40.7955 205.913 40.7955C206.978 40.7955 207.91 40.9697 208.709 41.3182C209.512 41.6629 210.182 42.1307 210.72 42.7216C211.262 43.3087 211.667 43.9697 211.936 44.7045C212.209 45.4394 212.345 46.197 212.345 46.9773C212.345 47.5265 212.319 48.0833 212.266 48.6477C212.213 49.2121 212.101 49.7311 211.93 50.2045C211.76 50.6742 211.497 51.053 211.141 51.3409C210.788 51.6288 210.311 51.7727 209.709 51.7727C209.444 51.7727 209.152 51.7311 208.834 51.6477C208.516 51.5644 208.233 51.4261 207.987 51.233C207.741 51.0398 207.595 50.7803 207.55 50.4545H207.482C207.391 50.6742 207.25 50.8826 207.061 51.0795C206.875 51.2765 206.631 51.4337 206.328 51.5511C206.029 51.6686 205.663 51.7197 205.232 51.7045C204.739 51.6856 204.305 51.5758 203.93 51.375C203.555 51.1705 203.241 50.8939 202.987 50.5455C202.737 50.1932 202.548 49.786 202.419 49.3239C202.294 48.858 202.232 48.3561 202.232 47.8182C202.232 47.3068 202.307 46.839 202.459 46.4148C202.61 45.9905 202.821 45.6193 203.089 45.3011C203.362 44.983 203.68 44.7292 204.044 44.5398C204.411 44.3466 204.807 44.2273 205.232 44.1818C205.61 44.1439 205.955 44.161 206.266 44.233C206.576 44.3011 206.832 44.4053 207.033 44.5455C207.233 44.6818 207.36 44.8333 207.413 45H207.482V44.3636H208.686V49.5C208.686 49.8182 208.775 50.0985 208.953 50.3409C209.131 50.5833 209.391 50.7045 209.732 50.7045C210.118 50.7045 210.413 50.572 210.618 50.3068C210.826 50.0417 210.968 49.6326 211.044 49.0795C211.124 48.5265 211.163 47.8182 211.163 46.9545C211.163 46.447 211.093 45.947 210.953 45.4545C210.817 44.9583 210.608 44.4943 210.328 44.0625C210.052 43.6307 209.701 43.25 209.277 42.9205C208.853 42.5909 208.355 42.3333 207.783 42.1477C207.214 41.9583 206.569 41.8636 205.845 41.8636C204.955 41.8636 204.158 42.0019 203.453 42.2784C202.752 42.5511 202.156 42.9508 201.663 43.4773C201.175 44 200.802 44.6364 200.544 45.3864C200.29 46.1326 200.163 46.9811 200.163 47.9318C200.163 48.8977 200.29 49.7557 200.544 50.5057C200.802 51.2557 201.18 51.8883 201.68 52.4034C202.184 52.9186 202.807 53.3087 203.55 53.5739C204.292 53.8428 205.148 53.9773 206.118 53.9773C206.535 53.9773 206.946 53.9375 207.351 53.858C207.756 53.7784 208.114 53.6913 208.425 53.5966C208.735 53.5019 208.959 53.4318 209.095 53.3864L209.413 54.4318C209.179 54.5303 208.872 54.6288 208.493 54.7273C208.118 54.8258 207.716 54.9072 207.288 54.9716C206.864 55.036 206.459 55.0682 206.072 55.0682ZM205.413 50.5455C205.921 50.5455 206.332 50.4432 206.646 50.2386C206.961 50.0341 207.19 49.7254 207.334 49.3125C207.478 48.8996 207.55 48.3788 207.55 47.75C207.55 47.1136 207.47 46.6174 207.311 46.2614C207.152 45.9053 206.917 45.6553 206.607 45.5114C206.296 45.3674 205.913 45.2955 205.459 45.2955C205.027 45.2955 204.658 45.4091 204.351 45.6364C204.048 45.8598 203.815 46.1591 203.652 46.5341C203.493 46.9053 203.413 47.3106 203.413 47.75C203.413 48.2348 203.478 48.6913 203.607 49.1193C203.735 49.5436 203.946 49.8883 204.237 50.1534C204.529 50.4148 204.921 50.5455 205.413 50.5455ZM217.875 55.4545C217.227 55.4545 216.67 55.3712 216.205 55.2045C215.739 55.0417 215.35 54.8258 215.04 54.5568C214.733 54.2917 214.489 54.0076 214.307 53.7045L215.375 52.9545C215.496 53.1136 215.65 53.2955 215.835 53.5C216.021 53.7083 216.275 53.8883 216.597 54.0398C216.922 54.1951 217.348 54.2727 217.875 54.2727C218.58 54.2727 219.161 54.1023 219.619 53.7614C220.078 53.4205 220.307 52.8864 220.307 52.1591V50.3864H220.193C220.095 50.5455 219.955 50.7424 219.773 50.9773C219.595 51.2083 219.337 51.4148 219 51.5966C218.667 51.7746 218.216 51.8636 217.648 51.8636C216.943 51.8636 216.311 51.697 215.75 51.3636C215.193 51.0303 214.752 50.5455 214.426 49.9091C214.104 49.2727 213.943 48.5 213.943 47.5909C213.943 46.697 214.1 45.9186 214.415 45.2557C214.729 44.589 215.167 44.0739 215.727 43.7102C216.288 43.3428 216.936 43.1591 217.67 43.1591C218.239 43.1591 218.689 43.2538 219.023 43.4432C219.36 43.6288 219.617 43.8409 219.795 44.0795C219.977 44.3144 220.117 44.5076 220.216 44.6591H220.352V43.2727H221.648V52.25C221.648 53 221.477 53.6098 221.136 54.0795C220.799 54.553 220.345 54.8996 219.773 55.1193C219.205 55.3428 218.572 55.4545 217.875 55.4545ZM217.83 50.6591C218.367 50.6591 218.822 50.536 219.193 50.2898C219.564 50.0436 219.847 49.6894 220.04 49.2273C220.233 48.7652 220.33 48.2121 220.33 47.5682C220.33 46.9394 220.235 46.3845 220.045 45.9034C219.856 45.4223 219.576 45.0455 219.205 44.7727C218.833 44.5 218.375 44.3636 217.83 44.3636C217.261 44.3636 216.788 44.5076 216.409 44.7955C216.034 45.0833 215.752 45.4697 215.562 45.9545C215.377 46.4394 215.284 46.9773 215.284 47.5682C215.284 48.1742 215.379 48.7102 215.568 49.1761C215.761 49.6383 216.045 50.0019 216.42 50.267C216.799 50.5284 217.269 50.6591 217.83 50.6591ZM224.102 52V43.2727H225.398V44.6364H225.511C225.693 44.1705 225.987 43.8087 226.392 43.5511C226.797 43.2898 227.284 43.1591 227.852 43.1591C228.428 43.1591 228.907 43.2898 229.29 43.5511C229.676 43.8087 229.977 44.1705 230.193 44.6364H230.284C230.508 44.1856 230.843 43.8277 231.29 43.5625C231.737 43.2936 232.273 43.1591 232.898 43.1591C233.678 43.1591 234.316 43.4034 234.812 43.892C235.309 44.3769 235.557 45.1326 235.557 46.1591V52H234.216V46.1591C234.216 45.5152 234.04 45.0549 233.688 44.7784C233.335 44.5019 232.92 44.3636 232.443 44.3636C231.83 44.3636 231.354 44.5492 231.017 44.9205C230.68 45.2879 230.511 45.7538 230.511 46.3182V52H229.148V46.0227C229.148 45.5265 228.987 45.1269 228.665 44.8239C228.343 44.517 227.928 44.3636 227.42 44.3636C227.072 44.3636 226.746 44.4564 226.443 44.642C226.144 44.8277 225.902 45.0852 225.716 45.4148C225.534 45.7405 225.443 46.1174 225.443 46.5455V52H224.102ZM240.577 52.2045C240.024 52.2045 239.522 52.1004 239.071 51.892C238.62 51.6799 238.262 51.375 237.997 50.9773C237.732 50.5758 237.599 50.0909 237.599 49.5227C237.599 49.0227 237.698 48.6174 237.895 48.3068C238.092 47.9924 238.355 47.7462 238.685 47.5682C239.014 47.3902 239.378 47.2576 239.776 47.1705C240.177 47.0795 240.58 47.0076 240.986 46.9545C241.516 46.8864 241.946 46.8352 242.276 46.8011C242.609 46.7633 242.851 46.7008 243.003 46.6136C243.158 46.5265 243.236 46.375 243.236 46.1591V46.1136C243.236 45.553 243.082 45.1174 242.776 44.8068C242.473 44.4962 242.012 44.3409 241.395 44.3409C240.755 44.3409 240.253 44.4811 239.889 44.7614C239.526 45.0417 239.27 45.3409 239.122 45.6591L237.849 45.2045C238.077 44.6742 238.38 44.2614 238.759 43.9659C239.141 43.6667 239.558 43.4583 240.009 43.3409C240.463 43.2197 240.91 43.1591 241.349 43.1591C241.63 43.1591 241.952 43.1932 242.315 43.2614C242.683 43.3258 243.037 43.4602 243.378 43.6648C243.723 43.8693 244.009 44.178 244.236 44.5909C244.463 45.0038 244.577 45.5568 244.577 46.25V52H243.236V50.8182H243.168C243.077 51.0076 242.925 51.2102 242.713 51.4261C242.501 51.642 242.219 51.8258 241.866 51.9773C241.514 52.1288 241.084 52.2045 240.577 52.2045ZM240.781 51C241.312 51 241.759 50.8958 242.122 50.6875C242.49 50.4792 242.766 50.2102 242.952 49.8807C243.141 49.5511 243.236 49.2045 243.236 48.8409V47.6136C243.179 47.6818 243.054 47.7443 242.861 47.8011C242.671 47.8542 242.452 47.9015 242.202 47.9432C241.955 47.9811 241.715 48.0152 241.48 48.0455C241.249 48.072 241.062 48.0947 240.918 48.1136C240.569 48.1591 240.243 48.233 239.94 48.3352C239.641 48.4337 239.399 48.5833 239.213 48.7841C239.031 48.9811 238.94 49.25 238.94 49.5909C238.94 50.0568 239.113 50.4091 239.457 50.6477C239.806 50.8826 240.247 51 240.781 51ZM247.024 52V43.2727H248.365V52H247.024ZM247.706 41.8182C247.445 41.8182 247.219 41.7292 247.03 41.5511C246.844 41.3731 246.751 41.1591 246.751 40.9091C246.751 40.6591 246.844 40.4451 247.03 40.267C247.219 40.089 247.445 40 247.706 40C247.967 40 248.191 40.089 248.376 40.267C248.566 40.4451 248.661 40.6591 248.661 40.9091C248.661 41.1591 248.566 41.3731 248.376 41.5511C248.191 41.7292 247.967 41.8182 247.706 41.8182ZM252.162 40.3636V52H250.821V40.3636H252.162ZM255.595 52.0909C255.315 52.0909 255.074 51.9905 254.874 51.7898C254.673 51.589 254.572 51.3485 254.572 51.0682C254.572 50.7879 254.673 50.5473 254.874 50.3466C255.074 50.1458 255.315 50.0455 255.595 50.0455C255.875 50.0455 256.116 50.1458 256.317 50.3466C256.518 50.5473 256.618 50.7879 256.618 51.0682C256.618 51.2538 256.571 51.4242 256.476 51.5795C256.385 51.7348 256.262 51.8598 256.107 51.9545C255.955 52.0455 255.785 52.0909 255.595 52.0909ZM262.57 52.1818C261.751 52.1818 261.047 51.9886 260.456 51.6023C259.865 51.2159 259.411 50.6837 259.092 50.0057C258.774 49.3277 258.615 48.553 258.615 47.6818C258.615 46.7955 258.778 46.0133 259.104 45.3352C259.433 44.6534 259.892 44.1212 260.479 43.7386C261.07 43.3523 261.759 43.1591 262.547 43.1591C263.161 43.1591 263.714 43.2727 264.206 43.5C264.698 43.7273 265.102 44.0455 265.416 44.4545C265.731 44.8636 265.926 45.3409 266.001 45.8864H264.661C264.558 45.4886 264.331 45.1364 263.979 44.8295C263.63 44.5189 263.161 44.3636 262.57 44.3636C262.047 44.3636 261.589 44.5 261.195 44.7727C260.804 45.0417 260.5 45.4223 260.28 45.9148C260.064 46.4034 259.956 46.9773 259.956 47.6364C259.956 48.3106 260.062 48.8977 260.274 49.3977C260.49 49.8977 260.793 50.286 261.183 50.5625C261.577 50.839 262.039 50.9773 262.57 50.9773C262.918 50.9773 263.234 50.9167 263.518 50.7955C263.803 50.6742 264.043 50.5 264.24 50.2727C264.437 50.0455 264.577 49.7727 264.661 49.4545H266.001C265.926 49.9697 265.738 50.4337 265.439 50.8466C265.143 51.2557 264.751 51.5814 264.263 51.8239C263.778 52.0625 263.214 52.1818 262.57 52.1818ZM271.507 52.1818C270.719 52.1818 270.028 51.9943 269.433 51.6193C268.842 51.2443 268.38 50.7197 268.047 50.0455C267.717 49.3712 267.553 48.5833 267.553 47.6818C267.553 46.7727 267.717 45.9792 268.047 45.3011C268.38 44.6231 268.842 44.0966 269.433 43.7216C270.028 43.3466 270.719 43.1591 271.507 43.1591C272.295 43.1591 272.984 43.3466 273.575 43.7216C274.17 44.0966 274.632 44.6231 274.962 45.3011C275.295 45.9792 275.462 46.7727 275.462 47.6818C275.462 48.5833 275.295 49.3712 274.962 50.0455C274.632 50.7197 274.17 51.2443 273.575 51.6193C272.984 51.9943 272.295 52.1818 271.507 52.1818ZM271.507 50.9773C272.106 50.9773 272.598 50.8239 272.984 50.517C273.371 50.2102 273.657 49.8068 273.842 49.3068C274.028 48.8068 274.121 48.2652 274.121 47.6818C274.121 47.0985 274.028 46.5549 273.842 46.0511C273.657 45.5473 273.371 45.1402 272.984 44.8295C272.598 44.5189 272.106 44.3636 271.507 44.3636C270.909 44.3636 270.416 44.5189 270.03 44.8295C269.643 45.1402 269.357 45.5473 269.172 46.0511C268.986 46.5549 268.893 47.0985 268.893 47.6818C268.893 48.2652 268.986 48.8068 269.172 49.3068C269.357 49.8068 269.643 50.2102 270.03 50.517C270.416 50.8239 270.909 50.9773 271.507 50.9773ZM277.509 52V43.2727H278.804V44.6364H278.918C279.099 44.1705 279.393 43.8087 279.798 43.5511C280.204 43.2898 280.69 43.1591 281.259 43.1591C281.834 43.1591 282.313 43.2898 282.696 43.5511C283.082 43.8087 283.384 44.1705 283.599 44.6364H283.69C283.914 44.1856 284.249 43.8277 284.696 43.5625C285.143 43.2936 285.679 43.1591 286.304 43.1591C287.084 43.1591 287.723 43.4034 288.219 43.892C288.715 44.3769 288.963 45.1326 288.963 46.1591V52H287.622V46.1591C287.622 45.5152 287.446 45.0549 287.094 44.7784C286.741 44.5019 286.327 44.3636 285.849 44.3636C285.236 44.3636 284.76 44.5492 284.423 44.9205C284.086 45.2879 283.918 45.7538 283.918 46.3182V52H282.554V46.0227C282.554 45.5265 282.393 45.1269 282.071 44.8239C281.749 44.517 281.334 44.3636 280.827 44.3636C280.478 44.3636 280.152 44.4564 279.849 44.642C279.55 44.8277 279.308 45.0852 279.122 45.4148C278.94 45.7405 278.849 46.1174 278.849 46.5455V52H277.509Z" fill="#BDBCBC"/>
<path d="M32.612 102.336C30.5 102.336 28.82 101.76 27.572 100.608C26.324 99.44 25.7 97.776 25.7 95.616V91.584C25.7 89.424 26.324 87.768 27.572 86.616C28.82 85.448 30.5 84.864 32.612 84.864C34.724 84.864 36.404 85.448 37.652 86.616C38.9 87.768 39.524 89.424 39.524 91.584V95.616C39.524 97.776 38.9 99.44 37.652 100.608C36.404 101.76 34.724 102.336 32.612 102.336ZM32.612 99.504C33.796 99.504 34.716 99.16 35.372 98.472C36.028 97.784 36.356 96.864 36.356 95.712V91.488C36.356 90.336 36.028 89.416 35.372 88.728C34.716 88.04 33.796 87.696 32.612 87.696C31.444 87.696 30.524 88.04 29.852 88.728C29.196 89.416 28.868 90.336 28.868 91.488V95.712C28.868 96.864 29.196 97.784 29.852 98.472C30.524 99.16 31.444 99.504 32.612 99.504ZM46.5748 102.192C45.6468 102.192 44.8308 101.984 44.1268 101.568C43.4388 101.136 42.9028 100.544 42.5188 99.792C42.1348 99.04 41.9428 98.176 41.9428 97.2V90.096H44.9668V96.96C44.9668 97.856 45.1828 98.528 45.6148 98.976C46.0628 99.424 46.6948 99.648 47.5108 99.648C48.4388 99.648 49.1588 99.344 49.6708 98.736C50.1828 98.112 50.4388 97.248 50.4388 96.144V90.096H53.4628V102H50.4868V100.44H50.0548C49.8628 100.84 49.5028 101.232 48.9748 101.616C48.4468 102 47.6468 102.192 46.5748 102.192ZM56.4678 102V90.096H59.4438V91.44H59.8758C60.0518 90.96 60.3398 90.608 60.7398 90.384C61.1558 90.16 61.6358 90.048 62.1798 90.048H63.6198V92.736H62.1318C61.3638 92.736 60.7318 92.944 60.2358 93.36C59.7398 93.76 59.4918 94.384 59.4918 95.232V102H56.4678ZM71.3572 102V90.096H74.3332V91.656H74.7652C74.9572 91.24 75.3172 90.848 75.8452 90.48C76.3732 90.096 77.1732 89.904 78.2452 89.904C79.1732 89.904 79.9812 90.12 80.6692 90.552C81.3732 90.968 81.9172 91.552 82.3012 92.304C82.6852 93.04 82.8772 93.904 82.8772 94.896V102H79.8532V95.136C79.8532 94.24 79.6292 93.568 79.1812 93.12C78.7492 92.672 78.1252 92.448 77.3092 92.448C76.3812 92.448 75.6612 92.76 75.1492 93.384C74.6372 93.992 74.3812 94.848 74.3812 95.952V102H71.3572ZM90.1348 102.192C89.2068 102.192 88.3908 101.984 87.6868 101.568C86.9988 101.136 86.4628 100.544 86.0788 99.792C85.6948 99.04 85.5028 98.176 85.5028 97.2V90.096H88.5268V96.96C88.5268 97.856 88.7428 98.528 89.1748 98.976C89.6228 99.424 90.2548 99.648 91.0708 99.648C91.9988 99.648 92.7188 99.344 93.2308 98.736C93.7428 98.112 93.9988 97.248 93.9988 96.144V90.096H97.0228V102H94.0468V100.44H93.6148C93.4228 100.84 93.0628 101.232 92.5348 101.616C92.0068 102 91.2068 102.192 90.1348 102.192ZM100.028 102V90.096H103.004V91.392H103.436C103.644 90.992 103.988 90.648 104.468 90.36C104.948 90.056 105.58 89.904 106.364 89.904C107.212 89.904 107.892 90.072 108.404 90.408C108.916 90.728 109.308 91.152 109.58 91.68H110.012C110.284 91.168 110.668 90.744 111.164 90.408C111.66 90.072 112.364 89.904 113.276 89.904C114.012 89.904 114.676 90.064 115.268 90.384C115.876 90.688 116.356 91.16 116.708 91.8C117.076 92.424 117.26 93.216 117.26 94.176V102H114.236V94.392C114.236 93.736 114.068 93.248 113.732 92.928C113.396 92.592 112.924 92.424 112.316 92.424C111.628 92.424 111.092 92.648 110.708 93.096C110.34 93.528 110.156 94.152 110.156 94.968V102H107.132V94.392C107.132 93.736 106.964 93.248 106.628 92.928C106.292 92.592 105.82 92.424 105.212 92.424C104.524 92.424 103.988 92.648 103.604 93.096C103.236 93.528 103.052 94.152 103.052 94.968V102H100.028ZM127.304 102.336C126.232 102.336 125.408 102.152 124.832 101.784C124.256 101.416 123.832 101.008 123.56 100.56H123.128V102H120.152V85.2H123.176V91.464H123.608C123.784 91.176 124.016 90.904 124.304 90.648C124.608 90.392 125 90.184 125.48 90.024C125.976 89.848 126.584 89.76 127.304 89.76C128.264 89.76 129.152 90 129.968 90.48C130.784 90.944 131.44 91.632 131.936 92.544C132.432 93.456 132.68 94.56 132.68 95.856V96.24C132.68 97.536 132.432 98.64 131.936 99.552C131.44 100.464 130.784 101.16 129.968 101.64C129.152 102.104 128.264 102.336 127.304 102.336ZM126.392 99.696C127.32 99.696 128.096 99.4 128.72 98.808C129.344 98.2 129.656 97.32 129.656 96.168V95.928C129.656 94.776 129.344 93.904 128.72 93.312C128.112 92.704 127.336 92.4 126.392 92.4C125.464 92.4 124.688 92.704 124.064 93.312C123.44 93.904 123.128 94.776 123.128 95.928V96.168C123.128 97.32 123.44 98.2 124.064 98.808C124.688 99.4 125.464 99.696 126.392 99.696ZM140.521 102.336C139.337 102.336 138.289 102.088 137.377 101.592C136.481 101.08 135.777 100.368 135.265 99.456C134.769 98.528 134.521 97.44 134.521 96.192V95.904C134.521 94.656 134.769 93.576 135.265 92.664C135.761 91.736 136.457 91.024 137.353 90.528C138.249 90.016 139.289 89.76 140.473 89.76C141.641 89.76 142.657 90.024 143.521 90.552C144.385 91.064 145.057 91.784 145.537 92.712C146.017 93.624 146.257 94.688 146.257 95.904V96.936H137.593C137.625 97.752 137.929 98.416 138.505 98.928C139.081 99.44 139.785 99.696 140.617 99.696C141.465 99.696 142.089 99.512 142.489 99.144C142.889 98.776 143.193 98.368 143.401 97.92L145.873 99.216C145.649 99.632 145.321 100.088 144.889 100.584C144.473 101.064 143.913 101.48 143.209 101.832C142.505 102.168 141.609 102.336 140.521 102.336ZM137.617 94.68H143.185C143.121 93.992 142.841 93.44 142.345 93.024C141.865 92.608 141.233 92.4 140.449 92.4C139.633 92.4 138.985 92.608 138.505 93.024C138.025 93.44 137.729 93.992 137.617 94.68ZM148.588 102V90.096H151.564V91.44H151.996C152.172 90.96 152.46 90.608 152.86 90.384C153.276 90.16 153.756 90.048 154.3 90.048H155.74V92.736H154.252C153.484 92.736 152.852 92.944 152.356 93.36C151.86 93.76 151.612 94.384 151.612 95.232V102H148.588ZM162.407 102.336C160.855 102.336 159.583 102 158.591 101.328C157.599 100.656 156.999 99.696 156.791 98.448L159.575 97.728C159.687 98.288 159.871 98.728 160.127 99.048C160.399 99.368 160.727 99.6 161.111 99.744C161.511 99.872 161.943 99.936 162.407 99.936C163.111 99.936 163.631 99.816 163.967 99.576C164.303 99.32 164.471 99.008 164.471 98.64C164.471 98.272 164.311 97.992 163.991 97.8C163.671 97.592 163.159 97.424 162.455 97.296L161.783 97.176C160.951 97.016 160.191 96.8 159.503 96.528C158.815 96.24 158.263 95.848 157.847 95.352C157.431 94.856 157.223 94.216 157.223 93.432C157.223 92.248 157.655 91.344 158.519 90.72C159.383 90.08 160.519 89.76 161.927 89.76C163.255 89.76 164.359 90.056 165.239 90.648C166.119 91.24 166.695 92.016 166.967 92.976L164.159 93.84C164.031 93.232 163.767 92.8 163.367 92.544C162.983 92.288 162.503 92.16 161.927 92.16C161.351 92.16 160.911 92.264 160.607 92.472C160.303 92.664 160.151 92.936 160.151 93.288C160.151 93.672 160.311 93.96 160.631 94.152C160.951 94.328 161.383 94.464 161.927 94.56L162.599 94.68C163.495 94.84 164.303 95.056 165.023 95.328C165.759 95.584 166.335 95.96 166.751 96.456C167.183 96.936 167.399 97.592 167.399 98.424C167.399 99.672 166.943 100.64 166.031 101.328C165.135 102 163.927 102.336 162.407 102.336Z" fill="white"/>
<path d="M42.1172 134.609C41.4969 133.984 39.9945 133.072 39.2656 132.705C38.3164 132.227 38.2383 132.188 37.4922 132.742C36.9945 133.112 36.6637 133.442 36.0812 133.318C35.4988 133.194 34.2332 132.493 33.125 131.389C32.0168 130.284 31.2758 128.982 31.1512 128.401C31.0266 127.821 31.3625 127.494 31.7289 126.995C32.2453 126.292 32.2062 126.175 31.7648 125.225C31.4207 124.487 30.482 122.999 29.8547 122.382C29.1836 121.719 29.1836 121.836 28.7512 122.016C28.3991 122.164 28.0614 122.344 27.7422 122.554C27.1172 122.969 26.7703 123.314 26.5277 123.832C26.2852 124.35 26.1762 125.566 27.4289 127.841C28.6816 130.117 29.5605 131.281 31.3797 133.095C33.1988 134.909 34.5977 135.884 36.6426 137.031C39.1723 138.448 40.1426 138.172 40.6625 137.93C41.1824 137.688 41.5289 137.344 41.9449 136.719C42.1552 136.4 42.3357 136.063 42.484 135.711C42.6641 135.28 42.7812 135.28 42.1172 134.609Z" stroke="#BDBCBC" stroke-width="1.5" stroke-miterlimit="10"/>
<path d="M59.5 136.159C58.6439 136.159 57.9148 135.926 57.3125 135.46C56.7102 134.991 56.25 134.311 55.9318 133.42C55.6136 132.527 55.4545 131.447 55.4545 130.182C55.4545 128.924 55.6136 127.85 55.9318 126.96C56.2538 126.066 56.7159 125.384 57.3182 124.915C57.9242 124.441 58.6515 124.205 59.5 124.205C60.3485 124.205 61.0739 124.441 61.6761 124.915C62.2822 125.384 62.7443 126.066 63.0625 126.96C63.3845 127.85 63.5455 128.924 63.5455 130.182C63.5455 131.447 63.3864 132.527 63.0682 133.42C62.75 134.311 62.2898 134.991 61.6875 135.46C61.0852 135.926 60.3561 136.159 59.5 136.159ZM59.5 134.909C60.3485 134.909 61.0076 134.5 61.4773 133.682C61.947 132.864 62.1818 131.697 62.1818 130.182C62.1818 129.174 62.0739 128.316 61.858 127.608C61.6458 126.9 61.339 126.36 60.9375 125.989C60.5398 125.617 60.0606 125.432 59.5 125.432C58.6591 125.432 58.0019 125.847 57.5284 126.676C57.0549 127.502 56.8182 128.67 56.8182 130.182C56.8182 131.189 56.9242 132.045 57.1364 132.75C57.3485 133.455 57.6534 133.991 58.0511 134.358C58.4527 134.725 58.9356 134.909 59.5 134.909ZM65.7557 136L70.9602 125.705V125.614H64.9602V124.364H72.4148V125.682L67.233 136H65.7557ZM78.0781 136.159C77.2221 136.159 76.4929 135.926 75.8906 135.46C75.2884 134.991 74.8281 134.311 74.5099 133.42C74.1918 132.527 74.0327 131.447 74.0327 130.182C74.0327 128.924 74.1918 127.85 74.5099 126.96C74.8319 126.066 75.294 125.384 75.8963 124.915C76.5024 124.441 77.2296 124.205 78.0781 124.205C78.9266 124.205 79.652 124.441 80.2543 124.915C80.8603 125.384 81.3224 126.066 81.6406 126.96C81.9626 127.85 82.1236 128.924 82.1236 130.182C82.1236 131.447 81.9645 132.527 81.6463 133.42C81.3281 134.311 80.8679 134.991 80.2656 135.46C79.6634 135.926 78.9342 136.159 78.0781 136.159ZM78.0781 134.909C78.9266 134.909 79.5857 134.5 80.0554 133.682C80.5251 132.864 80.7599 131.697 80.7599 130.182C80.7599 129.174 80.652 128.316 80.4361 127.608C80.224 126.9 79.9171 126.36 79.5156 125.989C79.1179 125.617 78.6387 125.432 78.0781 125.432C77.2372 125.432 76.58 125.847 76.1065 126.676C75.633 127.502 75.3963 128.67 75.3963 130.182C75.3963 131.189 75.5024 132.045 75.7145 132.75C75.9266 133.455 76.2315 133.991 76.6293 134.358C77.0308 134.725 77.5137 134.909 78.0781 134.909ZM84.1009 133.091H85.5327C85.5743 133.485 85.7088 133.818 85.9361 134.091C86.1671 134.36 86.4664 134.564 86.8338 134.705C87.2012 134.841 87.6084 134.909 88.0554 134.909C88.5402 134.909 88.9759 134.828 89.3622 134.665C89.7486 134.502 90.0554 134.259 90.2827 133.938C90.5099 133.612 90.6236 133.208 90.6236 132.727C90.6236 132.307 90.5251 131.917 90.3281 131.557C90.1312 131.193 89.8149 130.9 89.3793 130.676C88.9437 130.453 88.366 130.341 87.6463 130.341H86.7145V129.205L89.6236 125.705V125.614H84.669V124.364H91.5554V125.386L88.4418 129.159V129.25C88.9418 129.273 89.4077 129.375 89.8395 129.557C90.2751 129.739 90.6539 129.985 90.9759 130.295C91.3016 130.606 91.5554 130.968 91.7372 131.381C91.919 131.794 92.0099 132.242 92.0099 132.727C92.0099 133.39 91.8395 133.981 91.4986 134.5C91.1615 135.015 90.6937 135.42 90.0952 135.716C89.5005 136.011 88.813 136.159 88.0327 136.159C87.3433 136.159 86.7088 136.038 86.1293 135.795C85.5497 135.553 85.0781 135.203 84.7145 134.744C84.3509 134.286 84.1463 133.735 84.1009 133.091ZM98.0568 136.159C97.2765 136.159 96.5871 136.021 95.9886 135.744C95.3939 135.464 94.9299 135.08 94.5966 134.591C94.2633 134.098 94.0985 133.538 94.1023 132.909C94.0985 132.417 94.1951 131.962 94.392 131.545C94.589 131.125 94.858 130.775 95.1989 130.494C95.5436 130.21 95.928 130.03 96.3523 129.955V129.886C95.7955 129.742 95.3523 129.43 95.0227 128.949C94.6932 128.464 94.5303 127.913 94.5341 127.295C94.5303 126.705 94.6799 126.176 94.983 125.71C95.286 125.244 95.7027 124.877 96.233 124.608C96.767 124.339 97.375 124.205 98.0568 124.205C98.7311 124.205 99.3333 124.339 99.8636 124.608C100.394 124.877 100.811 125.244 101.114 125.71C101.42 126.176 101.576 126.705 101.58 127.295C101.576 127.913 101.407 128.464 101.074 128.949C100.744 129.43 100.307 129.742 99.7614 129.886V129.955C100.182 130.03 100.561 130.21 100.898 130.494C101.235 130.775 101.504 131.125 101.705 131.545C101.905 131.962 102.008 132.417 102.011 132.909C102.008 133.538 101.837 134.098 101.5 134.591C101.167 135.08 100.703 135.464 100.108 135.744C99.517 136.021 98.8333 136.159 98.0568 136.159ZM98.0568 134.909C98.5833 134.909 99.0379 134.824 99.4205 134.653C99.803 134.483 100.098 134.242 100.307 133.932C100.515 133.621 100.621 133.258 100.625 132.841C100.621 132.402 100.508 132.013 100.284 131.676C100.061 131.339 99.7557 131.074 99.3693 130.881C98.9867 130.687 98.5492 130.591 98.0568 130.591C97.5606 130.591 97.1174 130.687 96.7273 130.881C96.3409 131.074 96.036 131.339 95.8125 131.676C95.5928 132.013 95.4848 132.402 95.4886 132.841C95.4848 133.258 95.5852 133.621 95.7898 133.932C95.9981 134.242 96.2955 134.483 96.6818 134.653C97.0682 134.824 97.5265 134.909 98.0568 134.909ZM98.0568 129.386C98.4735 129.386 98.8428 129.303 99.1648 129.136C99.4905 128.97 99.7462 128.737 99.9318 128.438C100.117 128.138 100.212 127.788 100.216 127.386C100.212 126.992 100.119 126.65 99.9375 126.358C99.7557 126.062 99.5038 125.835 99.1818 125.676C98.8598 125.513 98.4848 125.432 98.0568 125.432C97.6212 125.432 97.2405 125.513 96.9148 125.676C96.589 125.835 96.3371 126.062 96.1591 126.358C95.9811 126.65 95.8939 126.992 95.8977 127.386C95.8939 127.788 95.983 128.138 96.1648 128.438C96.3504 128.737 96.6061 128.97 96.9318 129.136C97.2576 129.303 97.6326 129.386 98.0568 129.386ZM104.007 133.091H105.439C105.481 133.485 105.615 133.818 105.842 134.091C106.073 134.36 106.373 134.564 106.74 134.705C107.107 134.841 107.515 134.909 107.962 134.909C108.446 134.909 108.882 134.828 109.268 134.665C109.655 134.502 109.962 134.259 110.189 133.938C110.416 133.612 110.53 133.208 110.53 132.727C110.53 132.307 110.431 131.917 110.234 131.557C110.037 131.193 109.721 130.9 109.286 130.676C108.85 130.453 108.272 130.341 107.553 130.341H106.621V129.205L109.53 125.705V125.614H104.575V124.364H111.462V125.386L108.348 129.159V129.25C108.848 129.273 109.314 129.375 109.746 129.557C110.181 129.739 110.56 129.985 110.882 130.295C111.208 130.606 111.462 130.968 111.643 131.381C111.825 131.794 111.916 132.242 111.916 132.727C111.916 133.39 111.746 133.981 111.405 134.5C111.068 135.015 110.6 135.42 110.001 135.716C109.407 136.011 108.719 136.159 107.939 136.159C107.25 136.159 106.615 136.038 106.036 135.795C105.456 135.553 104.984 135.203 104.621 134.744C104.257 134.286 104.053 133.735 104.007 133.091ZM114.054 133.091H115.486C115.527 133.485 115.662 133.818 115.889 134.091C116.12 134.36 116.42 134.564 116.787 134.705C117.154 134.841 117.562 134.909 118.009 134.909C118.493 134.909 118.929 134.828 119.315 134.665C119.702 134.502 120.009 134.259 120.236 133.938C120.463 133.612 120.577 133.208 120.577 132.727C120.577 132.307 120.478 131.917 120.281 131.557C120.084 131.193 119.768 130.9 119.332 130.676C118.897 130.453 118.319 130.341 117.599 130.341H116.668V129.205L119.577 125.705V125.614H114.622V124.364H121.509V125.386L118.395 129.159V129.25C118.895 129.273 119.361 129.375 119.793 129.557C120.228 129.739 120.607 129.985 120.929 130.295C121.255 130.606 121.509 130.968 121.69 131.381C121.872 131.794 121.963 132.242 121.963 132.727C121.963 133.39 121.793 133.981 121.452 134.5C121.115 135.015 120.647 135.42 120.048 135.716C119.454 136.011 118.766 136.159 117.986 136.159C117.296 136.159 116.662 136.038 116.082 135.795C115.503 135.553 115.031 135.203 114.668 134.744C114.304 134.286 114.099 133.735 114.054 133.091ZM128.374 124.364V136H126.964V125.841H126.896L124.055 127.727V126.295L126.964 124.364H128.374ZM131.447 133.614V132.455L136.561 124.364H137.402V126.159H136.834L132.97 132.273V132.364H139.857V133.614H131.447ZM136.925 136V133.261V132.722V124.364H138.266V136H136.925ZM145.781 136.159C144.925 136.159 144.196 135.926 143.594 135.46C142.991 134.991 142.531 134.311 142.213 133.42C141.895 132.527 141.736 131.447 141.736 130.182C141.736 128.924 141.895 127.85 142.213 126.96C142.535 126.066 142.997 125.384 143.599 124.915C144.205 124.441 144.933 124.205 145.781 124.205C146.63 124.205 147.355 124.441 147.957 124.915C148.563 125.384 149.026 126.066 149.344 126.96C149.666 127.85 149.827 128.924 149.827 130.182C149.827 131.447 149.668 132.527 149.349 133.42C149.031 134.311 148.571 134.991 147.969 135.46C147.366 135.926 146.637 136.159 145.781 136.159ZM145.781 134.909C146.63 134.909 147.289 134.5 147.759 133.682C148.228 132.864 148.463 131.697 148.463 130.182C148.463 129.174 148.355 128.316 148.139 127.608C147.927 126.9 147.62 126.36 147.219 125.989C146.821 125.617 146.342 125.432 145.781 125.432C144.94 125.432 144.283 125.847 143.81 126.676C143.336 127.502 143.099 128.67 143.099 130.182C143.099 131.189 143.205 132.045 143.418 132.75C143.63 133.455 143.935 133.991 144.332 134.358C144.734 134.725 145.217 134.909 145.781 134.909ZM155.781 136.159C154.925 136.159 154.196 135.926 153.594 135.46C152.991 134.991 152.531 134.311 152.213 133.42C151.895 132.527 151.736 131.447 151.736 130.182C151.736 128.924 151.895 127.85 152.213 126.96C152.535 126.066 152.997 125.384 153.599 124.915C154.205 124.441 154.933 124.205 155.781 124.205C156.63 124.205 157.355 124.441 157.957 124.915C158.563 125.384 159.026 126.066 159.344 126.96C159.666 127.85 159.827 128.924 159.827 130.182C159.827 131.447 159.668 132.527 159.349 133.42C159.031 134.311 158.571 134.991 157.969 135.46C157.366 135.926 156.637 136.159 155.781 136.159ZM155.781 134.909C156.63 134.909 157.289 134.5 157.759 133.682C158.228 132.864 158.463 131.697 158.463 130.182C158.463 129.174 158.355 128.316 158.139 127.608C157.927 126.9 157.62 126.36 157.219 125.989C156.821 125.617 156.342 125.432 155.781 125.432C154.94 125.432 154.283 125.847 153.81 126.676C153.336 127.502 153.099 128.67 153.099 130.182C153.099 131.189 153.205 132.045 153.418 132.75C153.63 133.455 153.935 133.991 154.332 134.358C154.734 134.725 155.217 134.909 155.781 134.909Z" fill="#BDBCBC"/>
<path d="M32.612 186.336C30.5 186.336 28.82 185.76 27.572 184.608C26.324 183.44 25.7 181.776 25.7 179.616V175.584C25.7 173.424 26.324 171.768 27.572 170.616C28.82 169.448 30.5 168.864 32.612 168.864C34.724 168.864 36.404 169.448 37.652 170.616C38.9 171.768 39.524 173.424 39.524 175.584V179.616C39.524 181.776 38.9 183.44 37.652 184.608C36.404 185.76 34.724 186.336 32.612 186.336ZM32.612 183.504C33.796 183.504 34.716 183.16 35.372 182.472C36.028 181.784 36.356 180.864 36.356 179.712V175.488C36.356 174.336 36.028 173.416 35.372 172.728C34.716 172.04 33.796 171.696 32.612 171.696C31.444 171.696 30.524 172.04 29.852 172.728C29.196 173.416 28.868 174.336 28.868 175.488V179.712C28.868 180.864 29.196 181.784 29.852 182.472C30.524 183.16 31.444 183.504 32.612 183.504ZM46.5748 186.192C45.6468 186.192 44.8308 185.984 44.1268 185.568C43.4388 185.136 42.9028 184.544 42.5188 183.792C42.1348 183.04 41.9428 182.176 41.9428 181.2V174.096H44.9668V180.96C44.9668 181.856 45.1828 182.528 45.6148 182.976C46.0628 183.424 46.6948 183.648 47.5108 183.648C48.4388 183.648 49.1588 183.344 49.6708 182.736C50.1828 182.112 50.4388 181.248 50.4388 180.144V174.096H53.4628V186H50.4868V184.44H50.0548C49.8628 184.84 49.5028 185.232 48.9748 185.616C48.4468 186 47.6468 186.192 46.5748 186.192ZM56.4678 186V174.096H59.4438V175.44H59.8758C60.0518 174.96 60.3398 174.608 60.7398 174.384C61.1558 174.16 61.6358 174.048 62.1798 174.048H63.6198V176.736H62.1318C61.3638 176.736 60.7318 176.944 60.2358 177.36C59.7398 177.76 59.4918 178.384 59.4918 179.232V186H56.4678ZM69.8279 186L74.2439 169.2H79.7639L84.1799 186H80.9159L80.0039 182.304H74.0039L73.0919 186H69.8279ZM74.7479 179.376H79.2599L77.2199 171.192H76.7879L74.7479 179.376ZM90.7269 186.336C89.7829 186.336 88.8949 186.104 88.0629 185.64C87.2469 185.16 86.5909 184.464 86.0949 183.552C85.5989 182.64 85.3509 181.536 85.3509 180.24V179.856C85.3509 178.56 85.5989 177.456 86.0949 176.544C86.5909 175.632 87.2469 174.944 88.0629 174.48C88.8789 174 89.7669 173.76 90.7269 173.76C91.4469 173.76 92.0469 173.848 92.5269 174.024C93.0229 174.184 93.4229 174.392 93.7269 174.648C94.0309 174.904 94.2629 175.176 94.4229 175.464H94.8549V169.2H97.8789V186H94.9029V184.56H94.4709C94.1989 185.008 93.7749 185.416 93.1989 185.784C92.6389 186.152 91.8149 186.336 90.7269 186.336ZM91.6389 183.696C92.5669 183.696 93.3429 183.4 93.9669 182.808C94.5909 182.2 94.9029 181.32 94.9029 180.168V179.928C94.9029 178.776 94.5909 177.904 93.9669 177.312C93.3589 176.704 92.5829 176.4 91.6389 176.4C90.7109 176.4 89.9349 176.704 89.3109 177.312C88.6869 177.904 88.3749 178.776 88.3749 179.928V180.168C88.3749 181.32 88.6869 182.2 89.3109 182.808C89.9349 183.4 90.7109 183.696 91.6389 183.696ZM105.672 186.336C104.728 186.336 103.84 186.104 103.008 185.64C102.192 185.16 101.536 184.464 101.04 183.552C100.544 182.64 100.296 181.536 100.296 180.24V179.856C100.296 178.56 100.544 177.456 101.04 176.544C101.536 175.632 102.192 174.944 103.008 174.48C103.824 174 104.712 173.76 105.672 173.76C106.392 173.76 106.992 173.848 107.472 174.024C107.968 174.184 108.368 174.392 108.672 174.648C108.976 174.904 109.208 175.176 109.368 175.464H109.8V169.2H112.824V186H109.848V184.56H109.416C109.144 185.008 108.72 185.416 108.144 185.784C107.584 186.152 106.76 186.336 105.672 186.336ZM106.584 183.696C107.512 183.696 108.288 183.4 108.912 182.808C109.536 182.2 109.848 181.32 109.848 180.168V179.928C109.848 178.776 109.536 177.904 108.912 177.312C108.304 176.704 107.528 176.4 106.584 176.4C105.656 176.4 104.88 176.704 104.256 177.312C103.632 177.904 103.32 178.776 103.32 179.928V180.168C103.32 181.32 103.632 182.2 104.256 182.808C104.88 183.4 105.656 183.696 106.584 183.696ZM115.816 186V174.096H118.792V175.44H119.224C119.4 174.96 119.688 174.608 120.088 174.384C120.504 174.16 120.984 174.048 121.528 174.048H122.968V176.736H121.48C120.712 176.736 120.08 176.944 119.584 177.36C119.088 177.76 118.84 178.384 118.84 179.232V186H115.816ZM129.974 186.336C128.79 186.336 127.742 186.088 126.83 185.592C125.934 185.08 125.23 184.368 124.718 183.456C124.222 182.528 123.974 181.44 123.974 180.192V179.904C123.974 178.656 124.222 177.576 124.718 176.664C125.214 175.736 125.91 175.024 126.806 174.528C127.702 174.016 128.742 173.76 129.926 173.76C131.094 173.76 132.11 174.024 132.974 174.552C133.838 175.064 134.51 175.784 134.99 176.712C135.47 177.624 135.71 178.688 135.71 179.904V180.936H127.046C127.078 181.752 127.382 182.416 127.958 182.928C128.534 183.44 129.238 183.696 130.07 183.696C130.918 183.696 131.542 183.512 131.942 183.144C132.342 182.776 132.646 182.368 132.854 181.92L135.326 183.216C135.102 183.632 134.774 184.088 134.342 184.584C133.926 185.064 133.366 185.48 132.662 185.832C131.958 186.168 131.062 186.336 129.974 186.336ZM127.07 178.68H132.638C132.574 177.992 132.294 177.44 131.798 177.024C131.318 176.608 130.686 176.4 129.902 176.4C129.086 176.4 128.438 176.608 127.958 177.024C127.478 177.44 127.182 177.992 127.07 178.68ZM142.986 186.336C141.434 186.336 140.162 186 139.17 185.328C138.178 184.656 137.578 183.696 137.37 182.448L140.154 181.728C140.266 182.288 140.45 182.728 140.706 183.048C140.978 183.368 141.306 183.6 141.69 183.744C142.09 183.872 142.522 183.936 142.986 183.936C143.69 183.936 144.21 183.816 144.546 183.576C144.882 183.32 145.05 183.008 145.05 182.64C145.05 182.272 144.89 181.992 144.57 181.8C144.25 181.592 143.738 181.424 143.034 181.296L142.362 181.176C141.53 181.016 140.77 180.8 140.082 180.528C139.394 180.24 138.842 179.848 138.426 179.352C138.01 178.856 137.802 178.216 137.802 177.432C137.802 176.248 138.234 175.344 139.098 174.72C139.962 174.08 141.098 173.76 142.506 173.76C143.834 173.76 144.938 174.056 145.818 174.648C146.698 175.24 147.274 176.016 147.546 176.976L144.738 177.84C144.61 177.232 144.346 176.8 143.946 176.544C143.562 176.288 143.082 176.16 142.506 176.16C141.93 176.16 141.49 176.264 141.186 176.472C140.882 176.664 140.73 176.936 140.73 177.288C140.73 177.672 140.89 177.96 141.21 178.152C141.53 178.328 141.962 178.464 142.506 178.56L143.178 178.68C144.074 178.84 144.882 179.056 145.602 179.328C146.338 179.584 146.914 179.96 147.33 180.456C147.762 180.936 147.978 181.592 147.978 182.424C147.978 183.672 147.522 184.64 146.61 185.328C145.714 186 144.506 186.336 142.986 186.336ZM155.212 186.336C153.66 186.336 152.388 186 151.396 185.328C150.404 184.656 149.804 183.696 149.596 182.448L152.38 181.728C152.492 182.288 152.676 182.728 152.932 183.048C153.204 183.368 153.532 183.6 153.916 183.744C154.316 183.872 154.748 183.936 155.212 183.936C155.916 183.936 156.436 183.816 156.772 183.576C157.108 183.32 157.276 183.008 157.276 182.64C157.276 182.272 157.116 181.992 156.796 181.8C156.476 181.592 155.964 181.424 155.26 181.296L154.588 181.176C153.756 181.016 152.996 180.8 152.308 180.528C151.62 180.24 151.068 179.848 150.652 179.352C150.236 178.856 150.028 178.216 150.028 177.432C150.028 176.248 150.46 175.344 151.324 174.72C152.188 174.08 153.324 173.76 154.732 173.76C156.06 173.76 157.164 174.056 158.044 174.648C158.924 175.24 159.5 176.016 159.772 176.976L156.964 177.84C156.836 177.232 156.572 176.8 156.172 176.544C155.788 176.288 155.308 176.16 154.732 176.16C154.156 176.16 153.716 176.264 153.412 176.472C153.108 176.664 152.956 176.936 152.956 177.288C152.956 177.672 153.116 177.96 153.436 178.152C153.756 178.328 154.188 178.464 154.732 178.56L155.404 178.68C156.3 178.84 157.108 179.056 157.828 179.328C158.564 179.584 159.14 179.96 159.556 180.456C159.988 180.936 160.204 181.592 160.204 182.424C160.204 183.672 159.748 184.64 158.836 185.328C157.94 186 156.732 186.336 155.212 186.336Z" fill="white"/>
<path d="M34.5 209.417C35.0525 209.417 35.5824 209.636 35.9731 210.027C36.3638 210.418 36.5833 210.948 36.5833 211.5C36.5833 211.774 36.5294 212.045 36.4247 212.297C36.3201 212.55 36.1666 212.78 35.9731 212.973C35.7797 213.167 35.55 213.32 35.2973 213.425C35.0445 213.53 34.7736 213.583 34.5 213.583C33.9475 213.583 33.4176 213.364 33.0269 212.973C32.6362 212.583 32.4167 212.053 32.4167 211.5C32.4167 210.948 32.6362 210.418 33.0269 210.027C33.4176 209.636 33.9475 209.417 34.5 209.417ZM34.5 205.667C36.0471 205.667 37.5308 206.281 38.6248 207.375C39.7188 208.469 40.3333 209.953 40.3333 211.5C40.3333 215.875 34.5 222.333 34.5 222.333C34.5 222.333 28.6667 215.875 28.6667 211.5C28.6667 209.953 29.2812 208.469 30.3752 207.375C31.4692 206.281 32.9529 205.667 34.5 205.667ZM34.5 207.333C33.3949 207.333 32.3351 207.772 31.5537 208.554C30.7723 209.335 30.3333 210.395 30.3333 211.5C30.3333 212.333 30.3333 214 34.5 219.592C38.6667 214 38.6667 212.333 38.6667 211.5C38.6667 210.395 38.2277 209.335 37.4463 208.554C36.6649 207.772 35.6051 207.333 34.5 207.333Z" fill="#BDBCBC"/>
<path d="M65.1364 208.364V220H63.7727L57.4318 210.864H57.3182V220H55.9091V208.364H57.2727L63.6364 217.523H63.75V208.364H65.1364ZM77.7741 214.182C77.7741 215.409 77.5526 216.47 77.1094 217.364C76.6662 218.258 76.0582 218.947 75.2855 219.432C74.5128 219.917 73.6302 220.159 72.6378 220.159C71.6454 220.159 70.7628 219.917 69.9901 219.432C69.2173 218.947 68.6094 218.258 68.1662 217.364C67.723 216.47 67.5014 215.409 67.5014 214.182C67.5014 212.955 67.723 211.894 68.1662 211C68.6094 210.106 69.2173 209.417 69.9901 208.932C70.7628 208.447 71.6454 208.205 72.6378 208.205C73.6302 208.205 74.5128 208.447 75.2855 208.932C76.0582 209.417 76.6662 210.106 77.1094 211C77.5526 211.894 77.7741 212.955 77.7741 214.182ZM76.4105 214.182C76.4105 213.174 76.242 212.324 75.9048 211.631C75.5715 210.938 75.1188 210.413 74.5469 210.057C73.9787 209.701 73.3423 209.523 72.6378 209.523C71.9332 209.523 71.295 209.701 70.723 210.057C70.1548 210.413 69.7022 210.938 69.3651 211.631C69.0317 212.324 68.8651 213.174 68.8651 214.182C68.8651 215.189 69.0317 216.04 69.3651 216.733C69.7022 217.426 70.1548 217.951 70.723 218.307C71.295 218.663 71.9332 218.841 72.6378 218.841C73.3423 218.841 73.9787 218.663 74.5469 218.307C75.1188 217.951 75.5715 217.426 75.9048 216.733C76.242 216.04 76.4105 215.189 76.4105 214.182ZM80.2045 220.091C79.9242 220.091 79.6837 219.991 79.483 219.79C79.2822 219.589 79.1818 219.348 79.1818 219.068C79.1818 218.788 79.2822 218.547 79.483 218.347C79.6837 218.146 79.9242 218.045 80.2045 218.045C80.4848 218.045 80.7254 218.146 80.9261 218.347C81.1269 218.547 81.2273 218.788 81.2273 219.068C81.2273 219.254 81.1799 219.424 81.0852 219.58C80.9943 219.735 80.8712 219.86 80.7159 219.955C80.5644 220.045 80.3939 220.091 80.2045 220.091ZM88.1108 220V218.977L91.9517 214.773C92.4025 214.28 92.7737 213.852 93.0653 213.489C93.357 213.121 93.5729 212.777 93.7131 212.455C93.857 212.129 93.929 211.788 93.929 211.432C93.929 211.023 93.8305 210.669 93.6335 210.369C93.4403 210.07 93.1752 209.839 92.8381 209.676C92.5009 209.513 92.1222 209.432 91.7017 209.432C91.2547 209.432 90.8646 209.525 90.5312 209.71C90.2017 209.892 89.946 210.148 89.7642 210.477C89.5862 210.807 89.4972 211.193 89.4972 211.636H88.1562C88.1562 210.955 88.3134 210.356 88.6278 209.841C88.9422 209.326 89.3703 208.924 89.9119 208.636C90.4574 208.348 91.0691 208.205 91.7472 208.205C92.429 208.205 93.0331 208.348 93.5597 208.636C94.0862 208.924 94.4991 209.312 94.7983 209.801C95.0975 210.29 95.2472 210.833 95.2472 211.432C95.2472 211.86 95.1695 212.278 95.0142 212.688C94.8627 213.093 94.5975 213.545 94.2188 214.045C93.8438 214.542 93.3229 215.148 92.6562 215.864L90.0426 218.659V218.75H95.4517V220H88.1108ZM97.7983 220V218.977L101.639 214.773C102.09 214.28 102.461 213.852 102.753 213.489C103.045 213.121 103.26 212.777 103.401 212.455C103.545 212.129 103.616 211.788 103.616 211.432C103.616 211.023 103.518 210.669 103.321 210.369C103.128 210.07 102.863 209.839 102.526 209.676C102.188 209.513 101.81 209.432 101.389 209.432C100.942 209.432 100.552 209.525 100.219 209.71C99.8892 209.892 99.6335 210.148 99.4517 210.477C99.2737 210.807 99.1847 211.193 99.1847 211.636H97.8438C97.8438 210.955 98.0009 210.356 98.3153 209.841C98.6297 209.326 99.0578 208.924 99.5994 208.636C100.145 208.348 100.757 208.205 101.435 208.205C102.116 208.205 102.721 208.348 103.247 208.636C103.774 208.924 104.187 209.312 104.486 209.801C104.785 210.29 104.935 210.833 104.935 211.432C104.935 211.86 104.857 212.278 104.702 212.688C104.55 213.093 104.285 213.545 103.906 214.045C103.531 214.542 103.01 215.148 102.344 215.864L99.7301 218.659V218.75H105.139V220H97.7983ZM112.668 220H111.19L115.463 208.364H116.918L121.19 220H119.713L116.236 210.205H116.145L112.668 220ZM113.213 215.455H119.168V216.705H113.213V215.455ZM123.003 220V208.364H127.071C127.882 208.364 128.55 208.504 129.077 208.784C129.603 209.061 129.995 209.434 130.253 209.903C130.51 210.369 130.639 210.886 130.639 211.455C130.639 211.955 130.55 212.367 130.372 212.693C130.198 213.019 129.967 213.277 129.679 213.466C129.395 213.655 129.086 213.795 128.753 213.886V214C129.109 214.023 129.467 214.148 129.827 214.375C130.187 214.602 130.488 214.928 130.73 215.352C130.973 215.777 131.094 216.295 131.094 216.909C131.094 217.492 130.961 218.017 130.696 218.483C130.431 218.949 130.012 219.318 129.44 219.591C128.868 219.864 128.124 220 127.207 220H123.003ZM124.412 218.75H127.207C128.128 218.75 128.781 218.572 129.168 218.216C129.558 217.856 129.753 217.42 129.753 216.909C129.753 216.515 129.652 216.152 129.452 215.818C129.251 215.481 128.965 215.212 128.594 215.011C128.223 214.807 127.783 214.705 127.276 214.705H124.412V218.75ZM124.412 213.477H127.026C127.45 213.477 127.832 213.394 128.173 213.227C128.518 213.061 128.791 212.826 128.991 212.523C129.196 212.22 129.298 211.864 129.298 211.455C129.298 210.943 129.12 210.509 128.764 210.153C128.408 209.794 127.844 209.614 127.071 209.614H124.412V213.477ZM142.773 212H141.364C141.28 211.595 141.134 211.239 140.926 210.932C140.722 210.625 140.472 210.367 140.176 210.159C139.884 209.947 139.561 209.788 139.205 209.682C138.848 209.576 138.477 209.523 138.091 209.523C137.386 209.523 136.748 209.701 136.176 210.057C135.608 210.413 135.155 210.938 134.818 211.631C134.485 212.324 134.318 213.174 134.318 214.182C134.318 215.189 134.485 216.04 134.818 216.733C135.155 217.426 135.608 217.951 136.176 218.307C136.748 218.663 137.386 218.841 138.091 218.841C138.477 218.841 138.848 218.788 139.205 218.682C139.561 218.576 139.884 218.419 140.176 218.21C140.472 217.998 140.722 217.739 140.926 217.432C141.134 217.121 141.28 216.765 141.364 216.364H142.773C142.667 216.958 142.473 217.491 142.193 217.96C141.913 218.43 141.564 218.83 141.148 219.159C140.731 219.485 140.263 219.733 139.744 219.903C139.229 220.074 138.678 220.159 138.091 220.159C137.098 220.159 136.216 219.917 135.443 219.432C134.67 218.947 134.063 218.258 133.619 217.364C133.176 216.47 132.955 215.409 132.955 214.182C132.955 212.955 133.176 211.894 133.619 211C134.063 210.106 134.67 209.417 135.443 208.932C136.216 208.447 137.098 208.205 138.091 208.205C138.678 208.205 139.229 208.29 139.744 208.46C140.263 208.631 140.731 208.881 141.148 209.21C141.564 209.536 141.913 209.934 142.193 210.403C142.473 210.869 142.667 211.402 142.773 212ZM145.05 220V208.364H152.072V209.614H146.459V213.545H151.709V214.795H146.459V218.75H152.163V220H145.05ZM165.112 213.227L163.908 213.568C163.832 213.367 163.72 213.172 163.572 212.983C163.429 212.79 163.232 212.631 162.982 212.506C162.732 212.381 162.411 212.318 162.021 212.318C161.487 212.318 161.042 212.441 160.686 212.688C160.334 212.93 160.158 213.239 160.158 213.614C160.158 213.947 160.279 214.21 160.521 214.403C160.764 214.597 161.143 214.758 161.658 214.886L162.953 215.205C163.733 215.394 164.315 215.684 164.697 216.074C165.08 216.46 165.271 216.958 165.271 217.568C165.271 218.068 165.127 218.515 164.839 218.909C164.555 219.303 164.158 219.614 163.646 219.841C163.135 220.068 162.54 220.182 161.862 220.182C160.972 220.182 160.235 219.989 159.652 219.602C159.069 219.216 158.699 218.652 158.544 217.909L159.817 217.591C159.938 218.061 160.167 218.413 160.504 218.648C160.845 218.883 161.29 219 161.839 219C162.464 219 162.961 218.867 163.328 218.602C163.699 218.333 163.885 218.011 163.885 217.636C163.885 217.333 163.779 217.08 163.567 216.875C163.355 216.667 163.029 216.511 162.589 216.409L161.135 216.068C160.336 215.879 159.749 215.585 159.374 215.188C159.002 214.786 158.817 214.284 158.817 213.682C158.817 213.189 158.955 212.754 159.232 212.375C159.512 211.996 159.893 211.699 160.374 211.483C160.858 211.267 161.408 211.159 162.021 211.159C162.885 211.159 163.563 211.348 164.055 211.727C164.552 212.106 164.904 212.606 165.112 213.227ZM171.085 211.273V212.409H166.562V211.273H171.085ZM167.881 209.182H169.222V217.5C169.222 217.879 169.277 218.163 169.386 218.352C169.5 218.538 169.644 218.663 169.818 218.727C169.996 218.788 170.184 218.818 170.381 218.818C170.528 218.818 170.65 218.811 170.744 218.795C170.839 218.777 170.915 218.761 170.972 218.75L171.244 219.955C171.153 219.989 171.027 220.023 170.864 220.057C170.701 220.095 170.494 220.114 170.244 220.114C169.866 220.114 169.494 220.032 169.131 219.869C168.771 219.706 168.472 219.458 168.233 219.125C167.998 218.792 167.881 218.371 167.881 217.864V209.182ZM173.102 220V211.273H174.398V212.591H174.489C174.648 212.159 174.936 211.809 175.352 211.54C175.769 211.271 176.239 211.136 176.761 211.136C176.86 211.136 176.983 211.138 177.131 211.142C177.278 211.146 177.39 211.152 177.466 211.159V212.523C177.42 212.511 177.316 212.494 177.153 212.472C176.994 212.445 176.826 212.432 176.648 212.432C176.223 212.432 175.845 212.521 175.511 212.699C175.182 212.873 174.92 213.116 174.727 213.426C174.538 213.733 174.443 214.083 174.443 214.477V220H173.102ZM182.449 220.182C181.608 220.182 180.883 219.996 180.273 219.625C179.667 219.25 179.199 218.727 178.869 218.057C178.544 217.383 178.381 216.598 178.381 215.705C178.381 214.811 178.544 214.023 178.869 213.341C179.199 212.655 179.657 212.121 180.244 211.739C180.835 211.352 181.525 211.159 182.312 211.159C182.767 211.159 183.216 211.235 183.659 211.386C184.102 211.538 184.506 211.784 184.869 212.125C185.233 212.462 185.523 212.909 185.739 213.466C185.955 214.023 186.062 214.708 186.062 215.523V216.091H179.335V214.932H184.699C184.699 214.439 184.6 214 184.403 213.614C184.21 213.227 183.934 212.922 183.574 212.699C183.218 212.475 182.797 212.364 182.312 212.364C181.778 212.364 181.316 212.496 180.926 212.761C180.54 213.023 180.242 213.364 180.034 213.784C179.826 214.205 179.722 214.655 179.722 215.136V215.909C179.722 216.568 179.835 217.127 180.062 217.585C180.294 218.04 180.614 218.386 181.023 218.625C181.432 218.86 181.907 218.977 182.449 218.977C182.801 218.977 183.119 218.928 183.403 218.83C183.691 218.727 183.939 218.576 184.148 218.375C184.356 218.17 184.517 217.917 184.631 217.614L185.926 217.977C185.79 218.417 185.561 218.803 185.239 219.136C184.917 219.466 184.519 219.723 184.045 219.909C183.572 220.091 183.04 220.182 182.449 220.182ZM191.761 220.182C190.92 220.182 190.195 219.996 189.585 219.625C188.979 219.25 188.511 218.727 188.182 218.057C187.856 217.383 187.693 216.598 187.693 215.705C187.693 214.811 187.856 214.023 188.182 213.341C188.511 212.655 188.97 212.121 189.557 211.739C190.148 211.352 190.837 211.159 191.625 211.159C192.08 211.159 192.528 211.235 192.972 211.386C193.415 211.538 193.818 211.784 194.182 212.125C194.545 212.462 194.835 212.909 195.051 213.466C195.267 214.023 195.375 214.708 195.375 215.523V216.091H188.648V214.932H194.011C194.011 214.439 193.913 214 193.716 213.614C193.523 213.227 193.246 212.922 192.886 212.699C192.53 212.475 192.11 212.364 191.625 212.364C191.091 212.364 190.629 212.496 190.239 212.761C189.852 213.023 189.555 213.364 189.347 213.784C189.138 214.205 189.034 214.655 189.034 215.136V215.909C189.034 216.568 189.148 217.127 189.375 217.585C189.606 218.04 189.926 218.386 190.335 218.625C190.744 218.86 191.22 218.977 191.761 218.977C192.114 218.977 192.432 218.928 192.716 218.83C193.004 218.727 193.252 218.576 193.46 218.375C193.669 218.17 193.83 217.917 193.943 217.614L195.239 217.977C195.102 218.417 194.873 218.803 194.551 219.136C194.229 219.466 193.831 219.723 193.358 219.909C192.884 220.091 192.352 220.182 191.761 220.182ZM201.21 211.273V212.409H196.688V211.273H201.21ZM198.006 209.182H199.347V217.5C199.347 217.879 199.402 218.163 199.511 218.352C199.625 218.538 199.769 218.663 199.943 218.727C200.121 218.788 200.309 218.818 200.506 218.818C200.653 218.818 200.775 218.811 200.869 218.795C200.964 218.777 201.04 218.761 201.097 218.75L201.369 219.955C201.278 219.989 201.152 220.023 200.989 220.057C200.826 220.095 200.619 220.114 200.369 220.114C199.991 220.114 199.619 220.032 199.256 219.869C198.896 219.706 198.597 219.458 198.358 219.125C198.123 218.792 198.006 218.371 198.006 217.864V209.182ZM205.227 218.409L205.136 219.023C205.072 219.455 204.973 219.917 204.841 220.409C204.712 220.902 204.578 221.366 204.438 221.801C204.297 222.237 204.182 222.583 204.091 222.841H203.068C203.117 222.598 203.182 222.278 203.261 221.881C203.341 221.483 203.42 221.038 203.5 220.545C203.583 220.057 203.652 219.557 203.705 219.045L203.773 218.409H205.227ZM215.871 220.182C215.03 220.182 214.304 219.996 213.695 219.625C213.089 219.25 212.621 218.727 212.291 218.057C211.965 217.383 211.803 216.598 211.803 215.705C211.803 214.811 211.965 214.023 212.291 213.341C212.621 212.655 213.079 212.121 213.666 211.739C214.257 211.352 214.946 211.159 215.734 211.159C216.189 211.159 216.638 211.235 217.081 211.386C217.524 211.538 217.928 211.784 218.291 212.125C218.655 212.462 218.945 212.909 219.161 213.466C219.376 214.023 219.484 214.708 219.484 215.523V216.091H212.757V214.932H218.121C218.121 214.439 218.022 214 217.825 213.614C217.632 213.227 217.356 212.922 216.996 212.699C216.64 212.475 216.219 212.364 215.734 212.364C215.2 212.364 214.738 212.496 214.348 212.761C213.962 213.023 213.664 213.364 213.456 213.784C213.248 214.205 213.143 214.655 213.143 215.136V215.909C213.143 216.568 213.257 217.127 213.484 217.585C213.715 218.04 214.036 218.386 214.445 218.625C214.854 218.86 215.329 218.977 215.871 218.977C216.223 218.977 216.541 218.928 216.825 218.83C217.113 218.727 217.361 218.576 217.57 218.375C217.778 218.17 217.939 217.917 218.053 217.614L219.348 217.977C219.212 218.417 218.982 218.803 218.661 219.136C218.339 219.466 217.941 219.723 217.467 219.909C216.994 220.091 216.462 220.182 215.871 220.182ZM224.092 220.205C223.539 220.205 223.037 220.1 222.587 219.892C222.136 219.68 221.778 219.375 221.513 218.977C221.248 218.576 221.115 218.091 221.115 217.523C221.115 217.023 221.214 216.617 221.411 216.307C221.607 215.992 221.871 215.746 222.2 215.568C222.53 215.39 222.893 215.258 223.291 215.17C223.693 215.08 224.096 215.008 224.501 214.955C225.032 214.886 225.462 214.835 225.791 214.801C226.125 214.763 226.367 214.701 226.518 214.614C226.674 214.527 226.751 214.375 226.751 214.159V214.114C226.751 213.553 226.598 213.117 226.291 212.807C225.988 212.496 225.528 212.341 224.911 212.341C224.27 212.341 223.768 212.481 223.405 212.761C223.041 213.042 222.786 213.341 222.638 213.659L221.365 213.205C221.592 212.674 221.895 212.261 222.274 211.966C222.657 211.667 223.073 211.458 223.524 211.341C223.979 211.22 224.426 211.159 224.865 211.159C225.145 211.159 225.467 211.193 225.831 211.261C226.198 211.326 226.553 211.46 226.893 211.665C227.238 211.869 227.524 212.178 227.751 212.591C227.979 213.004 228.092 213.557 228.092 214.25V220H226.751V218.818H226.683C226.592 219.008 226.441 219.21 226.229 219.426C226.017 219.642 225.734 219.826 225.382 219.977C225.03 220.129 224.6 220.205 224.092 220.205ZM224.297 219C224.827 219 225.274 218.896 225.638 218.688C226.005 218.479 226.282 218.21 226.467 217.881C226.657 217.551 226.751 217.205 226.751 216.841V215.614C226.695 215.682 226.57 215.744 226.376 215.801C226.187 215.854 225.967 215.902 225.717 215.943C225.471 215.981 225.231 216.015 224.996 216.045C224.765 216.072 224.577 216.095 224.433 216.114C224.085 216.159 223.759 216.233 223.456 216.335C223.157 216.434 222.914 216.583 222.729 216.784C222.547 216.981 222.456 217.25 222.456 217.591C222.456 218.057 222.628 218.409 222.973 218.648C223.321 218.883 223.763 219 224.297 219ZM236.722 213.227L235.517 213.568C235.441 213.367 235.33 213.172 235.182 212.983C235.038 212.79 234.841 212.631 234.591 212.506C234.341 212.381 234.021 212.318 233.631 212.318C233.097 212.318 232.652 212.441 232.295 212.688C231.943 212.93 231.767 213.239 231.767 213.614C231.767 213.947 231.888 214.21 232.131 214.403C232.373 214.597 232.752 214.758 233.267 214.886L234.562 215.205C235.343 215.394 235.924 215.684 236.307 216.074C236.689 216.46 236.881 216.958 236.881 217.568C236.881 218.068 236.737 218.515 236.449 218.909C236.165 219.303 235.767 219.614 235.256 219.841C234.744 220.068 234.15 220.182 233.472 220.182C232.581 220.182 231.845 219.989 231.261 219.602C230.678 219.216 230.309 218.652 230.153 217.909L231.426 217.591C231.547 218.061 231.777 218.413 232.114 218.648C232.455 218.883 232.9 219 233.449 219C234.074 219 234.57 218.867 234.938 218.602C235.309 218.333 235.494 218.011 235.494 217.636C235.494 217.333 235.388 217.08 235.176 216.875C234.964 216.667 234.638 216.511 234.199 216.409L232.744 216.068C231.945 215.879 231.358 215.585 230.983 215.188C230.612 214.786 230.426 214.284 230.426 213.682C230.426 213.189 230.564 212.754 230.841 212.375C231.121 211.996 231.502 211.699 231.983 211.483C232.468 211.267 233.017 211.159 233.631 211.159C234.494 211.159 235.172 211.348 235.665 211.727C236.161 212.106 236.513 212.606 236.722 213.227ZM242.695 211.273V212.409H238.172V211.273H242.695ZM239.49 209.182H240.831V217.5C240.831 217.879 240.886 218.163 240.996 218.352C241.109 218.538 241.253 218.663 241.428 218.727C241.606 218.788 241.793 218.818 241.99 218.818C242.138 218.818 242.259 218.811 242.354 218.795C242.448 218.777 242.524 218.761 242.581 218.75L242.854 219.955C242.763 219.989 242.636 220.023 242.473 220.057C242.31 220.095 242.104 220.114 241.854 220.114C241.475 220.114 241.104 220.032 240.74 219.869C240.38 219.706 240.081 219.458 239.842 219.125C239.607 218.792 239.49 218.371 239.49 217.864V209.182ZM251.78 220.205C251.227 220.205 250.725 220.1 250.274 219.892C249.823 219.68 249.465 219.375 249.2 218.977C248.935 218.576 248.803 218.091 248.803 217.523C248.803 217.023 248.901 216.617 249.098 216.307C249.295 215.992 249.558 215.746 249.888 215.568C250.217 215.39 250.581 215.258 250.979 215.17C251.38 215.08 251.784 215.008 252.189 214.955C252.719 214.886 253.149 214.835 253.479 214.801C253.812 214.763 254.054 214.701 254.206 214.614C254.361 214.527 254.439 214.375 254.439 214.159V214.114C254.439 213.553 254.286 213.117 253.979 212.807C253.676 212.496 253.215 212.341 252.598 212.341C251.958 212.341 251.456 212.481 251.092 212.761C250.729 213.042 250.473 213.341 250.325 213.659L249.053 213.205C249.28 212.674 249.583 212.261 249.962 211.966C250.344 211.667 250.761 211.458 251.212 211.341C251.666 211.22 252.113 211.159 252.553 211.159C252.833 211.159 253.155 211.193 253.518 211.261C253.886 211.326 254.24 211.46 254.581 211.665C254.926 211.869 255.212 212.178 255.439 212.591C255.666 213.004 255.78 213.557 255.78 214.25V220H254.439V218.818H254.371C254.28 219.008 254.128 219.21 253.916 219.426C253.704 219.642 253.422 219.826 253.07 219.977C252.717 220.129 252.287 220.205 251.78 220.205ZM251.984 219C252.515 219 252.962 218.896 253.325 218.688C253.693 218.479 253.969 218.21 254.155 217.881C254.344 217.551 254.439 217.205 254.439 216.841V215.614C254.382 215.682 254.257 215.744 254.064 215.801C253.875 215.854 253.655 215.902 253.405 215.943C253.159 215.981 252.918 216.015 252.683 216.045C252.452 216.072 252.265 216.095 252.121 216.114C251.772 216.159 251.446 216.233 251.143 216.335C250.844 216.434 250.602 216.583 250.416 216.784C250.234 216.981 250.143 217.25 250.143 217.591C250.143 218.057 250.316 218.409 250.661 218.648C251.009 218.883 251.45 219 251.984 219ZM258.227 220V211.273H259.523V212.591H259.614C259.773 212.159 260.061 211.809 260.477 211.54C260.894 211.271 261.364 211.136 261.886 211.136C261.985 211.136 262.108 211.138 262.256 211.142C262.403 211.146 262.515 211.152 262.591 211.159V212.523C262.545 212.511 262.441 212.494 262.278 212.472C262.119 212.445 261.951 212.432 261.773 212.432C261.348 212.432 260.97 212.521 260.636 212.699C260.307 212.873 260.045 213.116 259.852 213.426C259.663 213.733 259.568 214.083 259.568 214.477V220H258.227ZM267.574 220.182C266.733 220.182 266.008 219.996 265.398 219.625C264.792 219.25 264.324 218.727 263.994 218.057C263.669 217.383 263.506 216.598 263.506 215.705C263.506 214.811 263.669 214.023 263.994 213.341C264.324 212.655 264.782 212.121 265.369 211.739C265.96 211.352 266.65 211.159 267.438 211.159C267.892 211.159 268.341 211.235 268.784 211.386C269.227 211.538 269.631 211.784 269.994 212.125C270.358 212.462 270.648 212.909 270.864 213.466C271.08 214.023 271.188 214.708 271.188 215.523V216.091H264.46V214.932H269.824C269.824 214.439 269.725 214 269.528 213.614C269.335 213.227 269.059 212.922 268.699 212.699C268.343 212.475 267.922 212.364 267.438 212.364C266.903 212.364 266.441 212.496 266.051 212.761C265.665 213.023 265.367 213.364 265.159 213.784C264.951 214.205 264.847 214.655 264.847 215.136V215.909C264.847 216.568 264.96 217.127 265.188 217.585C265.419 218.04 265.739 218.386 266.148 218.625C266.557 218.86 267.032 218.977 267.574 218.977C267.926 218.977 268.244 218.928 268.528 218.83C268.816 218.727 269.064 218.576 269.273 218.375C269.481 218.17 269.642 217.917 269.756 217.614L271.051 217.977C270.915 218.417 270.686 218.803 270.364 219.136C270.042 219.466 269.644 219.723 269.17 219.909C268.697 220.091 268.165 220.182 267.574 220.182ZM275.795 220.205C275.242 220.205 274.741 220.1 274.29 219.892C273.839 219.68 273.481 219.375 273.216 218.977C272.951 218.576 272.818 218.091 272.818 217.523C272.818 217.023 272.917 216.617 273.114 216.307C273.311 215.992 273.574 215.746 273.903 215.568C274.233 215.39 274.597 215.258 274.994 215.17C275.396 215.08 275.799 215.008 276.205 214.955C276.735 214.886 277.165 214.835 277.494 214.801C277.828 214.763 278.07 214.701 278.222 214.614C278.377 214.527 278.455 214.375 278.455 214.159V214.114C278.455 213.553 278.301 213.117 277.994 212.807C277.691 212.496 277.231 212.341 276.614 212.341C275.973 212.341 275.472 212.481 275.108 212.761C274.744 213.042 274.489 213.341 274.341 213.659L273.068 213.205C273.295 212.674 273.598 212.261 273.977 211.966C274.36 211.667 274.777 211.458 275.227 211.341C275.682 211.22 276.129 211.159 276.568 211.159C276.848 211.159 277.17 211.193 277.534 211.261C277.902 211.326 278.256 211.46 278.597 211.665C278.941 211.869 279.227 212.178 279.455 212.591C279.682 213.004 279.795 213.557 279.795 214.25V220H278.455V218.818H278.386C278.295 219.008 278.144 219.21 277.932 219.426C277.72 219.642 277.438 219.826 277.085 219.977C276.733 220.129 276.303 220.205 275.795 220.205ZM276 219C276.53 219 276.977 218.896 277.341 218.688C277.708 218.479 277.985 218.21 278.17 217.881C278.36 217.551 278.455 217.205 278.455 216.841V215.614C278.398 215.682 278.273 215.744 278.08 215.801C277.89 215.854 277.67 215.902 277.42 215.943C277.174 215.981 276.934 216.015 276.699 216.045C276.468 216.072 276.28 216.095 276.136 216.114C275.788 216.159 275.462 216.233 275.159 216.335C274.86 216.434 274.617 216.583 274.432 216.784C274.25 216.981 274.159 217.25 274.159 217.591C274.159 218.057 274.331 218.409 274.676 218.648C275.025 218.883 275.466 219 276 219ZM296.152 208.364V220H294.788L288.447 210.864H288.334V220H286.925V208.364H288.288L294.652 217.523H294.766V208.364H296.152ZM300.381 208.364V220H298.972V208.364H300.381ZM306.547 223.455C305.899 223.455 305.342 223.371 304.876 223.205C304.411 223.042 304.022 222.826 303.712 222.557C303.405 222.292 303.161 222.008 302.979 221.705L304.047 220.955C304.168 221.114 304.321 221.295 304.507 221.5C304.693 221.708 304.946 221.888 305.268 222.04C305.594 222.195 306.02 222.273 306.547 222.273C307.251 222.273 307.833 222.102 308.291 221.761C308.75 221.42 308.979 220.886 308.979 220.159V218.386H308.865C308.767 218.545 308.626 218.742 308.445 218.977C308.267 219.208 308.009 219.415 307.672 219.597C307.339 219.775 306.888 219.864 306.32 219.864C305.615 219.864 304.982 219.697 304.422 219.364C303.865 219.03 303.424 218.545 303.098 217.909C302.776 217.273 302.615 216.5 302.615 215.591C302.615 214.697 302.772 213.919 303.087 213.256C303.401 212.589 303.839 212.074 304.399 211.71C304.96 211.343 305.607 211.159 306.342 211.159C306.911 211.159 307.361 211.254 307.695 211.443C308.032 211.629 308.289 211.841 308.467 212.08C308.649 212.314 308.789 212.508 308.888 212.659H309.024V211.273H310.32V220.25C310.32 221 310.149 221.61 309.808 222.08C309.471 222.553 309.017 222.9 308.445 223.119C307.876 223.343 307.244 223.455 306.547 223.455ZM306.501 218.659C307.039 218.659 307.494 218.536 307.865 218.29C308.236 218.044 308.518 217.689 308.712 217.227C308.905 216.765 309.001 216.212 309.001 215.568C309.001 214.939 308.907 214.384 308.717 213.903C308.528 213.422 308.248 213.045 307.876 212.773C307.505 212.5 307.047 212.364 306.501 212.364C305.933 212.364 305.46 212.508 305.081 212.795C304.706 213.083 304.424 213.47 304.234 213.955C304.049 214.439 303.956 214.977 303.956 215.568C303.956 216.174 304.051 216.71 304.24 217.176C304.433 217.638 304.717 218.002 305.092 218.267C305.471 218.528 305.941 218.659 306.501 218.659ZM316.433 220.182C315.592 220.182 314.867 219.996 314.257 219.625C313.651 219.25 313.183 218.727 312.854 218.057C312.528 217.383 312.365 216.598 312.365 215.705C312.365 214.811 312.528 214.023 312.854 213.341C313.183 212.655 313.642 212.121 314.229 211.739C314.82 211.352 315.509 211.159 316.297 211.159C316.751 211.159 317.2 211.235 317.643 211.386C318.087 211.538 318.49 211.784 318.854 212.125C319.217 212.462 319.507 212.909 319.723 213.466C319.939 214.023 320.047 214.708 320.047 215.523V216.091H313.32V214.932H318.683C318.683 214.439 318.585 214 318.388 213.614C318.195 213.227 317.918 212.922 317.558 212.699C317.202 212.475 316.782 212.364 316.297 212.364C315.763 212.364 315.301 212.496 314.911 212.761C314.524 213.023 314.227 213.364 314.018 213.784C313.81 214.205 313.706 214.655 313.706 215.136V215.909C313.706 216.568 313.82 217.127 314.047 217.585C314.278 218.04 314.598 218.386 315.007 218.625C315.416 218.86 315.892 218.977 316.433 218.977C316.786 218.977 317.104 218.928 317.388 218.83C317.676 218.727 317.924 218.576 318.132 218.375C318.34 218.17 318.501 217.917 318.615 217.614L319.911 217.977C319.774 218.417 319.545 218.803 319.223 219.136C318.901 219.466 318.503 219.723 318.03 219.909C317.556 220.091 317.024 220.182 316.433 220.182ZM322.087 220V211.273H323.382V212.591H323.473C323.632 212.159 323.92 211.809 324.337 211.54C324.753 211.271 325.223 211.136 325.746 211.136C325.844 211.136 325.967 211.138 326.115 211.142C326.263 211.146 326.375 211.152 326.45 211.159V212.523C326.405 212.511 326.301 212.494 326.138 212.472C325.979 212.445 325.81 212.432 325.632 212.432C325.208 212.432 324.829 212.521 324.496 212.699C324.166 212.873 323.905 213.116 323.712 213.426C323.522 213.733 323.428 214.083 323.428 214.477V220H322.087ZM328.04 220V211.273H329.381V220H328.04ZM328.722 209.818C328.46 209.818 328.235 209.729 328.045 209.551C327.86 209.373 327.767 209.159 327.767 208.909C327.767 208.659 327.86 208.445 328.045 208.267C328.235 208.089 328.46 208 328.722 208C328.983 208 329.206 208.089 329.392 208.267C329.581 208.445 329.676 208.659 329.676 208.909C329.676 209.159 329.581 209.373 329.392 209.551C329.206 209.729 328.983 209.818 328.722 209.818ZM334.405 220.205C333.852 220.205 333.35 220.1 332.899 219.892C332.448 219.68 332.09 219.375 331.825 218.977C331.56 218.576 331.428 218.091 331.428 217.523C331.428 217.023 331.526 216.617 331.723 216.307C331.92 215.992 332.183 215.746 332.513 215.568C332.842 215.39 333.206 215.258 333.604 215.17C334.005 215.08 334.409 215.008 334.814 214.955C335.344 214.886 335.774 214.835 336.104 214.801C336.437 214.763 336.679 214.701 336.831 214.614C336.986 214.527 337.064 214.375 337.064 214.159V214.114C337.064 213.553 336.911 213.117 336.604 212.807C336.301 212.496 335.84 212.341 335.223 212.341C334.583 212.341 334.081 212.481 333.717 212.761C333.354 213.042 333.098 213.341 332.95 213.659L331.678 213.205C331.905 212.674 332.208 212.261 332.587 211.966C332.969 211.667 333.386 211.458 333.837 211.341C334.291 211.22 334.738 211.159 335.178 211.159C335.458 211.159 335.78 211.193 336.143 211.261C336.511 211.326 336.865 211.46 337.206 211.665C337.551 211.869 337.837 212.178 338.064 212.591C338.291 213.004 338.405 213.557 338.405 214.25V220H337.064V218.818H336.996C336.905 219.008 336.753 219.21 336.541 219.426C336.329 219.642 336.047 219.826 335.695 219.977C335.342 220.129 334.912 220.205 334.405 220.205ZM334.609 219C335.14 219 335.587 218.896 335.95 218.688C336.318 218.479 336.594 218.21 336.78 217.881C336.969 217.551 337.064 217.205 337.064 216.841V215.614C337.007 215.682 336.882 215.744 336.689 215.801C336.5 215.854 336.28 215.902 336.03 215.943C335.784 215.981 335.543 216.015 335.308 216.045C335.077 216.072 334.89 216.095 334.746 216.114C334.397 216.159 334.071 216.233 333.768 216.335C333.469 216.434 333.227 216.583 333.041 216.784C332.859 216.981 332.768 217.25 332.768 217.591C332.768 218.057 332.941 218.409 333.286 218.648C333.634 218.883 334.075 219 334.609 219Z" fill="#BDBCBC"/>
</svg>
