<svg width="314" height="251" viewBox="0 0 314 251" fill="none" xmlns="http://www.w3.org/2000/svg">
<rect x="0.0185547" width="313" height="251" rx="4" fill="white"/>
<rect x="20.0186" y="20" width="72" height="72" rx="36" fill="#C2410A"/>
<path d="M51.5186 66.5C48.5936 66.5 46.1126 65.4815 44.0756 63.4445C42.0386 61.4075 41.0196 58.926 41.0186 56C41.0176 53.074 42.0366 50.593 44.0756 48.557C46.1146 46.521 48.5956 45.502 51.5186 45.5C54.4416 45.498 56.9231 46.517 58.9631 48.557C61.0031 50.597 62.0216 53.078 62.0186 56C62.0156 58.922 60.9971 61.4035 58.9631 63.4445C56.9291 65.4855 54.4476 66.504 51.5186 66.5ZM64.2686 65.7875C63.6936 65.9875 63.1751 65.9685 62.7131 65.7305C62.2511 65.4925 62.0196 65.049 62.0186 64.4C62.0186 64.125 62.1126 63.8625 62.3006 63.6125C62.4886 63.3625 62.7196 63.1875 62.9936 63.0875C64.4936 62.5875 65.7061 61.6875 66.6311 60.3875C67.5561 59.0875 68.0186 57.625 68.0186 56C68.0186 54.375 67.5561 52.9125 66.6311 51.6125C65.7061 50.3125 64.4936 49.4125 62.9936 48.9125C62.7186 48.8125 62.4876 48.6375 62.3006 48.3875C62.1136 48.1375 62.0196 47.875 62.0186 47.6C62.0186 46.975 62.2436 46.5375 62.6936 46.2875C63.1436 46.0375 63.6561 46.0125 64.2311 46.2125C66.2561 46.9375 67.8936 48.194 69.1436 49.982C70.3936 51.77 71.0186 53.776 71.0186 56C71.0186 58.224 70.3936 60.224 69.1436 62C67.8936 63.776 66.2686 65.0385 64.2686 65.7875ZM51.5186 63.5C53.5936 63.5 55.3626 62.7685 56.8256 61.3055C58.2886 59.8425 59.0196 58.074 59.0186 56C59.0176 53.926 58.2861 52.1575 56.8241 50.6945C55.3621 49.2315 53.5936 48.5 51.5186 48.5C49.4436 48.5 47.6751 49.2315 46.2131 50.6945C44.7511 52.1575 44.0196 53.926 44.0186 56C44.0176 58.074 44.7491 59.843 46.2131 61.307C47.6771 62.771 49.4456 63.502 51.5186 63.5Z" fill="white"/>
<path d="M24.1226 130V119.56H20.4506V117.4H30.1706V119.56H26.4986V130H24.1226ZM34.0431 130.252C33.1551 130.252 32.3691 130.066 31.6851 129.694C31.0131 129.31 30.4851 128.776 30.1011 128.092C29.7291 127.396 29.5431 126.58 29.5431 125.644V125.428C29.5431 124.492 29.7291 123.682 30.1011 122.998C30.4731 122.302 30.9951 121.768 31.6671 121.396C32.3391 121.012 33.1191 120.82 34.0071 120.82C34.8831 120.82 35.6451 121.018 36.2931 121.414C36.9411 121.798 37.4451 122.338 37.8051 123.034C38.1651 123.718 38.3451 124.516 38.3451 125.428V126.202H31.8471C31.8711 126.814 32.0991 127.312 32.5311 127.696C32.9631 128.08 33.4911 128.272 34.1151 128.272C34.7511 128.272 35.2191 128.134 35.5191 127.858C35.8191 127.582 36.0471 127.276 36.2031 126.94L38.0571 127.912C37.8891 128.224 37.6431 128.566 37.3191 128.938C37.0071 129.298 36.5871 129.61 36.0591 129.874C35.5311 130.126 34.8591 130.252 34.0431 130.252ZM31.8651 124.51H36.0411C35.9931 123.994 35.7831 123.58 35.4111 123.268C35.0511 122.956 34.5771 122.8 33.9891 122.8C33.3771 122.8 32.8911 122.956 32.5311 123.268C32.1711 123.58 31.9491 123.994 31.8651 124.51ZM40.1658 130V117.4H42.4338V130H40.1658ZM48.943 130.252C48.079 130.252 47.293 130.072 46.585 129.712C45.889 129.352 45.337 128.83 44.929 128.146C44.521 127.462 44.317 126.634 44.317 125.662V125.41C44.317 124.438 44.521 123.61 44.929 122.926C45.337 122.242 45.889 121.72 46.585 121.36C47.293 121 48.079 120.82 48.943 120.82C49.795 120.82 50.527 120.97 51.139 121.27C51.751 121.57 52.243 121.984 52.615 122.512C52.999 123.028 53.251 123.616 53.371 124.276L51.175 124.744C51.127 124.384 51.019 124.06 50.851 123.772C50.683 123.484 50.443 123.256 50.131 123.088C49.831 122.92 49.453 122.836 48.997 122.836C48.541 122.836 48.127 122.938 47.755 123.142C47.395 123.334 47.107 123.628 46.891 124.024C46.687 124.408 46.585 124.882 46.585 125.446V125.626C46.585 126.19 46.687 126.67 46.891 127.066C47.107 127.45 47.395 127.744 47.755 127.948C48.127 128.14 48.541 128.236 48.997 128.236C49.681 128.236 50.197 128.062 50.545 127.714C50.905 127.354 51.133 126.886 51.229 126.31L53.425 126.832C53.269 127.468 52.999 128.05 52.615 128.578C52.243 129.094 51.751 129.502 51.139 129.802C50.527 130.102 49.795 130.252 48.943 130.252ZM59.3459 130.252C58.4579 130.252 57.6599 130.072 56.9519 129.712C56.2439 129.352 55.6859 128.83 55.2779 128.146C54.8699 127.462 54.6659 126.64 54.6659 125.68V125.392C54.6659 124.432 54.8699 123.61 55.2779 122.926C55.6859 122.242 56.2439 121.72 56.9519 121.36C57.6599 121 58.4579 120.82 59.3459 120.82C60.2339 120.82 61.0319 121 61.7399 121.36C62.4479 121.72 63.0059 122.242 63.4139 122.926C63.8219 123.61 64.0259 124.432 64.0259 125.392V125.68C64.0259 126.64 63.8219 127.462 63.4139 128.146C63.0059 128.83 62.4479 129.352 61.7399 129.712C61.0319 130.072 60.2339 130.252 59.3459 130.252ZM59.3459 128.236C60.0419 128.236 60.6179 128.014 61.0739 127.57C61.5299 127.114 61.7579 126.466 61.7579 125.626V125.446C61.7579 124.606 61.5299 123.964 61.0739 123.52C60.6299 123.064 60.0539 122.836 59.3459 122.836C58.6499 122.836 58.0739 123.064 57.6179 123.52C57.1619 123.964 56.9339 124.606 56.9339 125.446V125.626C56.9339 126.466 57.1619 127.114 57.6179 127.57C58.0739 128.014 58.6499 128.236 59.3459 128.236ZM65.9214 130V121.072H68.1534V122.044H68.4774C68.6334 121.744 68.8914 121.486 69.2514 121.27C69.6114 121.042 70.0854 120.928 70.6734 120.928C71.3094 120.928 71.8194 121.054 72.2034 121.306C72.5874 121.546 72.8814 121.864 73.0854 122.26H73.4094C73.6134 121.876 73.9014 121.558 74.2734 121.306C74.6454 121.054 75.1734 120.928 75.8574 120.928C76.4094 120.928 76.9074 121.048 77.3514 121.288C77.8074 121.516 78.1674 121.87 78.4314 122.35C78.7074 122.818 78.8454 123.412 78.8454 124.132V130H76.5774V124.294C76.5774 123.802 76.4514 123.436 76.1994 123.196C75.9474 122.944 75.5934 122.818 75.1374 122.818C74.6214 122.818 74.2194 122.986 73.9314 123.322C73.6554 123.646 73.5174 124.114 73.5174 124.726V130H71.2494V124.294C71.2494 123.802 71.1234 123.436 70.8714 123.196C70.6194 122.944 70.2654 122.818 69.8094 122.818C69.2934 122.818 68.8914 122.986 68.6034 123.322C68.3274 123.646 68.1894 124.114 68.1894 124.726V130H65.9214ZM86.935 130V122.944H84.667V121.072H86.935V119.416C86.935 118.804 87.115 118.318 87.475 117.958C87.847 117.586 88.327 117.4 88.915 117.4H91.255V119.272H89.707C89.371 119.272 89.203 119.452 89.203 119.812V121.072H91.543V122.944H89.203V130H86.935ZM92.591 130V121.072H94.859V130H92.591ZM93.725 120.028C93.317 120.028 92.969 119.896 92.681 119.632C92.405 119.368 92.267 119.02 92.267 118.588C92.267 118.156 92.405 117.808 92.681 117.544C92.969 117.28 93.317 117.148 93.725 117.148C94.145 117.148 94.493 117.28 94.769 117.544C95.045 117.808 95.183 118.156 95.183 118.588C95.183 119.02 95.045 119.368 94.769 119.632C94.493 119.896 94.145 120.028 93.725 120.028ZM102.538 130.252C101.734 130.252 101.116 130.114 100.684 129.838C100.252 129.562 99.9343 129.256 99.7303 128.92H99.4063V130H97.1743V117.4H99.4423V122.098H99.7663C99.8983 121.882 100.072 121.678 100.288 121.486C100.516 121.294 100.81 121.138 101.17 121.018C101.542 120.886 101.998 120.82 102.538 120.82C103.258 120.82 103.924 121 104.536 121.36C105.148 121.708 105.64 122.224 106.012 122.908C106.384 123.592 106.57 124.42 106.57 125.392V125.68C106.57 126.652 106.384 127.48 106.012 128.164C105.64 128.848 105.148 129.37 104.536 129.73C103.924 130.078 103.258 130.252 102.538 130.252ZM101.854 128.272C102.55 128.272 103.132 128.05 103.6 127.606C104.068 127.15 104.302 126.49 104.302 125.626V125.446C104.302 124.582 104.068 123.928 103.6 123.484C103.144 123.028 102.562 122.8 101.854 122.8C101.158 122.8 100.576 123.028 100.108 123.484C99.6403 123.928 99.4063 124.582 99.4063 125.446V125.626C99.4063 126.49 99.6403 127.15 100.108 127.606C100.576 128.05 101.158 128.272 101.854 128.272ZM112.523 130.252C111.635 130.252 110.849 130.066 110.165 129.694C109.493 129.31 108.965 128.776 108.581 128.092C108.209 127.396 108.023 126.58 108.023 125.644V125.428C108.023 124.492 108.209 123.682 108.581 122.998C108.953 122.302 109.475 121.768 110.147 121.396C110.819 121.012 111.599 120.82 112.487 120.82C113.363 120.82 114.125 121.018 114.773 121.414C115.421 121.798 115.925 122.338 116.285 123.034C116.645 123.718 116.825 124.516 116.825 125.428V126.202H110.327C110.351 126.814 110.579 127.312 111.011 127.696C111.443 128.08 111.971 128.272 112.595 128.272C113.231 128.272 113.699 128.134 113.999 127.858C114.299 127.582 114.527 127.276 114.683 126.94L116.537 127.912C116.369 128.224 116.123 128.566 115.799 128.938C115.487 129.298 115.067 129.61 114.539 129.874C114.011 130.126 113.339 130.252 112.523 130.252ZM110.345 124.51H114.521C114.473 123.994 114.263 123.58 113.891 123.268C113.531 122.956 113.057 122.8 112.469 122.8C111.857 122.8 111.371 122.956 111.011 123.268C110.651 123.58 110.429 123.994 110.345 124.51ZM118.645 130V121.072H120.877V122.08H121.201C121.333 121.72 121.549 121.456 121.849 121.288C122.161 121.12 122.521 121.036 122.929 121.036H124.009V123.052H122.893C122.317 123.052 121.843 123.208 121.471 123.52C121.099 123.82 120.913 124.288 120.913 124.924V130H118.645ZM134.205 130.252C133.317 130.252 132.519 130.072 131.811 129.712C131.103 129.352 130.545 128.83 130.137 128.146C129.729 127.462 129.525 126.64 129.525 125.68V125.392C129.525 124.432 129.729 123.61 130.137 122.926C130.545 122.242 131.103 121.72 131.811 121.36C132.519 121 133.317 120.82 134.205 120.82C135.093 120.82 135.891 121 136.599 121.36C137.307 121.72 137.865 122.242 138.273 122.926C138.681 123.61 138.885 124.432 138.885 125.392V125.68C138.885 126.64 138.681 127.462 138.273 128.146C137.865 128.83 137.307 129.352 136.599 129.712C135.891 130.072 135.093 130.252 134.205 130.252ZM134.205 128.236C134.901 128.236 135.477 128.014 135.933 127.57C136.389 127.114 136.617 126.466 136.617 125.626V125.446C136.617 124.606 136.389 123.964 135.933 123.52C135.489 123.064 134.913 122.836 134.205 122.836C133.509 122.836 132.933 123.064 132.477 123.52C132.021 123.964 131.793 124.606 131.793 125.446V125.626C131.793 126.466 132.021 127.114 132.477 127.57C132.933 128.014 133.509 128.236 134.205 128.236ZM140.78 133.6V121.072H143.012V122.152H143.336C143.54 121.804 143.858 121.498 144.29 121.234C144.722 120.958 145.34 120.82 146.144 120.82C146.864 120.82 147.53 121 148.142 121.36C148.754 121.708 149.246 122.224 149.618 122.908C149.99 123.592 150.176 124.42 150.176 125.392V125.68C150.176 126.652 149.99 127.48 149.618 128.164C149.246 128.848 148.754 129.37 148.142 129.73C147.53 130.078 146.864 130.252 146.144 130.252C145.604 130.252 145.148 130.186 144.776 130.054C144.416 129.934 144.122 129.778 143.894 129.586C143.678 129.382 143.504 129.178 143.372 128.974H143.048V133.6H140.78ZM145.46 128.272C146.168 128.272 146.75 128.05 147.206 127.606C147.674 127.15 147.908 126.49 147.908 125.626V125.446C147.908 124.582 147.674 123.928 147.206 123.484C146.738 123.028 146.156 122.8 145.46 122.8C144.764 122.8 144.182 123.028 143.714 123.484C143.246 123.928 143.012 124.582 143.012 125.446V125.626C143.012 126.49 143.246 127.15 143.714 127.606C144.182 128.05 144.764 128.272 145.46 128.272ZM155.182 130C154.594 130 154.114 129.82 153.742 129.46C153.382 129.088 153.202 128.596 153.202 127.984V122.944H150.97V121.072H153.202V118.3H155.47V121.072H157.918V122.944H155.47V127.588C155.47 127.948 155.638 128.128 155.974 128.128H157.702V130H155.182ZM159.773 130V121.072H162.041V130H159.773ZM160.907 120.028C160.499 120.028 160.151 119.896 159.863 119.632C159.587 119.368 159.449 119.02 159.449 118.588C159.449 118.156 159.587 117.808 159.863 117.544C160.151 117.28 160.499 117.148 160.907 117.148C161.327 117.148 161.675 117.28 161.951 117.544C162.227 117.808 162.365 118.156 162.365 118.588C162.365 119.02 162.227 119.368 161.951 119.632C161.675 119.896 161.327 120.028 160.907 120.028ZM168.55 130.252C167.686 130.252 166.9 130.072 166.192 129.712C165.496 129.352 164.944 128.83 164.536 128.146C164.128 127.462 163.924 126.634 163.924 125.662V125.41C163.924 124.438 164.128 123.61 164.536 122.926C164.944 122.242 165.496 121.72 166.192 121.36C166.9 121 167.686 120.82 168.55 120.82C169.402 120.82 170.134 120.97 170.746 121.27C171.358 121.57 171.85 121.984 172.222 122.512C172.606 123.028 172.858 123.616 172.978 124.276L170.782 124.744C170.734 124.384 170.626 124.06 170.458 123.772C170.29 123.484 170.05 123.256 169.738 123.088C169.438 122.92 169.06 122.836 168.604 122.836C168.148 122.836 167.734 122.938 167.362 123.142C167.002 123.334 166.714 123.628 166.498 124.024C166.294 124.408 166.192 124.882 166.192 125.446V125.626C166.192 126.19 166.294 126.67 166.498 127.066C166.714 127.45 167.002 127.744 167.362 127.948C167.734 128.14 168.148 128.236 168.604 128.236C169.288 128.236 169.804 128.062 170.152 127.714C170.512 127.354 170.74 126.886 170.836 126.31L173.032 126.832C172.876 127.468 172.606 128.05 172.222 128.578C171.85 129.094 171.358 129.502 170.746 129.802C170.134 130.102 169.402 130.252 168.55 130.252ZM178.413 130.252C177.249 130.252 176.295 130 175.551 129.496C174.807 128.992 174.357 128.272 174.201 127.336L176.289 126.796C176.373 127.216 176.511 127.546 176.703 127.786C176.907 128.026 177.153 128.2 177.441 128.308C177.741 128.404 178.065 128.452 178.413 128.452C178.941 128.452 179.331 128.362 179.583 128.182C179.835 127.99 179.961 127.756 179.961 127.48C179.961 127.204 179.841 126.994 179.601 126.85C179.361 126.694 178.977 126.568 178.449 126.472L177.945 126.382C177.321 126.262 176.751 126.1 176.235 125.896C175.719 125.68 175.305 125.386 174.993 125.014C174.681 124.642 174.525 124.162 174.525 123.574C174.525 122.686 174.849 122.008 175.497 121.54C176.145 121.06 176.997 120.82 178.053 120.82C179.049 120.82 179.877 121.042 180.537 121.486C181.197 121.93 181.629 122.512 181.833 123.232L179.727 123.88C179.631 123.424 179.433 123.1 179.133 122.908C178.845 122.716 178.485 122.62 178.053 122.62C177.621 122.62 177.291 122.698 177.063 122.854C176.835 122.998 176.721 123.202 176.721 123.466C176.721 123.754 176.841 123.97 177.081 124.114C177.321 124.246 177.645 124.348 178.053 124.42L178.557 124.51C179.229 124.63 179.835 124.792 180.375 124.996C180.927 125.188 181.359 125.47 181.671 125.842C181.995 126.202 182.157 126.694 182.157 127.318C182.157 128.254 181.815 128.98 181.131 129.496C180.459 130 179.553 130.252 178.413 130.252Z" fill="#0B0A14"/>
<path d="M21.2515 167V156.818H27.3566V157.912H22.4845V161.352H26.8992V162.446H22.4845V167H21.2515ZM33.6432 163.878V159.364H34.8165V167H33.6432V165.707H33.5637C33.3847 166.095 33.1063 166.425 32.7284 166.697C32.3506 166.965 31.8733 167.099 31.2966 167.099C30.8193 167.099 30.3951 166.995 30.0239 166.786C29.6527 166.574 29.361 166.256 29.1489 165.832C28.9368 165.404 28.8307 164.866 28.8307 164.216V159.364H30.004V164.136C30.004 164.693 30.1598 165.137 30.4713 165.469C30.7862 165.8 31.1872 165.966 31.6744 165.966C31.9661 165.966 32.2628 165.891 32.5644 165.742C32.8693 165.593 33.1245 165.364 33.33 165.056C33.5388 164.748 33.6432 164.355 33.6432 163.878ZM42.3746 161.074L41.3206 161.372C41.2543 161.196 41.1565 161.026 41.0273 160.86C40.9013 160.691 40.729 160.552 40.5102 160.442C40.2915 160.333 40.0114 160.278 39.67 160.278C39.2027 160.278 38.8132 160.386 38.5017 160.602C38.1934 160.814 38.0393 161.084 38.0393 161.412C38.0393 161.704 38.1454 161.934 38.3575 162.103C38.5696 162.272 38.9011 162.413 39.3518 162.526L40.4854 162.804C41.1681 162.97 41.6769 163.223 42.0116 163.565C42.3464 163.903 42.5138 164.339 42.5138 164.872C42.5138 165.31 42.3878 165.701 42.1359 166.045C41.8873 166.39 41.5393 166.662 41.0919 166.861C40.6444 167.06 40.1241 167.159 39.5308 167.159C38.7519 167.159 38.1073 166.99 37.5969 166.652C37.0864 166.314 36.7633 165.82 36.6274 165.17L37.741 164.892C37.8471 165.303 38.0476 165.611 38.3426 165.817C38.6409 166.022 39.0303 166.125 39.5109 166.125C40.0578 166.125 40.492 166.009 40.8135 165.777C41.1383 165.542 41.3007 165.26 41.3007 164.932C41.3007 164.667 41.2079 164.445 41.0223 164.266C40.8367 164.083 40.5516 163.947 40.1672 163.858L38.8944 163.56C38.1951 163.394 37.6814 163.137 37.3532 162.789C37.0284 162.438 36.866 161.999 36.866 161.472C36.866 161.041 36.987 160.66 37.229 160.328C37.4742 159.997 37.8073 159.737 38.2282 159.548C38.6525 159.359 39.1331 159.264 39.67 159.264C40.4257 159.264 41.019 159.43 41.4498 159.761C41.884 160.093 42.1923 160.53 42.3746 161.074ZM47.3822 167.159C46.6663 167.159 46.0498 166.99 45.5328 166.652C45.0157 166.314 44.618 165.848 44.3396 165.255C44.0612 164.662 43.922 163.984 43.922 163.222C43.922 162.446 44.0645 161.762 44.3495 161.168C44.6379 160.572 45.0389 160.106 45.5526 159.771C46.0697 159.433 46.6729 159.264 47.3623 159.264C47.8992 159.264 48.3831 159.364 48.814 159.562C49.2449 159.761 49.5979 160.04 49.873 160.398C50.1481 160.756 50.3187 161.173 50.385 161.651H49.2117C49.1222 161.303 48.9234 160.994 48.6151 160.726C48.3102 160.454 47.8992 160.318 47.3822 160.318C46.9248 160.318 46.5238 160.437 46.1791 160.676C45.8377 160.911 45.5709 161.245 45.3786 161.675C45.1897 162.103 45.0953 162.605 45.0953 163.182C45.0953 163.772 45.1881 164.286 45.3737 164.723C45.5626 165.161 45.8277 165.5 46.1691 165.742C46.5138 165.984 46.9182 166.105 47.3822 166.105C47.6871 166.105 47.9639 166.052 48.2124 165.946C48.461 165.84 48.6715 165.688 48.8438 165.489C49.0162 165.29 49.1388 165.051 49.2117 164.773H50.385C50.3187 165.223 50.1547 165.629 49.8928 165.991C49.6343 166.349 49.2913 166.634 48.8637 166.846C48.4395 167.055 47.9456 167.159 47.3822 167.159ZM55.3019 167.159C54.5661 167.159 53.9314 166.997 53.3978 166.672C52.8675 166.344 52.4582 165.886 52.1698 165.3C51.8848 164.71 51.7423 164.024 51.7423 163.241C51.7423 162.459 51.8848 161.77 52.1698 161.173C52.4582 160.573 52.8592 160.106 53.373 159.771C53.89 159.433 54.4932 159.264 55.1826 159.264C55.5803 159.264 55.9731 159.33 56.3609 159.463C56.7487 159.596 57.1017 159.811 57.4198 160.109C57.738 160.404 57.9916 160.795 58.1805 161.283C58.3694 161.77 58.4639 162.37 58.4639 163.082V163.58H52.5775V162.565H57.2707C57.2707 162.134 57.1845 161.75 57.0122 161.412C56.8431 161.074 56.6012 160.807 56.2863 160.612C55.9748 160.416 55.6069 160.318 55.1826 160.318C54.7153 160.318 54.3109 160.434 53.9695 160.666C53.6315 160.895 53.3713 161.193 53.189 161.561C53.0067 161.929 52.9156 162.323 52.9156 162.744V163.42C52.9156 163.997 53.015 164.486 53.2139 164.887C53.416 165.285 53.6961 165.588 54.0541 165.797C54.412 166.002 54.828 166.105 55.3019 166.105C55.6102 166.105 55.8886 166.062 56.1372 165.976C56.3891 165.886 56.6061 165.754 56.7884 165.578C56.9707 165.399 57.1116 165.177 57.211 164.912L58.3445 165.23C58.2252 165.615 58.0247 165.953 57.743 166.244C57.4613 166.533 57.1133 166.758 56.699 166.92C56.2847 167.08 55.819 167.159 55.3019 167.159ZM65.3595 162.406V167H64.1862V159.364H65.3197V160.557H65.4191C65.5981 160.169 65.8699 159.857 66.2345 159.622C66.599 159.384 67.0697 159.264 67.6464 159.264C68.1634 159.264 68.6159 159.37 69.0036 159.582C69.3914 159.791 69.693 160.109 69.9085 160.537C70.1239 160.961 70.2316 161.498 70.2316 162.148V167H69.0583V162.227C69.0583 161.627 68.9026 161.16 68.591 160.825C68.2794 160.487 67.8519 160.318 67.3083 160.318C66.9338 160.318 66.599 160.399 66.3041 160.562C66.0124 160.724 65.782 160.961 65.613 161.273C65.444 161.584 65.3595 161.962 65.3595 162.406ZM75.4779 167.159C74.7885 167.159 74.1836 166.995 73.6633 166.667C73.1462 166.339 72.7419 165.88 72.4502 165.29C72.1618 164.7 72.0177 164.01 72.0177 163.222C72.0177 162.426 72.1618 161.732 72.4502 161.138C72.7419 160.545 73.1462 160.085 73.6633 159.756C74.1836 159.428 74.7885 159.264 75.4779 159.264C76.1673 159.264 76.7705 159.428 77.2876 159.756C77.8079 160.085 78.2123 160.545 78.5006 161.138C78.7923 161.732 78.9381 162.426 78.9381 163.222C78.9381 164.01 78.7923 164.7 78.5006 165.29C78.2123 165.88 77.8079 166.339 77.2876 166.667C76.7705 166.995 76.1673 167.159 75.4779 167.159ZM75.4779 166.105C76.0016 166.105 76.4324 165.971 76.7705 165.702C77.1086 165.434 77.3588 165.081 77.5212 164.643C77.6836 164.206 77.7648 163.732 77.7648 163.222C77.7648 162.711 77.6836 162.236 77.5212 161.795C77.3588 161.354 77.1086 160.998 76.7705 160.726C76.4324 160.454 76.0016 160.318 75.4779 160.318C74.9542 160.318 74.5233 160.454 74.1853 160.726C73.8472 160.998 73.597 161.354 73.4346 161.795C73.2722 162.236 73.191 162.711 73.191 163.222C73.191 163.732 73.2722 164.206 73.4346 164.643C73.597 165.081 73.8472 165.434 74.1853 165.702C74.5233 165.971 74.9542 166.105 75.4779 166.105ZM81.9024 162.406V167H80.7291V159.364H81.8627V160.557H81.9621C82.1411 160.169 82.4128 159.857 82.7774 159.622C83.142 159.384 83.6127 159.264 84.1894 159.264C84.7064 159.264 85.1588 159.37 85.5466 159.582C85.9344 159.791 86.236 160.109 86.4514 160.537C86.6669 160.961 86.7746 161.498 86.7746 162.148V167H85.6013V162.227C85.6013 161.627 85.4455 161.16 85.134 160.825C84.8224 160.487 84.3949 160.318 83.8513 160.318C83.4768 160.318 83.142 160.399 82.847 160.562C82.5554 160.724 82.325 160.961 82.156 161.273C81.9869 161.584 81.9024 161.962 81.9024 162.406ZM94.0294 162.406V167H92.8561V156.818H94.0294V160.557H94.1288C94.3078 160.162 94.5763 159.849 94.9342 159.617C95.2955 159.382 95.7761 159.264 96.376 159.264C96.8963 159.264 97.3521 159.369 97.7432 159.577C98.1343 159.783 98.4375 160.099 98.653 160.527C98.8717 160.951 98.9811 161.491 98.9811 162.148V167H97.8078V162.227C97.8078 161.621 97.6504 161.152 97.3355 160.82C97.0239 160.486 96.5914 160.318 96.0379 160.318C95.6534 160.318 95.3087 160.399 95.0038 160.562C94.7022 160.724 94.4636 160.961 94.2879 161.273C94.1156 161.584 94.0294 161.962 94.0294 162.406ZM104.329 167.159C103.593 167.159 102.959 166.997 102.425 166.672C101.895 166.344 101.486 165.886 101.197 165.3C100.912 164.71 100.77 164.024 100.77 163.241C100.77 162.459 100.912 161.77 101.197 161.173C101.486 160.573 101.887 160.106 102.4 159.771C102.917 159.433 103.521 159.264 104.21 159.264C104.608 159.264 105 159.33 105.388 159.463C105.776 159.596 106.129 159.811 106.447 160.109C106.765 160.404 107.019 160.795 107.208 161.283C107.397 161.77 107.491 162.37 107.491 163.082V163.58H101.605V162.565H106.298C106.298 162.134 106.212 161.75 106.04 161.412C105.87 161.074 105.629 160.807 105.314 160.612C105.002 160.416 104.634 160.318 104.21 160.318C103.743 160.318 103.338 160.434 102.997 160.666C102.659 160.895 102.399 161.193 102.216 161.561C102.034 161.929 101.943 162.323 101.943 162.744V163.42C101.943 163.997 102.042 164.486 102.241 164.887C102.443 165.285 102.723 165.588 103.081 165.797C103.439 166.002 103.855 166.105 104.329 166.105C104.638 166.105 104.916 166.062 105.165 165.976C105.416 165.886 105.633 165.754 105.816 165.578C105.998 165.399 106.139 165.177 106.238 164.912L107.372 165.23C107.253 165.615 107.052 165.953 106.77 166.244C106.489 166.533 106.141 166.758 105.726 166.92C105.312 167.08 104.846 167.159 104.329 167.159ZM110.449 162.406V167H109.276V159.364H110.41V160.557H110.509C110.688 160.169 110.96 159.857 111.324 159.622C111.689 159.384 112.16 159.264 112.736 159.264C113.253 159.264 113.706 159.37 114.093 159.582C114.481 159.791 114.783 160.109 114.998 160.537C115.214 160.961 115.321 161.498 115.321 162.148V167H114.148V162.227C114.148 161.627 113.992 161.16 113.681 160.825C113.369 160.487 112.942 160.318 112.398 160.318C112.024 160.318 111.689 160.399 111.394 160.562C111.102 160.724 110.872 160.961 110.703 161.273C110.534 161.584 110.449 161.962 110.449 162.406ZM120.349 167.159C119.713 167.159 119.151 166.998 118.664 166.677C118.176 166.352 117.795 165.895 117.52 165.305C117.245 164.711 117.108 164.01 117.108 163.202C117.108 162.4 117.245 161.704 117.52 161.114C117.795 160.524 118.178 160.068 118.669 159.746C119.159 159.425 119.726 159.264 120.369 159.264C120.866 159.264 121.259 159.347 121.547 159.513C121.839 159.675 122.061 159.861 122.213 160.07C122.369 160.275 122.49 160.444 122.576 160.577H122.676V156.818H123.849V167H122.715V165.827H122.576C122.49 165.966 122.367 166.142 122.208 166.354C122.049 166.562 121.822 166.75 121.527 166.915C121.232 167.078 120.84 167.159 120.349 167.159ZM120.508 166.105C120.979 166.105 121.376 165.982 121.701 165.737C122.026 165.489 122.273 165.146 122.442 164.708C122.611 164.267 122.696 163.759 122.696 163.182C122.696 162.612 122.613 162.113 122.447 161.685C122.281 161.254 122.036 160.92 121.711 160.681C121.386 160.439 120.985 160.318 120.508 160.318C120.011 160.318 119.597 160.446 119.265 160.701C118.937 160.953 118.69 161.296 118.524 161.73C118.362 162.161 118.281 162.645 118.281 163.182C118.281 163.725 118.364 164.219 118.529 164.663C118.698 165.104 118.947 165.455 119.275 165.717C119.607 165.976 120.018 166.105 120.508 166.105ZM126.161 167V159.364H127.294V160.517H127.374C127.513 160.139 127.765 159.833 128.13 159.597C128.494 159.362 128.905 159.244 129.362 159.244C129.449 159.244 129.556 159.246 129.686 159.249C129.815 159.253 129.913 159.258 129.979 159.264V160.457C129.939 160.447 129.848 160.433 129.706 160.413C129.566 160.389 129.419 160.378 129.263 160.378C128.892 160.378 128.56 160.456 128.269 160.612C127.98 160.764 127.752 160.976 127.583 161.248C127.417 161.516 127.334 161.823 127.334 162.168V167H126.161ZM134.339 167.159C133.603 167.159 132.969 166.997 132.435 166.672C131.905 166.344 131.495 165.886 131.207 165.3C130.922 164.71 130.779 164.024 130.779 163.241C130.779 162.459 130.922 161.77 131.207 161.173C131.495 160.573 131.896 160.106 132.41 159.771C132.927 159.433 133.53 159.264 134.22 159.264C134.617 159.264 135.01 159.33 135.398 159.463C135.786 159.596 136.139 159.811 136.457 160.109C136.775 160.404 137.029 160.795 137.218 161.283C137.407 161.77 137.501 162.37 137.501 163.082V163.58H131.615V162.565H136.308C136.308 162.134 136.222 161.75 136.049 161.412C135.88 161.074 135.638 160.807 135.323 160.612C135.012 160.416 134.644 160.318 134.22 160.318C133.752 160.318 133.348 160.434 133.007 160.666C132.669 160.895 132.408 161.193 132.226 161.561C132.044 161.929 131.953 162.323 131.953 162.744V163.42C131.953 163.997 132.052 164.486 132.251 164.887C132.453 165.285 132.733 165.588 133.091 165.797C133.449 166.002 133.865 166.105 134.339 166.105C134.647 166.105 134.926 166.062 135.174 165.976C135.426 165.886 135.643 165.754 135.826 165.578C136.008 165.399 136.149 165.177 136.248 164.912L137.382 165.23C137.262 165.615 137.062 165.953 136.78 166.244C136.498 166.533 136.15 166.758 135.736 166.92C135.322 167.08 134.856 167.159 134.339 167.159ZM139.286 167V159.364H140.419V160.517H140.499C140.638 160.139 140.89 159.833 141.255 159.597C141.619 159.362 142.03 159.244 142.487 159.244C142.574 159.244 142.681 159.246 142.811 159.249C142.94 159.253 143.038 159.258 143.104 159.264V160.457C143.064 160.447 142.973 160.433 142.831 160.413C142.691 160.389 142.544 160.378 142.388 160.378C142.017 160.378 141.685 160.456 141.394 160.612C141.105 160.764 140.877 160.976 140.708 161.248C140.542 161.516 140.459 161.823 140.459 162.168V167H139.286ZM144.495 167V159.364H145.668V167H144.495ZM145.091 158.091C144.863 158.091 144.665 158.013 144.5 157.857C144.337 157.701 144.256 157.514 144.256 157.295C144.256 157.077 144.337 156.889 144.5 156.734C144.665 156.578 144.863 156.5 145.091 156.5C145.32 156.5 145.516 156.578 145.678 156.734C145.844 156.889 145.927 157.077 145.927 157.295C145.927 157.514 145.844 157.701 145.678 157.857C145.516 158.013 145.32 158.091 145.091 158.091ZM151.138 159.364V160.358H147.181V159.364H151.138ZM148.334 157.534H149.507V164.812C149.507 165.144 149.555 165.393 149.652 165.558C149.751 165.721 149.877 165.83 150.029 165.886C150.185 165.939 150.349 165.966 150.522 165.966C150.651 165.966 150.757 165.959 150.84 165.946C150.923 165.929 150.989 165.916 151.039 165.906L151.277 166.96C151.198 166.99 151.087 167.02 150.944 167.05C150.802 167.083 150.621 167.099 150.402 167.099C150.071 167.099 149.746 167.028 149.428 166.886C149.113 166.743 148.851 166.526 148.642 166.234C148.437 165.943 148.334 165.575 148.334 165.131V157.534ZM159.088 167.179C158.604 167.179 158.165 167.088 157.77 166.906C157.376 166.72 157.063 166.453 156.831 166.105C156.599 165.754 156.483 165.33 156.483 164.832C156.483 164.395 156.569 164.04 156.741 163.768C156.913 163.493 157.144 163.278 157.432 163.122C157.72 162.966 158.039 162.85 158.387 162.774C158.738 162.695 159.091 162.632 159.446 162.585C159.91 162.526 160.286 162.481 160.574 162.451C160.866 162.418 161.078 162.363 161.21 162.287C161.346 162.211 161.414 162.078 161.414 161.889V161.849C161.414 161.359 161.28 160.978 161.012 160.706C160.746 160.434 160.344 160.298 159.804 160.298C159.243 160.298 158.804 160.421 158.486 160.666C158.168 160.911 157.944 161.173 157.815 161.452L156.701 161.054C156.9 160.59 157.165 160.229 157.497 159.97C157.831 159.708 158.196 159.526 158.59 159.423C158.988 159.317 159.379 159.264 159.764 159.264C160.009 159.264 160.291 159.294 160.609 159.354C160.93 159.41 161.24 159.528 161.539 159.707C161.84 159.886 162.09 160.156 162.289 160.517C162.488 160.878 162.588 161.362 162.588 161.969V167H161.414V165.966H161.355C161.275 166.132 161.143 166.309 160.957 166.498C160.771 166.687 160.524 166.848 160.216 166.98C159.908 167.113 159.532 167.179 159.088 167.179ZM159.267 166.125C159.731 166.125 160.122 166.034 160.44 165.852C160.761 165.669 161.003 165.434 161.166 165.146C161.331 164.857 161.414 164.554 161.414 164.236V163.162C161.365 163.222 161.255 163.276 161.086 163.326C160.92 163.372 160.728 163.414 160.509 163.45C160.294 163.483 160.084 163.513 159.878 163.54C159.676 163.563 159.512 163.583 159.386 163.599C159.081 163.639 158.796 163.704 158.531 163.793C158.269 163.879 158.057 164.01 157.894 164.186C157.735 164.358 157.656 164.594 157.656 164.892C157.656 165.3 157.807 165.608 158.108 165.817C158.413 166.022 158.799 166.125 159.267 166.125ZM165.902 162.406V167H164.729V159.364H165.863V160.557H165.962C166.141 160.169 166.413 159.857 166.777 159.622C167.142 159.384 167.613 159.264 168.189 159.264C168.706 159.264 169.159 159.37 169.547 159.582C169.934 159.791 170.236 160.109 170.451 160.537C170.667 160.961 170.775 161.498 170.775 162.148V167H169.601V162.227C169.601 161.627 169.446 161.16 169.134 160.825C168.822 160.487 168.395 160.318 167.851 160.318C167.477 160.318 167.142 160.399 166.847 160.562C166.555 160.724 166.325 160.961 166.156 161.273C165.987 161.584 165.902 161.962 165.902 162.406ZM176.24 159.364V160.358H172.282V159.364H176.24ZM173.436 157.534H174.609V164.812C174.609 165.144 174.657 165.393 174.753 165.558C174.853 165.721 174.978 165.83 175.131 165.886C175.287 165.939 175.451 165.966 175.623 165.966C175.752 165.966 175.858 165.959 175.941 165.946C176.024 165.929 176.09 165.916 176.14 165.906L176.379 166.96C176.299 166.99 176.188 167.02 176.046 167.05C175.903 167.083 175.723 167.099 175.504 167.099C175.172 167.099 174.848 167.028 174.529 166.886C174.215 166.743 173.953 166.526 173.744 166.234C173.538 165.943 173.436 165.575 173.436 165.131V157.534ZM181.124 167.159C180.388 167.159 179.754 166.997 179.22 166.672C178.69 166.344 178.28 165.886 177.992 165.3C177.707 164.71 177.565 164.024 177.565 163.241C177.565 162.459 177.707 161.77 177.992 161.173C178.28 160.573 178.681 160.106 179.195 159.771C179.712 159.433 180.315 159.264 181.005 159.264C181.403 159.264 181.795 159.33 182.183 159.463C182.571 159.596 182.924 159.811 183.242 160.109C183.56 160.404 183.814 160.795 184.003 161.283C184.192 161.77 184.286 162.37 184.286 163.082V163.58H178.4V162.565H183.093C183.093 162.134 183.007 161.75 182.834 161.412C182.665 161.074 182.423 160.807 182.109 160.612C181.797 160.416 181.429 160.318 181.005 160.318C180.538 160.318 180.133 160.434 179.792 160.666C179.454 160.895 179.194 161.193 179.011 161.561C178.829 161.929 178.738 162.323 178.738 162.744V163.42C178.738 163.997 178.837 164.486 179.036 164.887C179.238 165.285 179.518 165.588 179.876 165.797C180.234 166.002 180.65 166.105 181.124 166.105C181.432 166.105 181.711 166.062 181.959 165.976C182.211 165.886 182.428 165.754 182.611 165.578C182.793 165.399 182.934 165.177 183.033 164.912L184.167 165.23C184.047 165.615 183.847 165.953 183.565 166.244C183.284 166.533 182.936 166.758 182.521 166.92C182.107 167.08 181.641 167.159 181.124 167.159ZM186.926 167.08C186.681 167.08 186.47 166.992 186.295 166.816C186.119 166.64 186.031 166.43 186.031 166.185C186.031 165.939 186.119 165.729 186.295 165.553C186.47 165.378 186.681 165.29 186.926 165.29C187.171 165.29 187.382 165.378 187.557 165.553C187.733 165.729 187.821 165.939 187.821 166.185C187.821 166.347 187.78 166.496 187.697 166.632C187.617 166.768 187.509 166.877 187.373 166.96C187.241 167.04 187.092 167.08 186.926 167.08ZM202.216 160H200.983C200.91 159.645 200.783 159.334 200.6 159.065C200.421 158.797 200.203 158.571 199.944 158.389C199.689 158.204 199.406 158.064 199.094 157.972C198.782 157.879 198.458 157.832 198.12 157.832C197.503 157.832 196.945 157.988 196.444 158.3C195.947 158.611 195.551 159.07 195.256 159.677C194.964 160.283 194.818 161.027 194.818 161.909C194.818 162.791 194.964 163.535 195.256 164.141C195.551 164.748 195.947 165.207 196.444 165.518C196.945 165.83 197.503 165.986 198.12 165.986C198.458 165.986 198.782 165.939 199.094 165.847C199.406 165.754 199.689 165.616 199.944 165.434C200.203 165.248 200.421 165.021 200.6 164.753C200.783 164.481 200.91 164.17 200.983 163.818H202.216C202.123 164.339 201.954 164.804 201.709 165.215C201.464 165.626 201.159 165.976 200.794 166.264C200.43 166.549 200.02 166.766 199.566 166.915C199.116 167.065 198.633 167.139 198.12 167.139C197.251 167.139 196.479 166.927 195.803 166.503C195.127 166.079 194.595 165.475 194.207 164.693C193.819 163.911 193.625 162.983 193.625 161.909C193.625 160.835 193.819 159.907 194.207 159.125C194.595 158.343 195.127 157.74 195.803 157.315C196.479 156.891 197.251 156.679 198.12 156.679C198.633 156.679 199.116 156.754 199.566 156.903C200.02 157.052 200.43 157.271 200.794 157.559C201.159 157.844 201.464 158.192 201.709 158.603C201.954 159.011 202.123 159.476 202.216 160ZM208.862 163.878V159.364H210.035V167H208.862V165.707H208.782C208.603 166.095 208.325 166.425 207.947 166.697C207.569 166.965 207.092 167.099 206.515 167.099C206.038 167.099 205.614 166.995 205.243 166.786C204.871 166.574 204.58 166.256 204.368 165.832C204.156 165.404 204.049 164.866 204.049 164.216V159.364H205.223V164.136C205.223 164.693 205.379 165.137 205.69 165.469C206.005 165.8 206.406 165.966 206.893 165.966C207.185 165.966 207.482 165.891 207.783 165.742C208.088 165.593 208.343 165.364 208.549 165.056C208.758 164.748 208.862 164.355 208.862 163.878ZM212.184 167V159.364H213.318V160.517H213.397C213.536 160.139 213.788 159.833 214.153 159.597C214.518 159.362 214.929 159.244 215.386 159.244C215.472 159.244 215.58 159.246 215.709 159.249C215.838 159.253 215.936 159.258 216.002 159.264V160.457C215.963 160.447 215.871 160.433 215.729 160.413C215.59 160.389 215.442 160.378 215.286 160.378C214.915 160.378 214.584 160.456 214.292 160.612C214.004 160.764 213.775 160.976 213.606 161.248C213.44 161.516 213.358 161.823 213.358 162.168V167H212.184ZM219.64 167.179C219.156 167.179 218.717 167.088 218.323 166.906C217.928 166.72 217.615 166.453 217.383 166.105C217.151 165.754 217.035 165.33 217.035 164.832C217.035 164.395 217.121 164.04 217.294 163.768C217.466 163.493 217.696 163.278 217.985 163.122C218.273 162.966 218.591 162.85 218.939 162.774C219.291 162.695 219.644 162.632 219.998 162.585C220.462 162.526 220.839 162.481 221.127 162.451C221.419 162.418 221.631 162.363 221.763 162.287C221.899 162.211 221.967 162.078 221.967 161.889V161.849C221.967 161.359 221.833 160.978 221.564 160.706C221.299 160.434 220.897 160.298 220.356 160.298C219.796 160.298 219.357 160.421 219.039 160.666C218.721 160.911 218.497 161.173 218.368 161.452L217.254 161.054C217.453 160.59 217.718 160.229 218.049 159.97C218.384 159.708 218.749 159.526 219.143 159.423C219.541 159.317 219.932 159.264 220.316 159.264C220.562 159.264 220.843 159.294 221.162 159.354C221.483 159.41 221.793 159.528 222.091 159.707C222.393 159.886 222.643 160.156 222.842 160.517C223.041 160.878 223.14 161.362 223.14 161.969V167H221.967V165.966H221.907C221.828 166.132 221.695 166.309 221.51 166.498C221.324 166.687 221.077 166.848 220.769 166.98C220.461 167.113 220.084 167.179 219.64 167.179ZM219.819 166.125C220.283 166.125 220.674 166.034 220.993 165.852C221.314 165.669 221.556 165.434 221.718 165.146C221.884 164.857 221.967 164.554 221.967 164.236V163.162C221.917 163.222 221.808 163.276 221.639 163.326C221.473 163.372 221.281 163.414 221.062 163.45C220.847 163.483 220.636 163.513 220.431 163.54C220.229 163.563 220.065 163.583 219.939 163.599C219.634 163.639 219.349 163.704 219.084 163.793C218.822 163.879 218.61 164.01 218.447 164.186C218.288 164.358 218.209 164.594 218.209 164.892C218.209 165.3 218.359 165.608 218.661 165.817C218.966 166.022 219.352 166.125 219.819 166.125ZM225.441 167V156.818H226.614V160.577H226.714C226.8 160.444 226.919 160.275 227.072 160.07C227.227 159.861 227.449 159.675 227.738 159.513C228.03 159.347 228.424 159.264 228.921 159.264C229.564 159.264 230.131 159.425 230.621 159.746C231.112 160.068 231.495 160.524 231.77 161.114C232.045 161.704 232.182 162.4 232.182 163.202C232.182 164.01 232.045 164.711 231.77 165.305C231.495 165.895 231.114 166.352 230.626 166.677C230.139 166.998 229.577 167.159 228.941 167.159C228.45 167.159 228.058 167.078 227.763 166.915C227.468 166.75 227.241 166.562 227.082 166.354C226.922 166.142 226.8 165.966 226.714 165.827H226.574V167H225.441ZM226.594 163.182C226.594 163.759 226.679 164.267 226.848 164.708C227.017 165.146 227.264 165.489 227.589 165.737C227.914 165.982 228.311 166.105 228.782 166.105C229.272 166.105 229.682 165.976 230.01 165.717C230.341 165.455 230.59 165.104 230.756 164.663C230.925 164.219 231.009 163.725 231.009 163.182C231.009 162.645 230.926 162.161 230.761 161.73C230.598 161.296 230.351 160.953 230.02 160.701C229.692 160.446 229.279 160.318 228.782 160.318C228.305 160.318 227.904 160.439 227.579 160.681C227.254 160.92 227.009 161.254 226.843 161.685C226.677 162.113 226.594 162.612 226.594 163.182ZM233.977 167V159.364H235.15V167H233.977ZM234.574 158.091C234.345 158.091 234.148 158.013 233.982 157.857C233.82 157.701 233.739 157.514 233.739 157.295C233.739 157.077 233.82 156.889 233.982 156.734C234.148 156.578 234.345 156.5 234.574 156.5C234.802 156.5 234.998 156.578 235.16 156.734C235.326 156.889 235.409 157.077 235.409 157.295C235.409 157.514 235.326 157.701 235.16 157.857C234.998 158.013 234.802 158.091 234.574 158.091ZM240.62 159.364V160.358H236.663V159.364H240.62ZM237.816 157.534H238.99V164.812C238.99 165.144 239.038 165.393 239.134 165.558C239.233 165.721 239.359 165.83 239.512 165.886C239.668 165.939 239.832 165.966 240.004 165.966C240.133 165.966 240.239 165.959 240.322 165.946C240.405 165.929 240.471 165.916 240.521 165.906L240.76 166.96C240.68 166.99 240.569 167.02 240.427 167.05C240.284 167.083 240.103 167.099 239.885 167.099C239.553 167.099 239.228 167.028 238.91 166.886C238.595 166.743 238.334 166.526 238.125 166.234C237.919 165.943 237.816 165.575 237.816 165.131V157.534ZM247.198 163.878V159.364H248.371V167H247.198V165.707H247.118C246.939 166.095 246.661 166.425 246.283 166.697C245.905 166.965 245.428 167.099 244.851 167.099C244.374 167.099 243.95 166.995 243.579 166.786C243.207 166.574 242.916 166.256 242.704 165.832C242.491 165.404 242.385 164.866 242.385 164.216V159.364H243.559V164.136C243.559 164.693 243.714 165.137 244.026 165.469C244.341 165.8 244.742 165.966 245.229 165.966C245.521 165.966 245.817 165.891 246.119 165.742C246.424 165.593 246.679 165.364 246.885 165.056C247.093 164.748 247.198 164.355 247.198 163.878ZM250.52 167V159.364H251.654V160.517H251.733C251.872 160.139 252.124 159.833 252.489 159.597C252.853 159.362 253.264 159.244 253.722 159.244C253.808 159.244 253.916 159.246 254.045 159.249C254.174 159.253 254.272 159.258 254.338 159.264V160.457C254.299 160.447 254.207 160.433 254.065 160.413C253.926 160.389 253.778 160.378 253.622 160.378C253.251 160.378 252.92 160.456 252.628 160.612C252.34 160.764 252.111 160.976 251.942 161.248C251.776 161.516 251.693 161.823 251.693 162.168V167H250.52ZM259.667 167V159.364H260.84V167H259.667ZM260.263 158.091C260.035 158.091 259.837 158.013 259.672 157.857C259.509 157.701 259.428 157.514 259.428 157.295C259.428 157.077 259.509 156.889 259.672 156.734C259.837 156.578 260.035 156.5 260.263 156.5C260.492 156.5 260.687 156.578 260.85 156.734C261.016 156.889 261.098 157.077 261.098 157.295C261.098 157.514 261.016 157.701 260.85 157.857C260.687 158.013 260.492 158.091 260.263 158.091ZM264.162 162.406V167H262.989V159.364H264.122V160.557H264.222C264.401 160.169 264.673 159.857 265.037 159.622C265.402 159.384 265.872 159.264 266.449 159.264C266.966 159.264 267.419 159.37 267.806 159.582C268.194 159.791 268.496 160.109 268.711 160.537C268.927 160.961 269.034 161.498 269.034 162.148V167H267.861V162.227C267.861 161.627 267.705 161.16 267.394 160.825C267.082 160.487 266.655 160.318 266.111 160.318C265.737 160.318 265.402 160.399 265.107 160.562C264.815 160.724 264.585 160.961 264.416 161.273C264.247 161.584 264.162 161.962 264.162 162.406ZM22.2657 176.818V187H21.0924V176.818H22.2657ZM24.4147 187V179.364H25.588V187H24.4147ZM25.0113 178.091C24.7826 178.091 24.5854 178.013 24.4197 177.857C24.2573 177.701 24.176 177.514 24.176 177.295C24.176 177.077 24.2573 176.889 24.4197 176.734C24.5854 176.578 24.7826 176.5 25.0113 176.5C25.24 176.5 25.4355 176.578 25.5979 176.734C25.7636 176.889 25.8465 177.077 25.8465 177.295C25.8465 177.514 25.7636 177.701 25.5979 177.857C25.4355 178.013 25.24 178.091 25.0113 178.091ZM27.896 187V176.818H29.0693V180.577H29.1688C29.2549 180.444 29.3743 180.275 29.5267 180.07C29.6825 179.861 29.9046 179.675 30.1929 179.513C30.4846 179.347 30.879 179.264 31.3762 179.264C32.0191 179.264 32.5859 179.425 33.0764 179.746C33.567 180.068 33.9498 180.524 34.2249 181.114C34.5 181.704 34.6375 182.4 34.6375 183.202C34.6375 184.01 34.5 184.711 34.2249 185.305C33.9498 185.895 33.5686 186.352 33.0814 186.677C32.5942 186.998 32.0324 187.159 31.396 187.159C30.9055 187.159 30.5128 187.078 30.2178 186.915C29.9228 186.75 29.6958 186.562 29.5367 186.354C29.3776 186.142 29.2549 185.966 29.1688 185.827H29.0296V187H27.896ZM29.0494 183.182C29.0494 183.759 29.134 184.267 29.303 184.708C29.472 185.146 29.719 185.489 30.0438 185.737C30.3686 185.982 30.7663 186.105 31.2369 186.105C31.7275 186.105 32.1368 185.976 32.4649 185.717C32.7964 185.455 33.045 185.104 33.2107 184.663C33.3797 184.219 33.4642 183.725 33.4642 183.182C33.4642 182.645 33.3814 182.161 33.2156 181.73C33.0532 181.296 32.8063 180.953 32.4749 180.701C32.1468 180.446 31.7341 180.318 31.2369 180.318C30.7597 180.318 30.3586 180.439 30.0338 180.681C29.709 180.92 29.4637 181.254 29.298 181.685C29.1323 182.113 29.0494 182.612 29.0494 183.182ZM39.634 187.159C38.8982 187.159 38.2635 186.997 37.7298 186.672C37.1995 186.344 36.7902 185.886 36.5019 185.3C36.2168 184.71 36.0743 184.024 36.0743 183.241C36.0743 182.459 36.2168 181.77 36.5019 181.173C36.7902 180.573 37.1913 180.106 37.705 179.771C38.222 179.433 38.8253 179.264 39.5146 179.264C39.9124 179.264 40.3051 179.33 40.6929 179.463C41.0807 179.596 41.4337 179.811 41.7519 180.109C42.07 180.404 42.3236 180.795 42.5125 181.283C42.7014 181.77 42.7959 182.37 42.7959 183.082V183.58H36.9095V182.565H41.6027C41.6027 182.134 41.5165 181.75 41.3442 181.412C41.1752 181.074 40.9332 180.807 40.6183 180.612C40.3068 180.416 39.9389 180.318 39.5146 180.318C39.0473 180.318 38.643 180.434 38.3016 180.666C37.9635 180.895 37.7033 181.193 37.521 181.561C37.3387 181.929 37.2476 182.323 37.2476 182.744V183.42C37.2476 183.997 37.347 184.486 37.5459 184.887C37.7481 185.285 38.0281 185.588 38.3861 185.797C38.7441 186.002 39.16 186.105 39.634 186.105C39.9422 186.105 40.2206 186.062 40.4692 185.976C40.7211 185.886 40.9382 185.754 41.1205 185.578C41.3028 185.399 41.4436 185.177 41.5431 184.912L42.6766 185.23C42.5573 185.615 42.3567 185.953 42.075 186.244C41.7933 186.533 41.4453 186.758 41.031 186.92C40.6167 187.08 40.151 187.159 39.634 187.159ZM44.5807 187V179.364H45.7142V180.517H45.7938C45.933 180.139 46.1849 179.833 46.5494 179.597C46.914 179.362 47.325 179.244 47.7824 179.244C47.8686 179.244 47.9763 179.246 48.1056 179.249C48.2348 179.253 48.3326 179.258 48.3989 179.264V180.457C48.3591 180.447 48.268 180.433 48.1254 180.413C47.9862 180.389 47.8387 180.378 47.683 180.378C47.3118 180.378 46.9803 180.456 46.6887 180.612C46.4003 180.764 46.1716 180.976 46.0026 181.248C45.8369 181.516 45.754 181.823 45.754 182.168V187H44.5807ZM52.6595 187.159C51.9701 187.159 51.3653 186.995 50.8449 186.667C50.3279 186.339 49.9235 185.88 49.6318 185.29C49.3435 184.7 49.1993 184.01 49.1993 183.222C49.1993 182.426 49.3435 181.732 49.6318 181.138C49.9235 180.545 50.3279 180.085 50.8449 179.756C51.3653 179.428 51.9701 179.264 52.6595 179.264C53.3489 179.264 53.9521 179.428 54.4692 179.756C54.9896 180.085 55.3939 180.545 55.6823 181.138C55.9739 181.732 56.1198 182.426 56.1198 183.222C56.1198 184.01 55.9739 184.7 55.6823 185.29C55.3939 185.88 54.9896 186.339 54.4692 186.667C53.9521 186.995 53.3489 187.159 52.6595 187.159ZM52.6595 186.105C53.1832 186.105 53.6141 185.971 53.9521 185.702C54.2902 185.434 54.5405 185.081 54.7029 184.643C54.8653 184.206 54.9465 183.732 54.9465 183.222C54.9465 182.711 54.8653 182.236 54.7029 181.795C54.5405 181.354 54.2902 180.998 53.9521 180.726C53.6141 180.454 53.1832 180.318 52.6595 180.318C52.1359 180.318 51.705 180.454 51.3669 180.726C51.0289 180.998 50.7786 181.354 50.6162 181.795C50.4538 182.236 50.3726 182.711 50.3726 183.222C50.3726 183.732 50.4538 184.206 50.6162 184.643C50.7786 185.081 51.0289 185.434 51.3669 185.702C51.705 185.971 52.1359 186.105 52.6595 186.105ZM63.0216 182.406V187H61.8483V179.364H62.9818V180.557H63.0812C63.2602 180.169 63.532 179.857 63.8966 179.622C64.2612 179.384 64.7318 179.264 65.3085 179.264C65.8256 179.264 66.278 179.37 66.6657 179.582C67.0535 179.791 67.3551 180.109 67.5706 180.537C67.786 180.961 67.8937 181.498 67.8937 182.148V187H66.7204V182.227C66.7204 181.627 66.5647 181.16 66.2531 180.825C65.9416 180.487 65.514 180.318 64.9704 180.318C64.5959 180.318 64.2612 180.399 63.9662 180.562C63.6745 180.724 63.4442 180.961 63.2751 181.273C63.1061 181.584 63.0216 181.962 63.0216 182.406ZM73.2394 187.159C72.5036 187.159 71.8689 186.997 71.3353 186.672C70.805 186.344 70.3957 185.886 70.1073 185.3C69.8223 184.71 69.6798 184.024 69.6798 183.241C69.6798 182.459 69.8223 181.77 70.1073 181.173C70.3957 180.573 70.7967 180.106 71.3105 179.771C71.8275 179.433 72.4307 179.264 73.1201 179.264C73.5178 179.264 73.9106 179.33 74.2984 179.463C74.6862 179.596 75.0392 179.811 75.3573 180.109C75.6755 180.404 75.9291 180.795 76.118 181.283C76.3069 181.77 76.4014 182.37 76.4014 183.082V183.58H70.515V182.565H75.2082C75.2082 182.134 75.122 181.75 74.9497 181.412C74.7806 181.074 74.5387 180.807 74.2238 180.612C73.9123 180.416 73.5444 180.318 73.1201 180.318C72.6528 180.318 72.2484 180.434 71.907 180.666C71.569 180.895 71.3088 181.193 71.1265 181.561C70.9442 181.929 70.8531 182.323 70.8531 182.744V183.42C70.8531 183.997 70.9525 184.486 71.1514 184.887C71.3535 185.285 71.6336 185.588 71.9916 185.797C72.3495 186.002 72.7655 186.105 73.2394 186.105C73.5477 186.105 73.8261 186.062 74.0747 185.976C74.3266 185.886 74.5436 185.754 74.7259 185.578C74.9082 185.399 75.0491 185.177 75.1485 184.912L76.282 185.23C76.1627 185.615 75.9622 185.953 75.6805 186.244C75.3988 186.533 75.0508 186.758 74.6365 186.92C74.2222 187.08 73.7565 187.159 73.2394 187.159ZM83.3964 189.864V185.827H83.297C83.2108 185.966 83.0882 186.142 82.9291 186.354C82.77 186.562 82.5429 186.75 82.248 186.915C81.953 187.078 81.5602 187.159 81.0697 187.159C80.4333 187.159 79.8715 186.998 79.3843 186.677C78.8971 186.352 78.516 185.895 78.2409 185.305C77.9658 184.711 77.8282 184.01 77.8282 183.202C77.8282 182.4 77.9658 181.704 78.2409 181.114C78.516 180.524 78.8988 180.068 79.3893 179.746C79.8798 179.425 80.4466 179.264 81.0896 179.264C81.5867 179.264 81.9795 179.347 82.2678 179.513C82.5595 179.675 82.7816 179.861 82.934 180.07C83.0898 180.275 83.2108 180.444 83.297 180.577H83.4362V179.364H84.5697V189.864H83.3964ZM81.2288 186.105C81.6994 186.105 82.0972 185.982 82.422 185.737C82.7468 185.489 82.9937 185.146 83.1627 184.708C83.3318 184.267 83.4163 183.759 83.4163 183.182C83.4163 182.612 83.3334 182.113 83.1677 181.685C83.002 181.254 82.7567 180.92 82.4319 180.681C82.1071 180.439 81.7061 180.318 81.2288 180.318C80.7316 180.318 80.3173 180.446 79.9859 180.701C79.6578 180.953 79.4108 181.296 79.2451 181.73C79.0827 182.161 79.0015 182.645 79.0015 183.182C79.0015 183.725 79.0844 184.219 79.2501 184.663C79.4191 185.104 79.6677 185.455 79.9958 185.717C80.3273 185.976 80.7383 186.105 81.2288 186.105ZM91.5299 183.878V179.364H92.7032V187H91.5299V185.707H91.4504C91.2714 186.095 90.993 186.425 90.6151 186.697C90.2373 186.965 89.76 187.099 89.1833 187.099C88.7061 187.099 88.2818 186.995 87.9106 186.786C87.5394 186.574 87.2477 186.256 87.0356 185.832C86.8235 185.404 86.7174 184.866 86.7174 184.216V179.364H87.8907V184.136C87.8907 184.693 88.0465 185.137 88.358 185.469C88.6729 185.8 89.074 185.966 89.5612 185.966C89.8528 185.966 90.1495 185.891 90.4511 185.742C90.756 185.593 91.0112 185.364 91.2167 185.056C91.4255 184.748 91.5299 184.355 91.5299 183.878ZM98.0539 187.159C97.3181 187.159 96.6834 186.997 96.1498 186.672C95.6195 186.344 95.2101 185.886 94.9218 185.3C94.6367 184.71 94.4942 184.024 94.4942 183.241C94.4942 182.459 94.6367 181.77 94.9218 181.173C95.2101 180.573 95.6112 180.106 96.1249 179.771C96.642 179.433 97.2452 179.264 97.9346 179.264C98.3323 179.264 98.7251 179.33 99.1128 179.463C99.5006 179.596 99.8536 179.811 100.172 180.109C100.49 180.404 100.744 180.795 100.932 181.283C101.121 181.77 101.216 182.37 101.216 183.082V183.58H95.3295V182.565H100.023C100.023 182.134 99.9365 181.75 99.7641 181.412C99.5951 181.074 99.3531 180.807 99.0383 180.612C98.7267 180.416 98.3588 180.318 97.9346 180.318C97.4672 180.318 97.0629 180.434 96.7215 180.666C96.3834 180.895 96.1233 181.193 95.941 181.561C95.7587 181.929 95.6675 182.323 95.6675 182.744V183.42C95.6675 183.997 95.767 184.486 95.9658 184.887C96.168 185.285 96.4481 185.588 96.806 185.797C97.164 186.002 97.5799 186.105 98.0539 186.105C98.3621 186.105 98.6405 186.062 98.8891 185.976C99.141 185.886 99.3581 185.754 99.5404 185.578C99.7227 185.399 99.8635 185.177 99.963 184.912L101.097 185.23C100.977 185.615 100.777 185.953 100.495 186.244C100.213 186.533 99.8652 186.758 99.4509 186.92C99.0366 187.08 98.5709 187.159 98.0539 187.159ZM103.856 187.08C103.61 187.08 103.4 186.992 103.224 186.816C103.049 186.64 102.961 186.43 102.961 186.185C102.961 185.939 103.049 185.729 103.224 185.553C103.4 185.378 103.61 185.29 103.856 185.29C104.101 185.29 104.311 185.378 104.487 185.553C104.663 185.729 104.751 185.939 104.751 186.185C104.751 186.347 104.709 186.496 104.626 186.632C104.547 186.768 104.439 186.877 104.303 186.96C104.171 187.04 104.021 187.08 103.856 187.08ZM119.027 176.818V187H117.833L112.285 179.006H112.186V187H110.953V176.818H112.146L117.714 184.832H117.813V176.818H119.027ZM126.147 183.878V179.364H127.32V187H126.147V185.707H126.068C125.889 186.095 125.61 186.425 125.232 186.697C124.854 186.965 124.377 187.099 123.801 187.099C123.323 187.099 122.899 186.995 122.528 186.786C122.157 186.574 121.865 186.256 121.653 185.832C121.441 185.404 121.335 184.866 121.335 184.216V179.364H122.508V184.136C122.508 184.693 122.664 185.137 122.975 185.469C123.29 185.8 123.691 185.966 124.178 185.966C124.47 185.966 124.767 185.891 125.068 185.742C125.373 185.593 125.628 185.364 125.834 185.056C126.043 184.748 126.147 184.355 126.147 183.878ZM130.643 176.818V187H129.469V176.818H130.643ZM133.965 176.818V187H132.792V176.818H133.965ZM138.361 187.179C137.877 187.179 137.438 187.088 137.044 186.906C136.649 186.72 136.336 186.453 136.104 186.105C135.872 185.754 135.756 185.33 135.756 184.832C135.756 184.395 135.842 184.04 136.014 183.768C136.187 183.493 136.417 183.278 136.706 183.122C136.994 182.966 137.312 182.85 137.66 182.774C138.011 182.695 138.364 182.632 138.719 182.585C139.183 182.526 139.559 182.481 139.848 182.451C140.139 182.418 140.351 182.363 140.484 182.287C140.62 182.211 140.688 182.078 140.688 181.889V181.849C140.688 181.359 140.554 180.978 140.285 180.706C140.02 180.434 139.617 180.298 139.077 180.298C138.517 180.298 138.078 180.421 137.759 180.666C137.441 180.911 137.218 181.173 137.088 181.452L135.975 181.054C136.174 180.59 136.439 180.229 136.77 179.97C137.105 179.708 137.469 179.526 137.864 179.423C138.262 179.317 138.653 179.264 139.037 179.264C139.282 179.264 139.564 179.294 139.882 179.354C140.204 179.41 140.514 179.528 140.812 179.707C141.114 179.886 141.364 180.156 141.563 180.517C141.762 180.878 141.861 181.362 141.861 181.969V187H140.688V185.966H140.628C140.549 186.132 140.416 186.309 140.23 186.498C140.045 186.687 139.798 186.848 139.49 186.98C139.181 187.113 138.805 187.179 138.361 187.179ZM138.54 186.125C139.004 186.125 139.395 186.034 139.713 185.852C140.035 185.669 140.277 185.434 140.439 185.146C140.605 184.857 140.688 184.554 140.688 184.236V183.162C140.638 183.222 140.529 183.276 140.36 183.326C140.194 183.372 140.002 183.414 139.783 183.45C139.568 183.483 139.357 183.513 139.152 183.54C138.949 183.563 138.785 183.583 138.659 183.599C138.354 183.639 138.069 183.704 137.804 183.793C137.542 183.879 137.33 184.01 137.168 184.186C137.009 184.358 136.929 184.594 136.929 184.892C136.929 185.3 137.08 185.608 137.382 185.817C137.687 186.022 138.073 186.125 138.54 186.125ZM150.187 187.179C149.703 187.179 149.264 187.088 148.87 186.906C148.475 186.72 148.162 186.453 147.93 186.105C147.698 185.754 147.582 185.33 147.582 184.832C147.582 184.395 147.668 184.04 147.841 183.768C148.013 183.493 148.243 183.278 148.532 183.122C148.82 182.966 149.138 182.85 149.486 182.774C149.838 182.695 150.191 182.632 150.545 182.585C151.009 182.526 151.385 182.481 151.674 182.451C151.965 182.418 152.178 182.363 152.31 182.287C152.446 182.211 152.514 182.078 152.514 181.889V181.849C152.514 181.359 152.38 180.978 152.111 180.706C151.846 180.434 151.443 180.298 150.903 180.298C150.343 180.298 149.904 180.421 149.586 180.666C149.267 180.911 149.044 181.173 148.915 181.452L147.801 181.054C148 180.59 148.265 180.229 148.596 179.97C148.931 179.708 149.296 179.526 149.69 179.423C150.088 179.317 150.479 179.264 150.863 179.264C151.109 179.264 151.39 179.294 151.709 179.354C152.03 179.41 152.34 179.528 152.638 179.707C152.94 179.886 153.19 180.156 153.389 180.517C153.588 180.878 153.687 181.362 153.687 181.969V187H152.514V185.966H152.454C152.375 186.132 152.242 186.309 152.057 186.498C151.871 186.687 151.624 186.848 151.316 186.98C151.008 187.113 150.631 187.179 150.187 187.179ZM150.366 186.125C150.83 186.125 151.221 186.034 151.54 185.852C151.861 185.669 152.103 185.434 152.265 185.146C152.431 184.857 152.514 184.554 152.514 184.236V183.162C152.464 183.222 152.355 183.276 152.186 183.326C152.02 183.372 151.828 183.414 151.609 183.45C151.394 183.483 151.183 183.513 150.978 183.54C150.776 183.563 150.611 183.583 150.486 183.599C150.181 183.639 149.896 183.704 149.63 183.793C149.369 183.879 149.156 184.01 148.994 184.186C148.835 184.358 148.755 184.594 148.755 184.892C148.755 185.3 148.906 185.608 149.208 185.817C149.513 186.022 149.899 186.125 150.366 186.125ZM159.15 179.364V180.358H155.192V179.364H159.15ZM156.346 177.534H157.519V184.812C157.519 185.144 157.567 185.393 157.663 185.558C157.763 185.721 157.889 185.83 158.041 185.886C158.197 185.939 158.361 185.966 158.533 185.966C158.663 185.966 158.769 185.959 158.851 185.946C158.934 185.929 159.001 185.916 159.05 185.906L159.289 186.96C159.209 186.99 159.098 187.02 158.956 187.05C158.813 187.083 158.633 187.099 158.414 187.099C158.083 187.099 157.758 187.028 157.44 186.886C157.125 186.743 156.863 186.526 156.654 186.234C156.449 185.943 156.346 185.575 156.346 185.131V177.534ZM171.097 179.364L168.273 187H167.079L164.256 179.364H165.528L167.636 185.449H167.716L169.824 179.364H171.097ZM175.573 187.159C174.838 187.159 174.203 186.997 173.669 186.672C173.139 186.344 172.73 185.886 172.441 185.3C172.156 184.71 172.014 184.024 172.014 183.241C172.014 182.459 172.156 181.77 172.441 181.173C172.73 180.573 173.131 180.106 173.644 179.771C174.161 179.433 174.765 179.264 175.454 179.264C175.852 179.264 176.245 179.33 176.632 179.463C177.02 179.596 177.373 179.811 177.691 180.109C178.009 180.404 178.263 180.795 178.452 181.283C178.641 181.77 178.735 182.37 178.735 183.082V183.58H172.849V182.565H177.542C177.542 182.134 177.456 181.75 177.284 181.412C177.115 181.074 176.873 180.807 176.558 180.612C176.246 180.416 175.878 180.318 175.454 180.318C174.987 180.318 174.582 180.434 174.241 180.666C173.903 180.895 173.643 181.193 173.46 181.561C173.278 181.929 173.187 182.323 173.187 182.744V183.42C173.187 183.997 173.286 184.486 173.485 184.887C173.688 185.285 173.968 185.588 174.326 185.797C174.684 186.002 175.099 186.105 175.573 186.105C175.882 186.105 176.16 186.062 176.409 185.976C176.661 185.886 176.878 185.754 177.06 185.578C177.242 185.399 177.383 185.177 177.483 184.912L178.616 185.23C178.497 185.615 178.296 185.953 178.014 186.244C177.733 186.533 177.385 186.758 176.97 186.92C176.556 187.08 176.09 187.159 175.573 187.159ZM185.929 181.074L184.875 181.372C184.809 181.196 184.711 181.026 184.582 180.86C184.456 180.691 184.284 180.552 184.065 180.442C183.846 180.333 183.566 180.278 183.225 180.278C182.757 180.278 182.368 180.386 182.056 180.602C181.748 180.814 181.594 181.084 181.594 181.412C181.594 181.704 181.7 181.934 181.912 182.103C182.124 182.272 182.456 182.413 182.907 182.526L184.04 182.804C184.723 182.97 185.232 183.223 185.566 183.565C185.901 183.903 186.068 184.339 186.068 184.872C186.068 185.31 185.943 185.701 185.691 186.045C185.442 186.39 185.094 186.662 184.647 186.861C184.199 187.06 183.679 187.159 183.085 187.159C182.307 187.159 181.662 186.99 181.152 186.652C180.641 186.314 180.318 185.82 180.182 185.17L181.296 184.892C181.402 185.303 181.602 185.611 181.897 185.817C182.196 186.022 182.585 186.125 183.066 186.125C183.612 186.125 184.047 186.009 184.368 185.777C184.693 185.542 184.855 185.26 184.855 184.932C184.855 184.667 184.763 184.445 184.577 184.266C184.391 184.083 184.106 183.947 183.722 183.858L182.449 183.56C181.75 183.394 181.236 183.137 180.908 182.789C180.583 182.438 180.421 181.999 180.421 181.472C180.421 181.041 180.542 180.66 180.784 180.328C181.029 179.997 181.362 179.737 181.783 179.548C182.207 179.359 182.688 179.264 183.225 179.264C183.98 179.264 184.574 179.43 185.005 179.761C185.439 180.093 185.747 180.53 185.929 181.074ZM191.156 179.364V180.358H187.198V179.364H191.156ZM188.352 177.534H189.525V184.812C189.525 185.144 189.573 185.393 189.669 185.558C189.769 185.721 189.895 185.83 190.047 185.886C190.203 185.939 190.367 185.966 190.539 185.966C190.668 185.966 190.774 185.959 190.857 185.946C190.94 185.929 191.006 185.916 191.056 185.906L191.295 186.96C191.215 186.99 191.104 187.02 190.962 187.05C190.819 187.083 190.639 187.099 190.42 187.099C190.088 187.099 189.764 187.028 189.445 186.886C189.131 186.743 188.869 186.526 188.66 186.234C188.454 185.943 188.352 185.575 188.352 185.131V177.534ZM192.921 187V179.364H194.094V187H192.921ZM193.517 178.091C193.288 178.091 193.091 178.013 192.926 177.857C192.763 177.701 192.682 177.514 192.682 177.295C192.682 177.077 192.763 176.889 192.926 176.734C193.091 176.578 193.288 176.5 193.517 176.5C193.746 176.5 193.941 176.578 194.104 176.734C194.27 176.889 194.352 177.077 194.352 177.295C194.352 177.514 194.27 177.701 194.104 177.857C193.941 178.013 193.746 178.091 193.517 178.091ZM196.402 187V176.818H197.575V180.577H197.675C197.761 180.444 197.88 180.275 198.033 180.07C198.188 179.861 198.41 179.675 198.699 179.513C198.99 179.347 199.385 179.264 199.882 179.264C200.525 179.264 201.092 179.425 201.582 179.746C202.073 180.068 202.456 180.524 202.731 181.114C203.006 181.704 203.143 182.4 203.143 183.202C203.143 184.01 203.006 184.711 202.731 185.305C202.456 185.895 202.074 186.352 201.587 186.677C201.1 186.998 200.538 187.159 199.902 187.159C199.411 187.159 199.019 187.078 198.724 186.915C198.429 186.75 198.202 186.562 198.043 186.354C197.883 186.142 197.761 185.966 197.675 185.827H197.535V187H196.402ZM197.555 183.182C197.555 183.759 197.64 184.267 197.809 184.708C197.978 185.146 198.225 185.489 198.55 185.737C198.874 185.982 199.272 186.105 199.743 186.105C200.233 186.105 200.643 185.976 200.971 185.717C201.302 185.455 201.551 185.104 201.717 184.663C201.886 184.219 201.97 183.725 201.97 183.182C201.97 182.645 201.887 182.161 201.722 181.73C201.559 181.296 201.312 180.953 200.981 180.701C200.653 180.446 200.24 180.318 199.743 180.318C199.266 180.318 198.864 180.439 198.54 180.681C198.215 180.92 197.97 181.254 197.804 181.685C197.638 182.113 197.555 182.612 197.555 183.182ZM209.751 183.878V179.364H210.924V187H209.751V185.707H209.671C209.492 186.095 209.214 186.425 208.836 186.697C208.458 186.965 207.981 187.099 207.404 187.099C206.927 187.099 206.503 186.995 206.131 186.786C205.76 186.574 205.468 186.256 205.256 185.832C205.044 185.404 204.938 184.866 204.938 184.216V179.364H206.111V184.136C206.111 184.693 206.267 185.137 206.579 185.469C206.894 185.8 207.295 185.966 207.782 185.966C208.074 185.966 208.37 185.891 208.672 185.742C208.977 185.593 209.232 185.364 209.437 185.056C209.646 184.748 209.751 184.355 209.751 183.878ZM214.246 176.818V187H213.073V176.818H214.246ZM221.208 183.878V179.364H222.381V187H221.208V185.707H221.128C220.949 186.095 220.671 186.425 220.293 186.697C219.915 186.965 219.438 187.099 218.861 187.099C218.384 187.099 217.96 186.995 217.588 186.786C217.217 186.574 216.925 186.256 216.713 185.832C216.501 185.404 216.395 184.866 216.395 184.216V179.364H217.568V184.136C217.568 184.693 217.724 185.137 218.036 185.469C218.351 185.8 218.752 185.966 219.239 185.966C219.531 185.966 219.827 185.891 220.129 185.742C220.434 185.593 220.689 185.364 220.894 185.056C221.103 184.748 221.208 184.355 221.208 183.878ZM224.53 187V179.364H225.663V180.557H225.763C225.922 180.149 226.179 179.833 226.533 179.607C226.888 179.379 227.314 179.264 227.811 179.264C228.315 179.264 228.734 179.379 229.069 179.607C229.407 179.833 229.671 180.149 229.859 180.557H229.939C230.135 180.162 230.428 179.849 230.819 179.617C231.21 179.382 231.679 179.264 232.226 179.264C232.909 179.264 233.467 179.478 233.901 179.906C234.336 180.33 234.553 180.991 234.553 181.889V187H233.379V181.889C233.379 181.326 233.225 180.923 232.917 180.681C232.609 180.439 232.246 180.318 231.828 180.318C231.291 180.318 230.875 180.481 230.58 180.805C230.285 181.127 230.138 181.535 230.138 182.028V187H228.945V181.77C228.945 181.336 228.804 180.986 228.522 180.721C228.24 180.452 227.877 180.318 227.433 180.318C227.128 180.318 226.843 180.399 226.578 180.562C226.316 180.724 226.104 180.95 225.942 181.238C225.783 181.523 225.703 181.853 225.703 182.227V187H224.53ZM240.635 187V179.364H241.769V180.557H241.868C242.027 180.149 242.284 179.833 242.639 179.607C242.994 179.379 243.419 179.264 243.917 179.264C244.42 179.264 244.84 179.379 245.174 179.607C245.513 179.833 245.776 180.149 245.965 180.557H246.044C246.24 180.162 246.533 179.849 246.924 179.617C247.316 179.382 247.785 179.264 248.331 179.264C249.014 179.264 249.573 179.478 250.007 179.906C250.441 180.33 250.658 180.991 250.658 181.889V187H249.485V181.889C249.485 181.326 249.331 180.923 249.022 180.681C248.714 180.439 248.351 180.318 247.934 180.318C247.397 180.318 246.981 180.481 246.686 180.805C246.391 181.127 246.243 181.535 246.243 182.028V187H245.05V181.77C245.05 181.336 244.909 180.986 244.628 180.721C244.346 180.452 243.983 180.318 243.539 180.318C243.234 180.318 242.949 180.399 242.684 180.562C242.422 180.724 242.21 180.95 242.047 181.238C241.888 181.523 241.809 181.853 241.809 182.227V187H240.635ZM255.051 187.179C254.567 187.179 254.127 187.088 253.733 186.906C253.339 186.72 253.025 186.453 252.793 186.105C252.561 185.754 252.445 185.33 252.445 184.832C252.445 184.395 252.532 184.04 252.704 183.768C252.876 183.493 253.107 183.278 253.395 183.122C253.683 182.966 254.002 182.85 254.35 182.774C254.701 182.695 255.054 182.632 255.408 182.585C255.872 182.526 256.249 182.481 256.537 182.451C256.829 182.418 257.041 182.363 257.173 182.287C257.309 182.211 257.377 182.078 257.377 181.889V181.849C257.377 181.359 257.243 180.978 256.975 180.706C256.709 180.434 256.307 180.298 255.766 180.298C255.206 180.298 254.767 180.421 254.449 180.666C254.131 180.911 253.907 181.173 253.778 181.452L252.664 181.054C252.863 180.59 253.128 180.229 253.46 179.97C253.794 179.708 254.159 179.526 254.553 179.423C254.951 179.317 255.342 179.264 255.727 179.264C255.972 179.264 256.254 179.294 256.572 179.354C256.893 179.41 257.203 179.528 257.502 179.707C257.803 179.886 258.053 180.156 258.252 180.517C258.451 180.878 258.551 181.362 258.551 181.969V187H257.377V185.966H257.318C257.238 186.132 257.105 186.309 256.92 186.498C256.734 186.687 256.487 186.848 256.179 186.98C255.871 187.113 255.495 187.179 255.051 187.179ZM255.229 186.125C255.694 186.125 256.085 186.034 256.403 185.852C256.724 185.669 256.966 185.434 257.129 185.146C257.294 184.857 257.377 184.554 257.377 184.236V183.162C257.328 183.222 257.218 183.276 257.049 183.326C256.883 183.372 256.691 183.414 256.472 183.45C256.257 183.483 256.046 183.513 255.841 183.54C255.639 183.563 255.475 183.583 255.349 183.599C255.044 183.639 254.759 183.704 254.494 183.793C254.232 183.879 254.02 184.01 253.857 184.186C253.698 184.358 253.619 184.594 253.619 184.892C253.619 185.3 253.77 185.608 254.071 185.817C254.376 186.022 254.762 186.125 255.229 186.125ZM266.101 181.074L265.047 181.372C264.981 181.196 264.883 181.026 264.754 180.86C264.628 180.691 264.456 180.552 264.237 180.442C264.018 180.333 263.738 180.278 263.397 180.278C262.929 180.278 262.54 180.386 262.228 180.602C261.92 180.814 261.766 181.084 261.766 181.412C261.766 181.704 261.872 181.934 262.084 182.103C262.296 182.272 262.628 182.413 263.078 182.526L264.212 182.804C264.895 182.97 265.403 183.223 265.738 183.565C266.073 183.903 266.24 184.339 266.24 184.872C266.24 185.31 266.114 185.701 265.862 186.045C265.614 186.39 265.266 186.662 264.818 186.861C264.371 187.06 263.851 187.159 263.257 187.159C262.478 187.159 261.834 186.99 261.323 186.652C260.813 186.314 260.49 185.82 260.354 185.17L261.468 184.892C261.574 185.303 261.774 185.611 262.069 185.817C262.367 186.022 262.757 186.125 263.237 186.125C263.784 186.125 264.219 186.009 264.54 185.777C264.865 185.542 265.027 185.26 265.027 184.932C265.027 184.667 264.934 184.445 264.749 184.266C264.563 184.083 264.278 183.947 263.894 183.858L262.621 183.56C261.922 183.394 261.408 183.137 261.08 182.789C260.755 182.438 260.593 181.999 260.593 181.472C260.593 181.041 260.714 180.66 260.956 180.328C261.201 179.997 261.534 179.737 261.955 179.548C262.379 179.359 262.86 179.264 263.397 179.264C264.152 179.264 264.746 179.43 265.176 179.761C265.611 180.093 265.919 180.53 266.101 181.074ZM273.416 181.074L272.362 181.372C272.295 181.196 272.198 181.026 272.068 180.86C271.942 180.691 271.77 180.552 271.551 180.442C271.332 180.333 271.052 180.278 270.711 180.278C270.244 180.278 269.854 180.386 269.543 180.602C269.234 180.814 269.08 181.084 269.08 181.412C269.08 181.704 269.186 181.934 269.399 182.103C269.611 182.272 269.942 182.413 270.393 182.526L271.526 182.804C272.209 182.97 272.718 183.223 273.053 183.565C273.387 183.903 273.555 184.339 273.555 184.872C273.555 185.31 273.429 185.701 273.177 186.045C272.928 186.39 272.58 186.662 272.133 186.861C271.685 187.06 271.165 187.159 270.572 187.159C269.793 187.159 269.148 186.99 268.638 186.652C268.127 186.314 267.804 185.82 267.668 185.17L268.782 184.892C268.888 185.303 269.089 185.611 269.384 185.817C269.682 186.022 270.071 186.125 270.552 186.125C271.099 186.125 271.533 186.009 271.854 185.777C272.179 185.542 272.342 185.26 272.342 184.932C272.342 184.667 272.249 184.445 272.063 184.266C271.878 184.083 271.593 183.947 271.208 183.858L269.935 183.56C269.236 183.394 268.722 183.137 268.394 182.789C268.069 182.438 267.907 181.999 267.907 181.472C267.907 181.041 268.028 180.66 268.27 180.328C268.515 179.997 268.848 179.737 269.269 179.548C269.694 179.359 270.174 179.264 270.711 179.264C271.467 179.264 272.06 179.43 272.491 179.761C272.925 180.093 273.233 180.53 273.416 181.074ZM277.568 187.179C277.084 187.179 276.645 187.088 276.251 186.906C275.856 186.72 275.543 186.453 275.311 186.105C275.079 185.754 274.963 185.33 274.963 184.832C274.963 184.395 275.049 184.04 275.222 183.768C275.394 183.493 275.624 183.278 275.913 183.122C276.201 182.966 276.519 182.85 276.867 182.774C277.218 182.695 277.571 182.632 277.926 182.585C278.39 182.526 278.766 182.481 279.055 182.451C279.346 182.418 279.558 182.363 279.691 182.287C279.827 182.211 279.895 182.078 279.895 181.889V181.849C279.895 181.359 279.761 180.978 279.492 180.706C279.227 180.434 278.824 180.298 278.284 180.298C277.724 180.298 277.285 180.421 276.967 180.666C276.648 180.911 276.425 181.173 276.295 181.452L275.182 181.054C275.381 180.59 275.646 180.229 275.977 179.97C276.312 179.708 276.677 179.526 277.071 179.423C277.469 179.317 277.86 179.264 278.244 179.264C278.489 179.264 278.771 179.294 279.089 179.354C279.411 179.41 279.721 179.528 280.019 179.707C280.321 179.886 280.571 180.156 280.77 180.517C280.969 180.878 281.068 181.362 281.068 181.969V187H279.895V185.966H279.835C279.756 186.132 279.623 186.309 279.437 186.498C279.252 186.687 279.005 186.848 278.697 186.98C278.388 187.113 278.012 187.179 277.568 187.179ZM277.747 186.125C278.211 186.125 278.602 186.034 278.92 185.852C279.242 185.669 279.484 185.434 279.646 185.146C279.812 184.857 279.895 184.554 279.895 184.236V183.162C279.845 183.222 279.736 183.276 279.567 183.326C279.401 183.372 279.209 183.414 278.99 183.45C278.775 183.483 278.564 183.513 278.359 183.54C278.156 183.563 277.992 183.583 277.866 183.599C277.561 183.639 277.276 183.704 277.011 183.793C276.749 183.879 276.537 184.01 276.375 184.186C276.216 184.358 276.136 184.594 276.136 184.892C276.136 185.3 276.287 185.608 276.589 185.817C276.894 186.022 277.28 186.125 277.747 186.125ZM284.065 187.08C283.819 187.08 283.609 186.992 283.433 186.816C283.258 186.64 283.17 186.43 283.17 186.185C283.17 185.939 283.258 185.729 283.433 185.553C283.609 185.378 283.819 185.29 284.065 185.29C284.31 185.29 284.52 185.378 284.696 185.553C284.872 185.729 284.96 185.939 284.96 186.185C284.96 186.347 284.918 186.496 284.835 186.632C284.756 186.768 284.648 186.877 284.512 186.96C284.38 187.04 284.23 187.08 284.065 187.08ZM21.2515 196.818H22.7231L26.1833 205.27H26.3026L29.7629 196.818H31.2345V207H30.0811V199.264H29.9816L26.7998 207H25.6862L22.5044 199.264H22.4049V207H21.2515V196.818ZM35.7947 207.179C35.3108 207.179 34.8716 207.088 34.4772 206.906C34.0828 206.72 33.7696 206.453 33.5376 206.105C33.3055 205.754 33.1895 205.33 33.1895 204.832C33.1895 204.395 33.2757 204.04 33.4481 203.768C33.6204 203.493 33.8508 203.278 34.1391 203.122C34.4275 202.966 34.7456 202.85 35.0937 202.774C35.445 202.695 35.798 202.632 36.1526 202.585C36.6166 202.526 36.9928 202.481 37.2812 202.451C37.5728 202.418 37.7849 202.363 37.9175 202.287C38.0534 202.211 38.1214 202.078 38.1214 201.889V201.849C38.1214 201.359 37.9871 200.978 37.7187 200.706C37.4535 200.434 37.0508 200.298 36.5106 200.298C35.9504 200.298 35.5113 200.421 35.1931 200.666C34.8749 200.911 34.6512 201.173 34.5219 201.452L33.4083 201.054C33.6072 200.59 33.8723 200.229 34.2037 199.97C34.5385 199.708 34.9031 199.526 35.2975 199.423C35.6952 199.317 36.0863 199.264 36.4708 199.264C36.7161 199.264 36.9978 199.294 37.316 199.354C37.6375 199.41 37.9474 199.528 38.2456 199.707C38.5473 199.886 38.7975 200.156 38.9964 200.517C39.1952 200.878 39.2947 201.362 39.2947 201.969V207H38.1214V205.966H38.0617C37.9822 206.132 37.8496 206.309 37.664 206.498C37.4784 206.687 37.2314 206.848 36.9232 206.98C36.615 207.113 36.2388 207.179 35.7947 207.179ZM35.9736 206.125C36.4376 206.125 36.8287 206.034 37.1469 205.852C37.4684 205.669 37.7104 205.434 37.8728 205.146C38.0385 204.857 38.1214 204.554 38.1214 204.236V203.162C38.0716 203.222 37.9623 203.276 37.7932 203.326C37.6275 203.372 37.4353 203.414 37.2165 203.45C37.0011 203.483 36.7906 203.513 36.5851 203.54C36.383 203.563 36.2189 203.583 36.093 203.599C35.788 203.639 35.503 203.704 35.2378 203.793C34.976 203.879 34.7639 204.01 34.6015 204.186C34.4424 204.358 34.3628 204.594 34.3628 204.892C34.3628 205.3 34.5136 205.608 34.8153 205.817C35.1202 206.022 35.5063 206.125 35.9736 206.125ZM44.6379 207.159C43.9021 207.159 43.2674 206.997 42.7338 206.672C42.2035 206.344 41.7941 205.886 41.5058 205.3C41.2207 204.71 41.0782 204.024 41.0782 203.241C41.0782 202.459 41.2207 201.77 41.5058 201.173C41.7941 200.573 42.1952 200.106 42.7089 199.771C43.2259 199.433 43.8292 199.264 44.5186 199.264C44.9163 199.264 45.309 199.33 45.6968 199.463C46.0846 199.596 46.4376 199.811 46.7558 200.109C47.074 200.404 47.3275 200.795 47.5164 201.283C47.7053 201.77 47.7998 202.37 47.7998 203.082V203.58H41.9134V202.565H46.6066C46.6066 202.134 46.5204 201.75 46.3481 201.412C46.1791 201.074 45.9371 200.807 45.6222 200.612C45.3107 200.416 44.9428 200.318 44.5186 200.318C44.0512 200.318 43.6469 200.434 43.3055 200.666C42.9674 200.895 42.7072 201.193 42.5249 201.561C42.3427 201.929 42.2515 202.323 42.2515 202.744V203.42C42.2515 203.997 42.3509 204.486 42.5498 204.887C42.752 205.285 43.032 205.588 43.39 205.797C43.748 206.002 44.1639 206.105 44.6379 206.105C44.9461 206.105 45.2245 206.062 45.4731 205.976C45.725 205.886 45.9421 205.754 46.1244 205.578C46.3067 205.399 46.4475 205.177 46.547 204.912L47.6805 205.23C47.5612 205.615 47.3606 205.953 47.0789 206.244C46.7972 206.533 46.4492 206.758 46.0349 206.92C45.6206 207.08 45.1549 207.159 44.6379 207.159ZM52.6869 207.159C51.971 207.159 51.3545 206.99 50.8374 206.652C50.3204 206.314 49.9227 205.848 49.6443 205.255C49.3659 204.662 49.2267 203.984 49.2267 203.222C49.2267 202.446 49.3692 201.762 49.6542 201.168C49.9426 200.572 50.3436 200.106 50.8573 199.771C51.3744 199.433 51.9776 199.264 52.667 199.264C53.2039 199.264 53.6878 199.364 54.1187 199.562C54.5496 199.761 54.9026 200.04 55.1776 200.398C55.4527 200.756 55.6234 201.173 55.6897 201.651H54.5164C54.4269 201.303 54.2281 200.994 53.9198 200.726C53.6149 200.454 53.2039 200.318 52.6869 200.318C52.2295 200.318 51.8285 200.437 51.4838 200.676C51.1424 200.911 50.8756 201.245 50.6833 201.675C50.4944 202.103 50.3999 202.605 50.3999 203.182C50.3999 203.772 50.4927 204.286 50.6784 204.723C50.8673 205.161 51.1324 205.5 51.4738 205.742C51.8185 205.984 52.2229 206.105 52.6869 206.105C52.9918 206.105 53.2686 206.052 53.5171 205.946C53.7657 205.84 53.9762 205.688 54.1485 205.489C54.3209 205.29 54.4435 205.051 54.5164 204.773H55.6897C55.6234 205.223 55.4594 205.629 55.1975 205.991C54.939 206.349 54.596 206.634 54.1684 206.846C53.7442 207.055 53.2503 207.159 52.6869 207.159ZM60.6066 207.159C59.8708 207.159 59.2361 206.997 58.7025 206.672C58.1722 206.344 57.7629 205.886 57.4745 205.3C57.1895 204.71 57.047 204.024 57.047 203.241C57.047 202.459 57.1895 201.77 57.4745 201.173C57.7629 200.573 58.1639 200.106 58.6776 199.771C59.1947 199.433 59.7979 199.264 60.4873 199.264C60.885 199.264 61.2778 199.33 61.6656 199.463C62.0534 199.596 62.4063 199.811 62.7245 200.109C63.0427 200.404 63.2963 200.795 63.4852 201.283C63.6741 201.77 63.7686 202.37 63.7686 203.082V203.58H57.8822V202.565H62.5754C62.5754 202.134 62.4892 201.75 62.3169 201.412C62.1478 201.074 61.9059 200.807 61.591 200.612C61.2794 200.416 60.9115 200.318 60.4873 200.318C60.02 200.318 59.6156 200.434 59.2742 200.666C58.9362 200.895 58.676 201.193 58.4937 201.561C58.3114 201.929 58.2203 202.323 58.2203 202.744V203.42C58.2203 203.997 58.3197 204.486 58.5186 204.887C58.7207 205.285 59.0008 205.588 59.3588 205.797C59.7167 206.002 60.1327 206.105 60.6066 206.105C60.9149 206.105 61.1933 206.062 61.4419 205.976C61.6937 205.886 61.9108 205.754 62.0931 205.578C62.2754 205.399 62.4163 205.177 62.5157 204.912L63.6492 205.23C63.5299 205.615 63.3294 205.953 63.0477 206.244C62.766 206.533 62.4179 206.758 62.0036 206.92C61.5893 207.08 61.1237 207.159 60.6066 207.159ZM66.7267 202.406V207H65.5534V199.364H66.6869V200.557H66.7863C66.9653 200.169 67.2371 199.857 67.6017 199.622C67.9662 199.384 68.4369 199.264 69.0136 199.264C69.5306 199.264 69.983 199.37 70.3708 199.582C70.7586 199.791 71.0602 200.109 71.2757 200.537C71.4911 200.961 71.5988 201.498 71.5988 202.148V207H70.4255V202.227C70.4255 201.627 70.2697 201.16 69.9582 200.825C69.6466 200.487 69.2191 200.318 68.6755 200.318C68.301 200.318 67.9662 200.399 67.6713 200.562C67.3796 200.724 67.1492 200.961 66.9802 201.273C66.8112 201.584 66.7267 201.962 66.7267 202.406ZM75.99 207.179C75.5061 207.179 75.0669 207.088 74.6725 206.906C74.2781 206.72 73.9649 206.453 73.7329 206.105C73.5009 205.754 73.3849 205.33 73.3849 204.832C73.3849 204.395 73.471 204.04 73.6434 203.768C73.8157 203.493 74.0461 203.278 74.3344 203.122C74.6228 202.966 74.941 202.85 75.289 202.774C75.6403 202.695 75.9933 202.632 76.3479 202.585C76.8119 202.526 77.1881 202.481 77.4765 202.451C77.7681 202.418 77.9803 202.363 78.1128 202.287C78.2487 202.211 78.3167 202.078 78.3167 201.889V201.849C78.3167 201.359 78.1824 200.978 77.914 200.706C77.6488 200.434 77.2461 200.298 76.7059 200.298C76.1457 200.298 75.7066 200.421 75.3884 200.666C75.0702 200.911 74.8465 201.173 74.7172 201.452L73.6036 201.054C73.8025 200.59 74.0676 200.229 74.3991 199.97C74.7338 199.708 75.0984 199.526 75.4928 199.423C75.8905 199.317 76.2816 199.264 76.6661 199.264C76.9114 199.264 77.1931 199.294 77.5113 199.354C77.8328 199.41 78.1427 199.528 78.441 199.707C78.7426 199.886 78.9928 200.156 79.1917 200.517C79.3905 200.878 79.49 201.362 79.49 201.969V207H78.3167V205.966H78.257C78.1775 206.132 78.0449 206.309 77.8593 206.498C77.6737 206.687 77.4268 206.848 77.1185 206.98C76.8103 207.113 76.4341 207.179 75.99 207.179ZM76.1689 206.125C76.633 206.125 77.0241 206.034 77.3422 205.852C77.6637 205.669 77.9057 205.434 78.0681 205.146C78.2338 204.857 78.3167 204.554 78.3167 204.236V203.162C78.267 203.222 78.1576 203.276 77.9885 203.326C77.8228 203.372 77.6306 203.414 77.4118 203.45C77.1964 203.483 76.9859 203.513 76.7805 203.54C76.5783 203.563 76.4142 203.583 76.2883 203.599C75.9833 203.639 75.6983 203.704 75.4331 203.793C75.1713 203.879 74.9592 204.01 74.7968 204.186C74.6377 204.358 74.5581 204.594 74.5581 204.892C74.5581 205.3 74.709 205.608 75.0106 205.817C75.3155 206.022 75.7016 206.125 76.1689 206.125ZM87.0406 201.074L85.9866 201.372C85.9203 201.196 85.8225 201.026 85.6933 200.86C85.5673 200.691 85.395 200.552 85.1762 200.442C84.9575 200.333 84.6774 200.278 84.336 200.278C83.8687 200.278 83.4793 200.386 83.1677 200.602C82.8595 200.814 82.7053 201.084 82.7053 201.412C82.7053 201.704 82.8114 201.934 83.0235 202.103C83.2356 202.272 83.5671 202.413 84.0178 202.526L85.1514 202.804C85.8341 202.97 86.3429 203.223 86.6776 203.565C87.0124 203.903 87.1798 204.339 87.1798 204.872C87.1798 205.31 87.0538 205.701 86.8019 206.045C86.5534 206.39 86.2053 206.662 85.7579 206.861C85.3105 207.06 84.7901 207.159 84.1968 207.159C83.4179 207.159 82.7733 206.99 82.2629 206.652C81.7525 206.314 81.4293 205.82 81.2934 205.17L82.407 204.892C82.5131 205.303 82.7136 205.611 83.0086 205.817C83.3069 206.022 83.6963 206.125 84.1769 206.125C84.7238 206.125 85.158 206.009 85.4795 205.777C85.8043 205.542 85.9667 205.26 85.9667 204.932C85.9667 204.667 85.8739 204.445 85.6883 204.266C85.5027 204.083 85.2177 203.947 84.8332 203.858L83.5605 203.56C82.8611 203.394 82.3474 203.137 82.0193 202.789C81.6945 202.438 81.532 201.999 81.532 201.472C81.532 201.041 81.653 200.66 81.895 200.328C82.1402 199.997 82.4733 199.737 82.8943 199.548C83.3185 199.359 83.7991 199.264 84.336 199.264C85.0917 199.264 85.685 199.43 86.1159 199.761C86.55 200.093 86.8583 200.53 87.0406 201.074ZM96.2045 199.364V200.358H92.2471V199.364H96.2045ZM93.4005 197.534H94.5738V204.812C94.5738 205.144 94.6218 205.393 94.718 205.558C94.8174 205.721 94.9433 205.83 95.0958 205.886C95.2516 205.939 95.4156 205.966 95.588 205.966C95.7172 205.966 95.8233 205.959 95.9062 205.946C95.989 205.929 96.0553 205.916 96.105 205.906L96.3437 206.96C96.2641 206.99 96.1531 207.02 96.0106 207.05C95.868 207.083 95.6874 207.099 95.4687 207.099C95.1372 207.099 94.8124 207.028 94.4942 206.886C94.1794 206.743 93.9175 206.526 93.7087 206.234C93.5032 205.943 93.4005 205.575 93.4005 205.131V197.534ZM101.089 207.159C100.353 207.159 99.7185 206.997 99.1849 206.672C98.6546 206.344 98.2453 205.886 97.9569 205.3C97.6719 204.71 97.5294 204.024 97.5294 203.241C97.5294 202.459 97.6719 201.77 97.9569 201.173C98.2453 200.573 98.6463 200.106 99.1601 199.771C99.6771 199.433 100.28 199.264 100.97 199.264C101.367 199.264 101.76 199.33 102.148 199.463C102.536 199.596 102.889 199.811 103.207 200.109C103.525 200.404 103.779 200.795 103.968 201.283C104.157 201.77 104.251 202.37 104.251 203.082V203.58H98.3646V202.565H103.058C103.058 202.134 102.972 201.75 102.799 201.412C102.63 201.074 102.388 200.807 102.073 200.612C101.762 200.416 101.394 200.318 100.97 200.318C100.502 200.318 100.098 200.434 99.7567 200.666C99.4186 200.895 99.1584 201.193 98.9761 201.561C98.7938 201.929 98.7027 202.323 98.7027 202.744V203.42C98.7027 203.997 98.8021 204.486 99.001 204.887C99.2032 205.285 99.4832 205.588 99.8412 205.797C100.199 206.002 100.615 206.105 101.089 206.105C101.397 206.105 101.676 206.062 101.924 205.976C102.176 205.886 102.393 205.754 102.576 205.578C102.758 205.399 102.899 205.177 102.998 204.912L104.132 205.23C104.012 205.615 103.812 205.953 103.53 206.244C103.248 206.533 102.9 206.758 102.486 206.92C102.072 207.08 101.606 207.159 101.089 207.159ZM106.036 207V199.364H107.169V200.557H107.269C107.428 200.149 107.685 199.833 108.039 199.607C108.394 199.379 108.82 199.264 109.317 199.264C109.821 199.264 110.24 199.379 110.575 199.607C110.913 199.833 111.176 200.149 111.365 200.557H111.445C111.64 200.162 111.934 199.849 112.325 199.617C112.716 199.382 113.185 199.264 113.732 199.264C114.415 199.264 114.973 199.478 115.407 199.906C115.841 200.33 116.059 200.991 116.059 201.889V207H114.885V201.889C114.885 201.326 114.731 200.923 114.423 200.681C114.115 200.439 113.752 200.318 113.334 200.318C112.797 200.318 112.381 200.481 112.086 200.805C111.791 201.127 111.644 201.535 111.644 202.028V207H110.451V201.77C110.451 201.336 110.31 200.986 110.028 200.721C109.746 200.452 109.383 200.318 108.939 200.318C108.634 200.318 108.349 200.399 108.084 200.562C107.822 200.724 107.61 200.95 107.448 201.238C107.289 201.523 107.209 201.853 107.209 202.227V207H106.036ZM118.204 209.864V199.364H119.337V200.577H119.476C119.563 200.444 119.682 200.275 119.834 200.07C119.99 199.861 120.212 199.675 120.501 199.513C120.792 199.347 121.187 199.264 121.684 199.264C122.327 199.264 122.894 199.425 123.384 199.746C123.875 200.068 124.257 200.524 124.533 201.114C124.808 201.704 124.945 202.4 124.945 203.202C124.945 204.01 124.808 204.711 124.533 205.305C124.257 205.895 123.876 206.352 123.389 206.677C122.902 206.998 122.34 207.159 121.704 207.159C121.213 207.159 120.82 207.078 120.525 206.915C120.23 206.75 120.003 206.562 119.844 206.354C119.685 206.142 119.563 205.966 119.476 205.827H119.377V209.864H118.204ZM119.357 203.182C119.357 203.759 119.442 204.267 119.611 204.708C119.78 205.146 120.027 205.489 120.351 205.737C120.676 205.982 121.074 206.105 121.545 206.105C122.035 206.105 122.445 205.976 122.773 205.717C123.104 205.455 123.353 205.104 123.518 204.663C123.687 204.219 123.772 203.725 123.772 203.182C123.772 202.645 123.689 202.161 123.523 201.73C123.361 201.296 123.114 200.953 122.783 200.701C122.454 200.446 122.042 200.318 121.545 200.318C121.067 200.318 120.666 200.439 120.342 200.681C120.017 200.92 119.771 201.254 119.606 201.685C119.44 202.113 119.357 202.612 119.357 203.182ZM131.547 203.878V199.364H132.721V207H131.547V205.707H131.468C131.289 206.095 131.011 206.425 130.633 206.697C130.255 206.965 129.778 207.099 129.201 207.099C128.724 207.099 128.299 206.995 127.928 206.786C127.557 206.574 127.265 206.256 127.053 205.832C126.841 205.404 126.735 204.866 126.735 204.216V199.364H127.908V204.136C127.908 204.693 128.064 205.137 128.376 205.469C128.69 205.8 129.092 205.966 129.579 205.966C129.87 205.966 130.167 205.891 130.469 205.742C130.774 205.593 131.029 205.364 131.234 205.056C131.443 204.748 131.547 204.355 131.547 203.878ZM140.279 201.074L139.225 201.372C139.159 201.196 139.061 201.026 138.932 200.86C138.806 200.691 138.633 200.552 138.415 200.442C138.196 200.333 137.916 200.278 137.574 200.278C137.107 200.278 136.718 200.386 136.406 200.602C136.098 200.814 135.944 201.084 135.944 201.412C135.944 201.704 136.05 201.934 136.262 202.103C136.474 202.272 136.805 202.413 137.256 202.526L138.39 202.804C139.072 202.97 139.581 203.223 139.916 203.565C140.251 203.903 140.418 204.339 140.418 204.872C140.418 205.31 140.292 205.701 140.04 206.045C139.792 206.39 139.444 206.662 138.996 206.861C138.549 207.06 138.028 207.159 137.435 207.159C136.656 207.159 136.012 206.99 135.501 206.652C134.991 206.314 134.668 205.82 134.532 205.17L135.645 204.892C135.751 205.303 135.952 205.611 136.247 205.817C136.545 206.022 136.935 206.125 137.415 206.125C137.962 206.125 138.396 206.009 138.718 205.777C139.043 205.542 139.205 205.26 139.205 204.932C139.205 204.667 139.112 204.445 138.927 204.266C138.741 204.083 138.456 203.947 138.071 203.858L136.799 203.56C136.099 203.394 135.586 203.137 135.258 202.789C134.933 202.438 134.77 201.999 134.77 201.472C134.77 201.041 134.891 200.66 135.133 200.328C135.379 199.997 135.712 199.737 136.133 199.548C136.557 199.359 137.037 199.264 137.574 199.264C138.33 199.264 138.923 199.43 139.354 199.761C139.788 200.093 140.097 200.53 140.279 201.074ZM143.934 205.608L143.855 206.145C143.798 206.523 143.712 206.927 143.596 207.358C143.483 207.789 143.366 208.195 143.243 208.576C143.121 208.957 143.019 209.26 142.94 209.486H142.045C142.088 209.274 142.144 208.994 142.214 208.646C142.284 208.298 142.353 207.908 142.423 207.477C142.496 207.05 142.555 206.612 142.602 206.165L142.661 205.608H143.934Z" fill="#535266"/>
</svg>
