<svg width="161" height="28" viewBox="0 0 161 28" fill="none" xmlns="http://www.w3.org/2000/svg">
<rect x="0.5" width="28" height="28" rx="14" fill="white"/>
<path d="M17.8333 9.83333C17.8333 9.61232 17.9211 9.40036 18.0774 9.24408C18.2337 9.0878 18.4457 9 18.6667 9C18.8877 9 19.0996 9.0878 19.2559 9.24408C19.4122 9.40036 19.5 9.61232 19.5 9.83333C19.5 10.0543 19.4122 10.2663 19.2559 10.4226C19.0996 10.5789 18.8877 10.6667 18.6667 10.6667C18.4457 10.6667 18.2337 10.5789 18.0774 10.4226C17.9211 10.2663 17.8333 10.0543 17.8333 9.83333Z" fill="#0B0A14"/>
<path fill-rule="evenodd" clip-rule="evenodd" d="M14.5 10.0417C13.4502 10.0417 12.4434 10.4588 11.701 11.2011C10.9587 11.9434 10.5417 12.9503 10.5417 14.0001C10.5417 15.0499 10.9587 16.0567 11.701 16.799C12.4434 17.5414 13.4502 17.9584 14.5 17.9584C15.5498 17.9584 16.5566 17.5414 17.299 16.799C18.0413 16.0567 18.4583 15.0499 18.4583 14.0001C18.4583 12.9503 18.0413 11.9434 17.299 11.2011C16.5566 10.4588 15.5498 10.0417 14.5 10.0417ZM11.7917 14.0001C11.7917 13.2818 12.077 12.5929 12.5849 12.085C13.0928 11.5771 13.7817 11.2917 14.5 11.2917C15.2183 11.2917 15.9072 11.5771 16.4151 12.085C16.923 12.5929 17.2083 13.2818 17.2083 14.0001C17.2083 14.7184 16.923 15.4073 16.4151 15.9152C15.9072 16.4231 15.2183 16.7084 14.5 16.7084C13.7817 16.7084 13.0928 16.4231 12.5849 15.9152C12.077 15.4073 11.7917 14.7184 11.7917 14.0001Z" fill="#0B0A14"/>
<path fill-rule="evenodd" clip-rule="evenodd" d="M18.8817 6.36078C15.9695 6.03794 13.0305 6.03794 10.1183 6.36078C8.44167 6.54828 7.0875 7.86911 6.89083 9.55411C6.54533 12.5079 6.54533 15.492 6.89083 18.4458C7.0875 20.1308 8.44083 21.4516 10.1183 21.6391C13.0305 21.9616 15.9695 21.9616 18.8817 21.6391C20.5583 21.4516 21.9125 20.1308 22.1092 18.4458C22.4547 15.492 22.4547 12.5079 22.1092 9.55411C21.9125 7.86911 20.5592 6.54828 18.8817 6.36078ZM10.2567 7.60245C13.0769 7.28984 15.9231 7.28984 18.7433 7.60245C19.8517 7.72745 20.7392 8.60161 20.8683 9.69995C21.2025 12.5569 21.2025 15.443 20.8683 18.2999C20.8015 18.8375 20.5555 19.3368 20.1699 19.7172C19.7843 20.0977 19.2817 20.337 18.7433 20.3966C15.9231 20.7092 13.0769 20.7092 10.2567 20.3966C9.71828 20.337 9.21571 20.0977 8.83013 19.7172C8.44455 19.3368 8.19848 18.8375 8.13167 18.2999C7.79754 15.443 7.79754 12.5569 8.13167 9.69995C8.19848 9.16241 8.44455 8.6631 8.83013 8.28266C9.21571 7.90222 9.71828 7.66204 10.2567 7.60245Z" fill="#0B0A14"/>
<rect x="44.5" width="28" height="28" rx="14" fill="white"/>
<path fill-rule="evenodd" clip-rule="evenodd" d="M52.6667 5.04175C52.0589 5.04175 51.476 5.28319 51.0462 5.71296C50.6164 6.14273 50.375 6.72563 50.375 7.33341C50.375 7.9412 50.6164 8.5241 51.0462 8.95387C51.476 9.38364 52.0589 9.62508 52.6667 9.62508C53.2745 9.62508 53.8573 9.38364 54.2871 8.95387C54.7169 8.5241 54.9583 7.9412 54.9583 7.33341C54.9583 6.72563 54.7169 6.14273 54.2871 5.71296C53.8573 5.28319 53.2745 5.04175 52.6667 5.04175ZM51.625 7.33341C51.625 7.05715 51.7347 6.7922 51.9301 6.59685C52.1254 6.40149 52.3904 6.29175 52.6667 6.29175C52.9429 6.29175 53.2079 6.40149 53.4032 6.59685C53.5986 6.7922 53.7083 7.05715 53.7083 7.33341C53.7083 7.60968 53.5986 7.87463 53.4032 8.06998C53.2079 8.26533 52.9429 8.37508 52.6667 8.37508C52.3904 8.37508 52.1254 8.26533 51.9301 8.06998C51.7347 7.87463 51.625 7.60968 51.625 7.33341ZM50.375 10.6667C50.375 10.501 50.4408 10.342 50.5581 10.2248C50.6753 10.1076 50.8342 10.0417 51 10.0417H54.3333C54.4991 10.0417 54.6581 10.1076 54.7753 10.2248C54.8925 10.342 54.9583 10.501 54.9583 10.6667V21.5001C54.9583 21.6658 54.8925 21.8248 54.7753 21.942C54.6581 22.0592 54.4991 22.1251 54.3333 22.1251H51C50.8342 22.1251 50.6753 22.0592 50.5581 21.942C50.4408 21.8248 50.375 21.6658 50.375 21.5001V10.6667ZM51.625 11.2917V20.8751H53.7083V11.2917H51.625ZM56.2083 10.6667C56.2083 10.501 56.2742 10.342 56.3914 10.2248C56.5086 10.1076 56.6676 10.0417 56.8333 10.0417H60.1667C60.3324 10.0417 60.4914 10.1076 60.6086 10.2248C60.7258 10.342 60.7917 10.501 60.7917 10.6667V11.0284L61.1542 10.8726C61.7792 10.6055 62.4423 10.4382 63.1192 10.3767C65.4317 10.1667 67.4583 11.9834 67.4583 14.3167V21.5001C67.4583 21.6658 67.3925 21.8248 67.2753 21.942C67.1581 22.0592 66.9991 22.1251 66.8333 22.1251H63.5C63.3342 22.1251 63.1753 22.0592 63.0581 21.942C62.9408 21.8248 62.875 21.6658 62.875 21.5001V15.6667C62.875 15.3905 62.7653 15.1255 62.5699 14.9302C62.3746 14.7348 62.1096 14.6251 61.8333 14.6251C61.5571 14.6251 61.2921 14.7348 61.0968 14.9302C60.9014 15.1255 60.7917 15.3905 60.7917 15.6667V21.5001C60.7917 21.6658 60.7258 21.8248 60.6086 21.942C60.4914 22.0592 60.3324 22.1251 60.1667 22.1251H56.8333C56.6676 22.1251 56.5086 22.0592 56.3914 21.942C56.2742 21.8248 56.2083 21.6658 56.2083 21.5001V10.6667ZM57.4583 11.2917V20.8751H59.5417V15.6667C59.5417 15.059 59.7831 14.4761 60.2129 14.0463C60.6427 13.6165 61.2255 13.3751 61.8333 13.3751C62.4411 13.3751 63.024 13.6165 63.4538 14.0463C63.8836 14.4761 64.125 15.059 64.125 15.6667V20.8751H66.2083V14.3167C66.2083 12.7301 64.8242 11.4767 63.2333 11.6217C62.6868 11.6715 62.1514 11.8064 61.6467 12.0217L60.4133 12.5509C60.3182 12.5918 60.2144 12.6084 60.1113 12.5992C60.0082 12.59 59.9089 12.5554 59.8225 12.4984C59.7361 12.4414 59.6652 12.3638 59.6162 12.2726C59.5671 12.1814 59.5415 12.0794 59.5417 11.9759V11.2917H57.4583Z" fill="#0B0A14"/>
<rect x="88.5" width="28" height="28" rx="14" fill="white"/>
<path d="M103.522 12.2366L109.478 5.25H108.066L102.896 11.3161L98.7644 5.25H94L100.247 14.424L94 21.75H95.4117L100.872 15.3433L105.236 21.75H110L103.522 12.2366ZM101.589 14.5041L100.956 13.5907L95.9199 6.3225H98.0879L102.151 12.1883L102.784 13.1016L108.067 20.727H105.899L101.589 14.5041Z" fill="#0B0A14"/>
<rect x="132.5" width="28" height="28" rx="14" fill="white"/>
<path fill-rule="evenodd" clip-rule="evenodd" d="M145.24 7.15667C146.06 6.33616 147.173 5.87514 148.333 5.875H150.583C150.749 5.875 150.908 5.94085 151.025 6.05806C151.142 6.17527 151.208 6.33424 151.208 6.5V9.5C151.208 9.66576 151.142 9.82473 151.025 9.94194C150.908 10.0592 150.749 10.125 150.583 10.125H148.333C148.317 10.125 148.301 10.1282 148.285 10.1345C148.27 10.1408 148.257 10.15 148.245 10.1616C148.233 10.1732 148.224 10.187 148.218 10.2022C148.212 10.2173 148.208 10.2336 148.208 10.25V11.875H150.583C150.678 11.8749 150.772 11.8966 150.858 11.9382C150.943 11.9798 151.018 12.0404 151.076 12.1153C151.135 12.1901 151.175 12.2774 151.195 12.3703C151.215 12.4633 151.213 12.5595 151.19 12.6517L150.44 15.6517C150.406 15.7869 150.328 15.907 150.218 15.9928C150.108 16.0785 149.973 16.1251 149.833 16.125H148.208V21.5C148.208 21.6658 148.142 21.8247 148.025 21.9419C147.908 22.0592 147.749 22.125 147.583 22.125H144.583C144.418 22.125 144.259 22.0592 144.141 21.9419C144.024 21.8247 143.958 21.6658 143.958 21.5V16.125H142.333C142.168 16.125 142.009 16.0592 141.891 15.9419C141.774 15.8247 141.708 15.6658 141.708 15.5V12.5C141.708 12.4179 141.724 12.3367 141.756 12.2608C141.787 12.185 141.833 12.1161 141.891 12.0581C141.949 12 142.018 11.954 142.094 11.9226C142.17 11.8912 142.251 11.875 142.333 11.875H143.958V10.25C143.958 9.08973 144.419 7.97703 145.24 7.15667ZM148.333 7.125C147.505 7.125 146.71 7.45424 146.124 8.04029C145.538 8.62634 145.208 9.4212 145.208 10.25V12.5C145.208 12.6658 145.142 12.8247 145.025 12.9419C144.908 13.0592 144.749 13.125 144.583 13.125H142.958V14.875H144.583C144.749 14.875 144.908 14.9408 145.025 15.0581C145.142 15.1753 145.208 15.3342 145.208 15.5V20.875H146.958V15.5C146.958 15.3342 147.024 15.1753 147.141 15.0581C147.259 14.9408 147.418 14.875 147.583 14.875H149.345L149.782 13.125H147.583C147.418 13.125 147.259 13.0592 147.141 12.9419C147.024 12.8247 146.958 12.6658 146.958 12.5V10.25C146.958 9.88533 147.103 9.53559 147.361 9.27773C147.619 9.01987 147.969 8.875 148.333 8.875H149.958V7.125H148.333Z" fill="#0B0A14"/>
</svg>
